{
copyright = "Copyright 2014 Pria Ravichandran (pria.ravichandran@gmail.com)";
customParameters = (
{
name = license;
value = "Licenced under the SIL Open Font License, Version 1.1, available with a FAQ at: http://scripts.sil.org/OFL";
},
{
name = licenseURL;
value = "http://scripts.sil.org/OFL";
},
{
name = vendorID;
value = PYRS;
},
{
name = glyphOrder;
value = (
    ".notdef",
    uni0000,
    CR,
    space,
    uni00A0,
    uni200C,
    uni200D,
    uni25CC,
    A,
    B,
    C,
    D,
    E,
    F,
    G,
    H,
    I,
    J,
    K,
    L,
    M,
    N,
    O,
    P,
    Q,
    R,
    S,
    T,
    U,
    V,
    W,
    X,
    Y,
    Z,
    a,
    b,
    c,
    d,
    e,
    f,
    g,
    h,
    i,
    j,
    k,
    l,
    m,
    n,
    o,
    p,
    q,
    r,
    s,
    t,
    u,
    v,
    w,
    x,
    y,
    z,
    fi,
    fl,
    zero,
    one,
    two,
    three,
    four,
    five,
    six,
    seven,
    eight,
    nine,
    grave,
    dieresis,
    macron,
    acute,
    circumflex,
    caron,
    breve,
    dotaccent,
    ring,
    tilde,
    hungarumlaut,
    ogonek,
    cedilla,
    commaaccent,
    "grave.case",
    "dieresis.case",
    "macron.case",
    "acute.case",
    "circumflex.case",
    "caron.case",
    "breve.case",
    "dotaccent.case",
    "ring.case",
    "tilde.case",
    "hungarumlaut.case",
    Thorn,
    Eth,
    AE,
    Dcroat,
    Lslash,
    OE,
    Oslash,
    germandbls,
    eth,
    thorn,
    florin,
    ae,
    dcroat,
    oe,
    lacute,
    lslash,
    dotlessi,
    oslash,
    gcedilla,
    Agrave,
    Aacute,
    Acircumflex,
    Atilde,
    Adieresis,
    Aring,
    Abreve,
    Aogonek,
    Amacron,
    Ccedilla,
    Cacute,
    Ccaron,
    Dcaron,
    Egrave,
    Eacute,
    Ecircumflex,
    Edieresis,
    Emacron,
    Edotaccent,
    Eogonek,
    Ecaron,
    Gbreve,
    Igrave,
    Iacute,
    Icircumflex,
    Idieresis,
    Imacron,
    Iogonek,
    Idotaccent,
    Lacute,
    Lcaron,
    Ntilde,
    Nacute,

glyphs = (
{
glyphname = .notdef;
lastChange = "2015-05-04 18:40:54 +0000";
layers = (
{
layerId = "7D7A15B1-26C3-429D-8003-112E9373A587";
name = Light;
paths = (
{
closed = 1;
nodes = (
"528 696 LINE",
"528 0 LINE",
"100 0 LINE",
"100 696 LINE"
);
},
{
closed = 1;
nodes = (
"149 657 LINE",
"149 39 LINE",
"478 39 LINE",
"478 657 LINE"
);
}
);
width = 628;
},
{
layerId = "601FF878-0EB3-47BC-931B-6B704884A184";
name = Bold;
paths = (
{
closed = 1;
nodes = (
"550 696 LINE",
"550 0 LINE",
"94 0 LINE",
"94 696 LINE"
);
},
{
closed = 1;
nodes = (
"157 645 LINE",
"157 50 LINE",
"487 50 LINE",
"486 645 LINE"
);
}
);
width = 645;
}
);
},
{
glyphname = uni200C;
lastChange = "2015-05-04 18:40:54 +0000";
layers = (
{
layerId = "7D7A15B1-26C3-429D-8003-112E9373A587";
name = Light;
paths = (
{
closed = 1;
nodes = (
"-25 1237 LINE",
"24 1237 LINE",
"24 -68 LINE",
"-25 -68 LINE"
);
}
);
width = 0;
},
{
layerId = "601FF878-0EB3-47BC-931B-6B704884A184";
name = Bold;
paths = (
{
closed = 1;
nodes = (
"-30 1237 LINE",
"30 1237 LINE",
"30 -68 LINE",
"-30 -68 LINE"
);
}
);
width = 0;
}
);
unicode = 200C;
},
{
glyphname = uni200D;
lastChange = "2015-05-04 18:40:54 +0000";
layers = (
{
layerId = "7D7A15B1-26C3-429D-8003-112E9373A587";
name = Light;
paths = (
{
closed = 1;
nodes = (
"74 1320 LINE",
"114 1280 LINE",
"40 1206 LINE",
"114 1132 LINE",
"75 1093 LINE",
"24 1137 LINE",
"24 -68 LINE",
"-25 -68 LINE",
"-25 1136 LINE",
"-74 1093 LINE",
"-113 1132 LINE",
"-39 1206 LINE",
"-113 1280 LINE",
"-73 1320 LINE",
"0 1246 LINE"
);
}
);
width = 0;
},
{
layerId = "601FF878-0EB3-47BC-931B-6B704884A184";
name = Bold;
paths = (
{
closed = 1;
nodes = (
"74 1320 LINE",
"114 1280 LINE",
"40 1206 LINE",
"114 1132 LINE",
"75 1093 LINE",
"30 1137 LINE",
"30 -68 LINE",
"-30 -68 LINE",
"-30 1136 LINE",
"-74 1093 LINE",
"-113 1132 LINE",
"-39 1206 LINE",
"-113 1280 LINE",
"-73 1320 LINE",
"0 1246 LINE"
);
}
);
width = 0;
}
);
unicode = 200D;
},
{
glyphname = uni25CC;
lastChange = "2015-05-04 18:40:54 +0000";
layers = (
{
layerId = "7D7A15B1-26C3-429D-8003-112E9373A587";
name = Light;
paths = (
{
closed = 1;
nodes = (
"316 510 OFFCURVE",
"303 523 OFFCURVE",
"303 542 CURVE SMOOTH",
"303 561 OFFCURVE",
"316 575 OFFCURVE",
"335 575 CURVE SMOOTH",
"354 575 OFFCURVE",
"368 561 OFFCURVE",
"368 542 CURVE SMOOTH",
"368 523 OFFCURVE",
"354 510 OFFCURVE",
"335 510 CURVE SMOOTH"
);
},
{
closed = 1;
nodes = (
"416 493 OFFCURVE",
"403 506 OFFCURVE",
"403 525 CURVE SMOOTH",
"403 544 OFFCURVE",
"416 558 OFFCURVE",
"435 558 CURVE SMOOTH",
"454 558 OFFCURVE",
"468 544 OFFCURVE",
"468 525 CURVE SMOOTH",
"468 506 OFFCURVE",
"454 493 OFFCURVE",
"435 493 CURVE SMOOTH"
);
},
{
closed = 1;
nodes = (
"256 558 OFFCURVE",
"269 544 OFFCURVE",
"269 525 CURVE SMOOTH",
"269 506 OFFCURVE",
"256 493 OFFCURVE",
"237 493 CURVE SMOOTH",
"218 493 OFFCURVE",
"204 506 OFFCURVE",
"204 525 CURVE SMOOTH",
"204 544 OFFCURVE",
"218 558 OFFCURVE",
"237 558 CURVE SMOOTH"
);
},
{
closed = 1;
nodes = (
"501 437 OFFCURVE",
"488 450 OFFCURVE",
"488 469 CURVE SMOOTH",
"488 488 OFFCURVE",
"501 502 OFFCURVE",
"520 502 CURVE SMOOTH",
"539 502 OFFCURVE",
"553 488 OFFCURVE",
"553 469 CURVE SMOOTH",
"553 450 OFFCURVE",
"539 437 OFFCURVE",
"520 437 CURVE SMOOTH"
);
},
{
closed = 1;
nodes = (
"171 502 OFFCURVE",
"184 488 OFFCURVE",
"184 469 CURVE SMOOTH",
"184 450 OFFCURVE",
"171 437 OFFCURVE",
"152 437 CURVE SMOOTH",
"133 437 OFFCURVE",
"119 450 OFFCURVE",
"119 469 CURVE SMOOTH",
"119 488 OFFCURVE",
"133 502 OFFCURVE",
"152 502 CURVE SMOOTH"
);
},
{
closed = 1;
nodes = (
"554 349 OFFCURVE",
"541 362 OFFCURVE",
"541 381 CURVE SMOOTH",
"541 400 OFFCURVE",
"554 414 OFFCURVE",
"573 414 CURVE SMOOTH",
"592 414 OFFCURVE",
"606 400 OFFCURVE",
"606 381 CURVE SMOOTH",
"606 362 OFFCURVE",
"592 349 OFFCURVE",
"573 349 CURVE SMOOTH"
);
},
{
closed = 1;
nodes = (
"118 414 OFFCURVE",
"131 400 OFFCURVE",
"131 381 CURVE SMOOTH",
"131 362 OFFCURVE",
"118 349 OFFCURVE",
"99 349 CURVE SMOOTH",
"80 349 OFFCURVE",
"66 362 OFFCURVE",
"66 381 CURVE SMOOTH",
"66 400 OFFCURVE",
"80 414 OFFCURVE",
"99 414 CURVE SMOOTH"
);
},
{
closed = 1;
nodes = (
"570 254 OFFCURVE",
"557 267 OFFCURVE",
"557 286 CURVE SMOOTH",
"557 305 OFFCURVE",
"570 319 OFFCURVE",
"589 319 CURVE SMOOTH",
"608 319 OFFCURVE",
"622 305 OFFCURVE",
"622 286 CURVE SMOOTH",
"622 267 OFFCURVE",
"608 254 OFFCURVE",
"589 254 CURVE SMOOTH"
);
},
{
closed = 1;
nodes = (
"102 319 OFFCURVE",
"115 305 OFFCURVE",
"115 286 CURVE SMOOTH",
"115 267 OFFCURVE",
"102 254 OFFCURVE",
"83 254 CURVE SMOOTH",
"64 254 OFFCURVE",
"50 267 OFFCURVE",
"50 286 CURVE SMOOTH",
"50 305 OFFCURVE",
"64 319 OFFCURVE",
"83 319 CURVE SMOOTH"
);
},
{
closed = 1;
nodes = (
"554 161 OFFCURVE",
"541 174 OFFCURVE",
"541 193 CURVE SMOOTH",
"541 212 OFFCURVE",
"554 226 OFFCURVE",
"573 226 CURVE SMOOTH",
"592 226 OFFCURVE",
"606 212 OFFCURVE",
"606 193 CURVE SMOOTH",
"606 174 OFFCURVE",
"592 161 OFFCURVE",
"573 161 CURVE SMOOTH"
);
},
{
closed = 1;
nodes = (
"118 226 OFFCURVE",
"131 212 OFFCURVE",
"131 193 CURVE SMOOTH",
"131 174 OFFCURVE",
"118 161 OFFCURVE",
"99 161 CURVE SMOOTH",
"80 161 OFFCURVE",
"66 174 OFFCURVE",
"66 193 CURVE SMOOTH",
"66 212 OFFCURVE",
"80 226 OFFCURVE",
"99 226 CURVE SMOOTH"
);
},
{
closed = 1;
nodes = (
"502 72 OFFCURVE",
"489 85 OFFCURVE",
"489 104 CURVE SMOOTH",
"489 123 OFFCURVE",
"502 137 OFFCURVE",
"521 137 CURVE SMOOTH",
"540 137 OFFCURVE",
"554 123 OFFCURVE",
"554 104 CURVE SMOOTH",
"554 85 OFFCURVE",
"540 72 OFFCURVE",
"521 72 CURVE SMOOTH"
);
},
{
closed = 1;
nodes = (
"170 137 OFFCURVE",
"183 123 OFFCURVE",
"183 104 CURVE SMOOTH",
"183 85 OFFCURVE",
"170 72 OFFCURVE",
"151 72 CURVE SMOOTH",
"132 72 OFFCURVE",
"118 85 OFFCURVE",
"118 104 CURVE SMOOTH",
"118 123 OFFCURVE",
"132 137 OFFCURVE",
"151 137 CURVE SMOOTH"
);
},
{
closed = 1;
nodes = (
"256 82 OFFCURVE",
"269 68 OFFCURVE",
"269 49 CURVE SMOOTH",
"269 30 OFFCURVE",
"256 17 OFFCURVE",
"237 17 CURVE SMOOTH",
"218 17 OFFCURVE",
"204 30 OFFCURVE",
"204 49 CURVE SMOOTH",
"204 68 OFFCURVE",
"218 82 OFFCURVE",
"237 82 CURVE SMOOTH"
);
},
{
closed = 1;
nodes = (
"416 17 OFFCURVE",
"403 30 OFFCURVE",
"403 49 CURVE SMOOTH",
"403 68 OFFCURVE",
"416 82 OFFCURVE",
"435 82 CURVE SMOOTH",
"454 82 OFFCURVE",
"468 68 OFFCURVE",
"468 49 CURVE SMOOTH",
"468 30 OFFCURVE",
"454 17 OFFCURVE",
"435 17 CURVE SMOOTH"
);
},
{
closed = 1;
nodes = (
"316 0 OFFCURVE",
"303 13 OFFCURVE",
"303 32 CURVE SMOOTH",
"303 51 OFFCURVE",
"316 65 OFFCURVE",
"335 65 CURVE SMOOTH",
"354 65 OFFCURVE",
"368 51 OFFCURVE",
"368 32 CURVE SMOOTH",
"368 13 OFFCURVE",
"354 0 OFFCURVE",
"335 0 CURVE SMOOTH"
);
}
);
width = 672;
},
{
layerId = "601FF878-0EB3-47BC-931B-6B704884A184";
name = Bold;
paths = (
{
closed = 1;
nodes = (
"316 510 OFFCURVE",
"303 523 OFFCURVE",
"303 542 CURVE SMOOTH",
"303 561 OFFCURVE",
"316 575 OFFCURVE",
"335 575 CURVE SMOOTH",
"354 575 OFFCURVE",
"368 561 OFFCURVE",
"368 542 CURVE SMOOTH",
"368 523 OFFCURVE",
"354 510 OFFCURVE",
"335 510 CURVE SMOOTH"
);
},
{
closed = 1;
nodes = (
"416 493 OFFCURVE",
"403 506 OFFCURVE",
"403 525 CURVE SMOOTH",
"403 544 OFFCURVE",
"416 558 OFFCURVE",
"435 558 CURVE SMOOTH",
"454 558 OFFCURVE",
"468 544 OFFCURVE",
"468 525 CURVE SMOOTH",
"468 506 OFFCURVE",
"454 493 OFFCURVE",
"435 493 CURVE SMOOTH"
);
},
{
closed = 1;
nodes = (
"256 558 OFFCURVE",
"269 544 OFFCURVE",
"269 525 CURVE SMOOTH",
"269 506 OFFCURVE",
"256 493 OFFCURVE",
"237 493 CURVE SMOOTH",
"218 493 OFFCURVE",
"204 506 OFFCURVE",
"204 525 CURVE SMOOTH",
"204 544 OFFCURVE",
"218 558 OFFCURVE",
"237 558 CURVE SMOOTH"
);
},
{
closed = 1;
nodes = (
"501 437 OFFCURVE",
"488 450 OFFCURVE",
"488 469 CURVE SMOOTH",
"488 488 OFFCURVE",
"501 502 OFFCURVE",
"520 502 CURVE SMOOTH",
"539 502 OFFCURVE",
"553 488 OFFCURVE",
"553 469 CURVE SMOOTH",
"553 450 OFFCURVE",
"539 437 OFFCURVE",
"520 437 CURVE SMOOTH"
);
},
{
closed = 1;
nodes = (
"171 502 OFFCURVE",
"184 488 OFFCURVE",
"184 469 CURVE SMOOTH",
"184 450 OFFCURVE",
"171 437 OFFCURVE",
"152 437 CURVE SMOOTH",
"133 437 OFFCURVE",
"119 450 OFFCURVE",
"119 469 CURVE SMOOTH",
"119 488 OFFCURVE",
"133 502 OFFCURVE",
"152 502 CURVE SMOOTH"
);
},
{
closed = 1;
nodes = (
"554 349 OFFCURVE",
"541 362 OFFCURVE",
"541 381 CURVE SMOOTH",
"541 400 OFFCURVE",
"554 414 OFFCURVE",
"573 414 CURVE SMOOTH",
"592 414 OFFCURVE",
"606 400 OFFCURVE",
"606 381 CURVE SMOOTH",
"606 362 OFFCURVE",
"592 349 OFFCURVE",
"573 349 CURVE SMOOTH"
);
},
{
closed = 1;
nodes = (
"118 414 OFFCURVE",
"131 400 OFFCURVE",
"131 381 CURVE SMOOTH",
"131 362 OFFCURVE",
"118 349 OFFCURVE",
"99 349 CURVE SMOOTH",
"80 349 OFFCURVE",
"66 362 OFFCURVE",
"66 381 CURVE SMOOTH",
"66 400 OFFCURVE",
"80 414 OFFCURVE",
"99 414 CURVE SMOOTH"
);
},
{
closed = 1;
nodes = (
"570 254 OFFCURVE",
"557 267 OFFCURVE",
"557 286 CURVE SMOOTH",
"557 305 OFFCURVE",
"570 319 OFFCURVE",
"589 319 CURVE SMOOTH",
"608 319 OFFCURVE",
"622 305 OFFCURVE",
"622 286 CURVE SMOOTH",
"622 267 OFFCURVE",
"608 254 OFFCURVE",
"589 254 CURVE SMOOTH"
);
},
{
closed = 1;
nodes = (
"102 319 OFFCURVE",
"115 305 OFFCURVE",
"115 286 CURVE SMOOTH",
"115 267 OFFCURVE",
"102 254 OFFCURVE",
"83 254 CURVE SMOOTH",
"64 254 OFFCURVE",
"50 267 OFFCURVE",
"50 286 CURVE SMOOTH",
"50 305 OFFCURVE",
"64 319 OFFCURVE",
"83 319 CURVE SMOOTH"
);
},
{
closed = 1;
nodes = (
"554 161 OFFCURVE",
"541 174 OFFCURVE",
"541 193 CURVE SMOOTH",
"541 212 OFFCURVE",
"554 226 OFFCURVE",
"573 226 CURVE SMOOTH",
"592 226 OFFCURVE",
"606 212 OFFCURVE",
"606 193 CURVE SMOOTH",
"606 174 OFFCURVE",
"592 161 OFFCURVE",
"573 161 CURVE SMOOTH"
);
},
{
closed = 1;
nodes = (
"118 226 OFFCURVE",
"131 212 OFFCURVE",
"131 193 CURVE SMOOTH",
"131 174 OFFCURVE",
"118 161 OFFCURVE",
"99 161 CURVE SMOOTH",
"80 161 OFFCURVE",
"66 174 OFFCURVE",
"66 193 CURVE SMOOTH",
"66 212 OFFCURVE",
"80 226 OFFCURVE",
"99 226 CURVE SMOOTH"
);
},
{
closed = 1;
nodes = (
"502 72 OFFCURVE",
"489 85 OFFCURVE",
"489 104 CURVE SMOOTH",
"489 123 OFFCURVE",
"502 137 OFFCURVE",
"521 137 CURVE SMOOTH",
"540 137 OFFCURVE",
"554 123 OFFCURVE",
"554 104 CURVE SMOOTH",
"554 85 OFFCURVE",
"540 72 OFFCURVE",
"521 72 CURVE SMOOTH"
);
},
{
closed = 1;
nodes = (
"170 137 OFFCURVE",
"183 123 OFFCURVE",
"183 104 CURVE SMOOTH",
"183 85 OFFCURVE",
"170 72 OFFCURVE",
"151 72 CURVE SMOOTH",
"132 72 OFFCURVE",
"118 85 OFFCURVE",
"118 104 CURVE SMOOTH",
"118 123 OFFCURVE",
"132 137 OFFCURVE",
"151 137 CURVE SMOOTH"
);
},
{
closed = 1;
nodes = (
"256 82 OFFCURVE",
"269 68 OFFCURVE",
"269 49 CURVE SMOOTH",
"269 30 OFFCURVE",
"256 17 OFFCURVE",
"237 17 CURVE SMOOTH",
"218 17 OFFCURVE",
"204 30 OFFCURVE",
"204 49 CURVE SMOOTH",
"204 68 OFFCURVE",
"218 82 OFFCURVE",
"237 82 CURVE SMOOTH"
);
},
{
closed = 1;
nodes = (
"416 17 OFFCURVE",
"403 30 OFFCURVE",
"403 49 CURVE SMOOTH",
"403 68 OFFCURVE",
"416 82 OFFCURVE",
"435 82 CURVE SMOOTH",
"454 82 OFFCURVE",
"468 68 OFFCURVE",
"468 49 CURVE SMOOTH",
"468 30 OFFCURVE",
"454 17 OFFCURVE",
"435 17 CURVE SMOOTH"
);
},
{
closed = 1;
nodes = (
"316 0 OFFCURVE",
"303 13 OFFCURVE",
"303 32 CURVE SMOOTH",
"303 51 OFFCURVE",
"316 65 OFFCURVE",
"335 65 CURVE SMOOTH",
"354 65 OFFCURVE",
"368 51 OFFCURVE",
"368 32 CURVE SMOOTH",
"368 13 OFFCURVE",
"354 0 OFFCURVE",
"335 0 CURVE SMOOTH"
);
}
);
width = 672;
}
);
unicode = 25CC;
},
{
glyphname = A;
lastChange = "2015-05-04 18:40:54 +0000";
layers = (
{
anchors = (
{
name = bottom;
position = "{538, 0}";
},
{
name = topU;
position = "{281, 680}";
}
);
layerId = "7D7A15B1-26C3-429D-8003-112E9373A587";
name = Light;
paths = (
{
closed = 1;
nodes = (
"281 614 LINE",
"150 252 LINE",
"417 252 LINE"
);
},
{
closed = 1;
nodes = (
"303 680 LINE",
"562 5 LINE",
"512 -6 LINE",
"431 213 LINE",
"136 213 LINE",
"59 0 LINE",
"10 0 LINE",
"257 680 LINE"
);
}
);
width = 572;
},
{
anchors = (
{
name = bottom;
position = "{552, 0}";
},
{
name = topU;
position = "{290, 680}";
}
);
layerId = "601FF878-0EB3-47BC-931B-6B704884A184";
name = Bold;
paths = (
{
closed = 1;
nodes = (
"290 600 LINE",
"161 254 LINE",
"423 254 LINE"
);
},
{
closed = 1;
nodes = (
"322 680 LINE",
"582 5 LINE",
"521 -5 LINE",
"441 204 LINE",
"144 204 LINE",
"69 0 LINE",
"10 0 LINE",
"257 680 LINE"
);
}
);
width = 592;
}
);
unicode = 0041;
},
{
glyphname = B;
lastChange = "2015-05-04 18:40:54 +0000";
layers = (
{
layerId = "7D7A15B1-26C3-429D-8003-112E9373A587";
name = Light;
paths = (
{
closed = 1;
nodes = (
"100 0 LINE",
"100 680 LINE",
"242 680 LINE SMOOTH",
"385 680 OFFCURVE",
"487 639 OFFCURVE",
"487 503 CURVE SMOOTH",
"487 435 OFFCURVE",
"441 389 OFFCURVE",
"386 362 CURVE",
"469 337 OFFCURVE",
"525 283 OFFCURVE",
"525 188 CURVE SMOOTH",
"525 45 OFFCURVE",
"409 0 OFFCURVE",
"269 0 CURVE SMOOTH"
);
},
{
closed = 1;
nodes = (
"150 641 LINE",
"150 372 LINE",
"241 372 LINE SMOOTH",
"345 373 OFFCURVE",
"435 406 OFFCURVE",
"435 502 CURVE SMOOTH",
"435 606 OFFCURVE",
"363 641 OFFCURVE",
"254 641 CURVE SMOOTH"
);
},
{
closed = 1;
nodes = (
"150 333 LINE",
"150 39 LINE",
"281 39 LINE SMOOTH",
"388 39 OFFCURVE",
"473 81 OFFCURVE",
"473 186 CURVE SMOOTH",
"473 287 OFFCURVE",
"401 333 OFFCURVE",
"292 333 CURVE SMOOTH"
);
}
);
width = 565;
},
{
layerId = "601FF878-0EB3-47BC-931B-6B704884A184";
name = Bold;
paths = (
{
closed = 1;
nodes = (
"95 0 LINE",
"95 680 LINE",
"259 680 LINE SMOOTH",
"402 680 OFFCURVE",
"504 639 OFFCURVE",
"504 503 CURVE SMOOTH",
"504 435 OFFCURVE",
"458 389 OFFCURVE",
"403 362 CURVE",
"486 337 OFFCURVE",
"542 283 OFFCURVE",
"542 188 CURVE SMOOTH",
"542 45 OFFCURVE",
"426 0 OFFCURVE",
"286 0 CURVE SMOOTH"
);
},
{
closed = 1;
nodes = (
"157 627 LINE",
"157 378 LINE",
"248 378 LINE SMOOTH",
"352 379 OFFCURVE",
"442 406 OFFCURVE",
"442 502 CURVE SMOOTH",
"442 606 OFFCURVE",
"370 627 OFFCURVE",
"261 627 CURVE SMOOTH"
);
},
{
closed = 1;
nodes = (
"157 327 LINE",
"157 52 LINE",
"288 52 LINE SMOOTH",
"395 52 OFFCURVE",
"480 81 OFFCURVE",
"480 186 CURVE SMOOTH",
"480 287 OFFCURVE",
"408 327 OFFCURVE",
"299 327 CURVE SMOOTH"
);
}
);
width = 577;
}
);
unicode = 0042;
},
{
glyphname = C;
lastChange = "2015-05-04 18:40:54 +0000";
layers = (
{
anchors = (
{
name = bottom;
position = "{354, 0}";
},
{
name = topU;
position = "{360, 680}";
}
);
layerId = "7D7A15B1-26C3-429D-8003-112E9373A587";
name = Light;
paths = (
{
closed = 1;
nodes = (
"503 621 LINE",
"462 638 OFFCURVE",
"430 651 OFFCURVE",
"358 651 CURVE SMOOTH",
"215 650 OFFCURVE",
"105 529 OFFCURVE",
"105 337 CURVE SMOOTH",
"105 174 OFFCURVE",
"194 29 OFFCURVE",
"349 29 CURVE SMOOTH",
"421 29 OFFCURVE",
"463 43 OFFCURVE",
"499 59 CURVE",
"523 23 LINE",
"486 3 OFFCURVE",
"411 -14 OFFCURVE",
"354 -14 CURVE SMOOTH",
"146 -14 OFFCURVE",
"50 151 OFFCURVE",
"50 336 CURVE SMOOTH",
"50 535 OFFCURVE",
"164 694 OFFCURVE",
"360 694 CURVE SMOOTH",
"401 694 OFFCURVE",
"486 682 OFFCURVE",
"523 657 CURVE"
);
}
);
width = 553;
},
{
anchors = (
{
name = bottom;
position = "{356, 0}";
},
{
name = topU;
position = "{363, 680}";
}
);
layerId = "601FF878-0EB3-47BC-931B-6B704884A184";
name = Bold;
paths = (
{
closed = 1;
nodes = (
"509 611 LINE",
"468 628 OFFCURVE",
"436 640 OFFCURVE",
"364 640 CURVE SMOOTH",
"221 639 OFFCURVE",
"111 512 OFFCURVE",
"111 337 CURVE SMOOTH",
"111 174 OFFCURVE",
"200 41 OFFCURVE",
"355 41 CURVE SMOOTH",
"427 41 OFFCURVE",
"469 55 OFFCURVE",
"505 71 CURVE",
"529 23 LINE",
"492 3 OFFCURVE",
"414 -14 OFFCURVE",
"357 -14 CURVE SMOOTH",
"149 -14 OFFCURVE",
"45 151 OFFCURVE",
"45 336 CURVE SMOOTH",
"45 535 OFFCURVE",
"167 694 OFFCURVE",
"363 694 CURVE SMOOTH",
"404 694 OFFCURVE",
"492 682 OFFCURVE",
"529 657 CURVE"
);
}
);
width = 554;
}
);
unicode = 0043;
},
{
glyphname = D;
lastChange = "2015-05-04 18:40:54 +0000";
layers = (
{
anchors = (
{
name = topU;
position = "{307, 680}";
}
);
layerId = "7D7A15B1-26C3-429D-8003-112E9373A587";
name = Light;
paths = (
{
closed = 1;
nodes = (
"100 0 LINE",
"100 680 LINE",
"324 680 LINE SMOOTH",
"533 680 OFFCURVE",
"612 529 OFFCURVE",
"612 344 CURVE SMOOTH",
"612 155 OFFCURVE",
"520 0 OFFCURVE",
"321 0 CURVE SMOOTH"
);
},
{
closed = 1;
nodes = (
"149 641 LINE",
"149 39 LINE",
"322 39 LINE SMOOTH",
"465 39 OFFCURVE",
"561 168 OFFCURVE",
"561 343 CURVE SMOOTH",
"561 504 OFFCURVE",
"487 641 OFFCURVE",
"332 641 CURVE SMOOTH"
);
}
);
width = 662;
},
{
anchors = (
{
name = topU;
position = "{318, 680}";
}
);
layerId = "601FF878-0EB3-47BC-931B-6B704884A184";
name = Bold;
paths = (
{
closed = 1;
nodes = (
"95 0 LINE",
"95 680 LINE",
"327 680 LINE SMOOTH",
"536 680 OFFCURVE",
"619 529 OFFCURVE",
"619 344 CURVE SMOOTH",
"619 155 OFFCURVE",
"517 0 OFFCURVE",
"318 0 CURVE SMOOTH"
);
},
{
closed = 1;
nodes = (
"157 627 LINE",
"157 52 LINE",
"320 52 LINE SMOOTH",
"463 52 OFFCURVE",
"559 168 OFFCURVE",
"559 343 CURVE SMOOTH",
"559 504 OFFCURVE",
"485 627 OFFCURVE",
"330 627 CURVE SMOOTH"
);
}
);
width = 664;
}
);
unicode = 0044;
},
{
glyphname = E;
lastChange = "2015-05-04 18:40:54 +0000";
layers = (
{
anchors = (
{
name = bottom;
position = "{380, 0}";
},
{
name = topU;
position = "{275, 680}";
}
);
layerId = "7D7A15B1-26C3-429D-8003-112E9373A587";
name = Light;
paths = (
{
closed = 1;
nodes = (
"100 0 LINE",
"100 680 LINE",
"447 680 LINE",
"452 641 LINE",
"149 641 LINE",
"149 368 LINE",
"389 368 LINE",
"394 329 LINE",
"149 329 LINE",
"149 39 LINE",
"469 39 LINE",
"475 0 LINE"
);
}
);
width = 495;
},
{
anchors = (
{
name = bottom;
position = "{393, 0}";
},
{
name = topU;
position = "{278, 680}";
}
);
layerId = "601FF878-0EB3-47BC-931B-6B704884A184";
name = Bold;
paths = (
{
closed = 1;
nodes = (
"95 0 LINE",
"95 680 LINE",
"455 680 LINE",
"460 635 LINE",
"157 635 LINE",
"157 371 LINE",
"397 371 LINE",
"402 326 LINE",
"157 326 LINE",
"157 50 LINE",
"477 50 LINE",
"483 0 LINE"
);
}
);
width = 503;
}
);
unicode = 0045;
},
{
glyphname = F;
lastChange = "2015-05-04 18:40:54 +0000";
layers = (
{
layerId = "7D7A15B1-26C3-429D-8003-112E9373A587";
name = Light;
paths = (
{
closed = 1;
nodes = (
"384 325 LINE",
"149 325 LINE",
"149 0 LINE",
"100 0 LINE",
"100 680 LINE",
"436 680 LINE",
"443 641 LINE",
"149 641 LINE",
"149 364 LINE",
"378 364 LINE"
);
}
);
width = 463;
},
{
layerId = "601FF878-0EB3-47BC-931B-6B704884A184";
name = Bold;
paths = (
{
closed = 1;
nodes = (
"392 322 LINE",
"157 322 LINE",
"157 0 LINE",
"95 0 LINE",
"95 680 LINE",
"444 680 LINE",
"451 635 LINE",
"157 635 LINE",
"157 367 LINE",
"386 367 LINE"
);
}
);
width = 471;
}
);
unicode = 0046;
},
{
glyphname = G;
lastChange = "2015-05-04 18:47:20 +0000";
layers = (
{
anchors = (
{
name = bottom;
position = "{382, 0}";
},
{
name = topU;
position = "{388, 680}";
}
);
layerId = "7D7A15B1-26C3-429D-8003-112E9373A587";
name = Light;
paths = (
{
closed = 1;
nodes = (
"356 342 LINE",
"552 342 LINE",
"552 31 LINE",
"515 6 OFFCURVE",
"439 -14 OFFCURVE",
"382 -14 CURVE SMOOTH",
"175 -14 OFFCURVE",
"50 137 OFFCURVE",
"50 336 CURVE SMOOTH",
"50 544 OFFCURVE",
"193 694 OFFCURVE",
"388 694 CURVE SMOOTH",
"429 694 OFFCURVE",
"517 682 OFFCURVE",
"554 657 CURVE",
"535 624 LINE",
"494 641 OFFCURVE",
"461 653 OFFCURVE",
"390 653 CURVE SMOOTH",
"225 653 OFFCURVE",
"105 520 OFFCURVE",
"105 336 CURVE SMOOTH",
"105 158 OFFCURVE",
"221 29 OFFCURVE",
"381 29 CURVE SMOOTH",
"429 29 OFFCURVE",
"470 40 OFFCURVE",
"503 52 CURVE",
"503 303 LINE",
"350 303 LINE"
);
}
);
width = 614;
},
{
anchors = (
{
name = bottom;
position = "{388, 0}";
},
{
name = topU;
position = "{373, 680}";
}
);
layerId = "601FF878-0EB3-47BC-931B-6B704884A184";
name = Bold;
paths = (
{
closed = 1;
nodes = (
"362 342 LINE",
"571 342 LINE",
"571 32 LINE",
"530 4 OFFCURVE",
"449 -14 OFFCURVE",
"388 -14 CURVE SMOOTH",
"181 -14 OFFCURVE",
"45 137 OFFCURVE",
"45 336 CURVE SMOOTH",
"45 551 OFFCURVE",
"199 694 OFFCURVE",
"394 694 CURVE SMOOTH",
"435 694 OFFCURVE",
"523 682 OFFCURVE",
"560 657 CURVE",
"541 611 LINE",
"500 628 OFFCURVE",
"467 640 OFFCURVE",
"396 640 CURVE SMOOTH",
"253 639 OFFCURVE",
"111 530 OFFCURVE",
"111 337 CURVE SMOOTH",
"111 154 OFFCURVE",
"232 41 OFFCURVE",
"387 41 CURVE SMOOTH",
"435 41 OFFCURVE",
"476 52 OFFCURVE",
"509 64 CURVE",
"509 297 LINE",
"356 297 LINE"
);
}
);
width = 626;
}
);
unicode = 0047;
},
{
glyphname = H;
lastChange = "2015-05-04 18:40:54 +0000";
layers = (
{
layerId = "7D7A15B1-26C3-429D-8003-112E9373A587";
name = Light;
paths = (
{
closed = 1;
nodes = (
"506 0 LINE",
"506 325 LINE",
"149 325 LINE",
"149 0 LINE",
"100 0 LINE",
"100 680 LINE",
"149 685 LINE",
"149 364 LINE",
"506 364 LINE",
"506 680 LINE",
"555 680 LINE",
"555 0 LINE"
);
}
);
width = 655;
},
{
layerId = "601FF878-0EB3-47BC-931B-6B704884A184";
name = Bold;
paths = (
{
closed = 1;
nodes = (
"494 0 LINE",
"494 319 LINE",
"157 319 LINE",
"157 0 LINE",
"95 0 LINE",
"95 680 LINE",
"157 685 LINE",
"157 369 LINE",
"494 369 LINE",
"494 680 LINE",
"556 680 LINE",
"556 0 LINE"
);
}
);
width = 651;
}
);
unicode = 0048;
},
{
glyphname = I;
lastChange = "2015-05-04 18:40:54 +0000";
layers = (
{
anchors = (
{
name = bottom;
position = "{125, 0}";
},
{
name = topU;
position = "{125, 680}";
}
);
layerId = "7D7A15B1-26C3-429D-8003-112E9373A587";
name = Light;
paths = (
{
closed = 1;
nodes = (
"100 0 LINE",
"100 680 LINE",
"149 680 LINE",
"149 0 LINE"
);
}
);
width = 249;
},
{
anchors = (
{
name = bottom;
position = "{128, 0}";
},
{
name = topU;
position = "{127, 680}";
}
);
layerId = "601FF878-0EB3-47BC-931B-6B704884A184";
name = Bold;
paths = (
{
closed = 1;
nodes = (
"95 0 LINE",
"95 680 LINE",
"157 680 LINE",
"157 0 LINE"
);
}
);
width = 252;
}
);
unicode = 0049;
},
{
glyphname = J;
lastChange = "2015-05-04 18:40:54 +0000";
layers = (
{
layerId = "7D7A15B1-26C3-429D-8003-112E9373A587";
name = Light;
paths = (
{
closed = 1;
nodes = (
"98 680 LINE",
"147 680 LINE",
"147 42 LINE SMOOTH",
"147 -38 OFFCURVE",
"130 -73 OFFCURVE",
"34 -102 CURVE",
"10 -70 LINE",
"77 -45 OFFCURVE",
"98 -31 OFFCURVE",
"98 49 CURVE SMOOTH"
);
}
);
width = 237;
},
{
layerId = "601FF878-0EB3-47BC-931B-6B704884A184";
name = Bold;
paths = (
{
closed = 1;
nodes = (
"95 680 LINE",
"157 680 LINE",
"157 42 LINE SMOOTH",
"157 -38 OFFCURVE",
"130 -73 OFFCURVE",
"34 -102 CURVE",
"10 -60 LINE",
"77 -35 OFFCURVE",
"96 -21 OFFCURVE",
"95 59 CURVE SMOOTH"
);
}
);
width = 242;
}
);
unicode = 004A;
},
{
glyphname = K;
lastChange = "2015-05-04 19:55:56 +0000";
layers = (
{
anchors = (
{
name = bottom;
position = "{332, 0}";
}
);
layerId = "7D7A15B1-26C3-429D-8003-112E9373A587";
name = Light;
paths = (
{
closed = 1;
nodes = (
"570 0 LINE",
"269 397 LINE",
"519 663 LINE",
"485 695 LINE",
"149 325 LINE",
"149 680 LINE",
"100 680 LINE",
"100 0 LINE",
"149 0 LINE",
"149 269 LINE",
"236 362 LINE",
"508 0 LINE"
);
}
);
width = 580;
},
{
anchors = (
{
name = bottom;
position = "{337, 0}";
}
);
layerId = "601FF878-0EB3-47BC-931B-6B704884A184";
name = Bold;
paths = (
{
closed = 1;
nodes = (
"583 0 LINE",
"279.003 383.428 LINE",
"543 657 LINE",
"503 695 LINE",
"157 335 LINE",
"157 680 LINE",
"95 680 LINE",
"95 0 LINE",
"157 0 LINE",
"157 257 LINE",
"238.013 340.951 LINE",
"509 0 LINE"
);
}
);
width = 593;
}
);
unicode = 004B;
},
{
glyphname = L;
lastChange = "2015-05-04 18:40:54 +0000";
layers = (
{
anchors = (
{
name = bottom;
position = "{306, 0}";
},
{
name = topU;
position = "{169, 680}";
}
);
layerId = "7D7A15B1-26C3-429D-8003-112E9373A587";
name = Light;
paths = (
{
closed = 1;
nodes = (
"481 0 LINE",
"100 0 LINE",
"100 680 LINE",
"149 680 LINE",
"149 39 LINE",
"476 39 LINE"
);
}
);
width = 491;
},
{
anchors = (
{
name = bottom;
position = "{346, 0}";
},
{
name = topU;
position = "{187, 680}";
}
);
layerId = "601FF878-0EB3-47BC-931B-6B704884A184";
name = Bold;
paths = (
{
closed = 1;
nodes = (
"487 0 LINE",
"95 0 LINE",
"95 680 LINE",
"157 680 LINE",
"157 50 LINE",
"482 50 LINE"
);
}
);
width = 497;
}
);
unicode = 004C;
},
{
glyphname = M;
lastChange = "2015-05-04 18:47:35 +0000";
layers = (
{
layerId = "7D7A15B1-26C3-429D-8003-112E9373A587";
name = Light;
paths = (
{
closed = 1;
nodes = (
"353 245 LINE",
"149 561 LINE",
"149 0 LINE",
"100 0 LINE",
"100 680 LINE",
"122 680 LINE",
"361 318 LINE",
"596 680 LINE",
"623 680 LINE",
"623 0 LINE",
"574 0 LINE",
"574 566 LINE",
"373 249 LINE"
);
}
);
width = 723;
},
{
layerId = "601FF878-0EB3-47BC-931B-6B704884A184";
name = Bold;
paths = (
{
closed = 1;
nodes = (
"371 230 LINE",
"157 547 LINE",
"157 0 LINE",
"95 0 LINE",
"95 680 LINE",
"130 680 LINE",
"379 322 LINE",
"624 680 LINE",
"665 680 LINE",
"665 0 LINE",
"602 0 LINE",
"602 552 LINE",
"391 234 LINE"
);
}
);
width = 760;
}
);
unicode = 004D;
},
{
glyphname = N;
lastChange = "2015-05-04 18:40:54 +0000";
layers = (
{
anchors = (
{
name = bottom;
position = "{348, 0}";
},
{
name = topU;
position = "{330, 680}";
}
);
layerId = "7D7A15B1-26C3-429D-8003-112E9373A587";
name = Light;
paths = (
{
closed = 1;
nodes = (
"100 0 LINE",
"100 680 LINE",
"128 680 LINE",
"475 170 LINE",
"509 111 LINE",
"509 680 LINE",
"558 680 LINE",
"558 0 LINE",
"531 0 LINE",
"163 545 LINE",
"149 574 LINE",
"149 0 LINE"
);
}
);
width = 658;
},
{
anchors = (
{
name = bottom;
position = "{353, 0}";
},
{
name = topU;
position = "{341, 680}";
}
);
layerId = "601FF878-0EB3-47BC-931B-6B704884A184";
name = Bold;
paths = (
{
closed = 1;
nodes = (
"95 0 LINE",
"95 680 LINE",
"136 680 LINE",
"493 188 LINE",
"527 129 LINE",
"527 680 LINE",
"590 680 LINE",
"590 0 LINE",
"549 0 LINE",
"171 531 LINE",
"157 560 LINE",
"157 0 LINE"
);
}
);
width = 685;
}
);
unicode = 004E;
},
{
glyphname = O;
lastChange = "2015-05-04 18:40:54 +0000";
layers = (
{
anchors = (
{
name = topU;
position = "{357, 680}";
}
);
layerId = "7D7A15B1-26C3-429D-8003-112E9373A587";
name = Light;
paths = (
{
closed = 1;
nodes = (
"531 696 OFFCURVE",
"657 549 OFFCURVE",
"657 345 CURVE SMOOTH",
"657 137 OFFCURVE",
"528 -14 OFFCURVE",
"351 -14 CURVE SMOOTH",
"176 -14 OFFCURVE",
"50 133 OFFCURVE",
"50 337 CURVE SMOOTH",
"50 545 OFFCURVE",
"179 696 OFFCURVE",
"357 696 CURVE SMOOTH"
);
},
{
closed = 1;
nodes = (
"105 158 OFFCURVE",
"207 27 OFFCURVE",
"349 27 CURVE SMOOTH",
"496 27 OFFCURVE",
"602 160 OFFCURVE",
"602 344 CURVE SMOOTH",
"602 524 OFFCURVE",
"500 654 OFFCURVE",
"358 654 CURVE SMOOTH",
"211 654 OFFCURVE",
"105 521 OFFCURVE",
"105 338 CURVE SMOOTH"
);
}
);
width = 707;
},
{
anchors = (
{
name = topU;
position = "{363, 680}";
}
);
layerId = "601FF878-0EB3-47BC-931B-6B704884A184";
name = Bold;
paths = (
{
closed = 1;
nodes = (
"545 696 OFFCURVE",
"676 549 OFFCURVE",
"676 345 CURVE SMOOTH",
"676 140 OFFCURVE",
"542 -11 OFFCURVE",
"357 -14 CURVE SMOOTH",
"176 -14 OFFCURVE",
"45 133 OFFCURVE",
"45 337 CURVE SMOOTH",
"45 541 OFFCURVE",
"179 692 OFFCURVE",
"363 696 CURVE SMOOTH"
);
},
{
closed = 1;
nodes = (
"111 166 OFFCURVE",
"213 41 OFFCURVE",
"355 41 CURVE SMOOTH",
"502 41 OFFCURVE",
"608 168 OFFCURVE",
"608 344 CURVE SMOOTH",
"608 516 OFFCURVE",
"506 640 OFFCURVE",
"364 640 CURVE SMOOTH",
"217 640 OFFCURVE",
"111 513 OFFCURVE",
"111 338 CURVE SMOOTH"
);
}
);
width = 721;
}
);
unicode = 004F;
},
{
glyphname = P;
lastChange = "2015-05-04 18:40:54 +0000";
layers = (
{
layerId = "7D7A15B1-26C3-429D-8003-112E9373A587";
name = Light;
paths = (
{
closed = 1;
nodes = (
"100 0 LINE",
"100 680 LINE",
"263 680 LINE SMOOTH",
"404 680 OFFCURVE",
"508 623 OFFCURVE",
"508 475 CURVE SMOOTH",
"508 328 OFFCURVE",
"393 264 OFFCURVE",
"252 264 CURVE SMOOTH",
"149 264 LINE",
"149 0 LINE"
);
},
{
closed = 1;
nodes = (
"149 640 LINE",
"149 303 LINE",
"264 303 LINE SMOOTH",
"371 303 OFFCURVE",
"458 361 OFFCURVE",
"458 474 CURVE SMOOTH",
"458 591 OFFCURVE",
"384 640 OFFCURVE",
"275 640 CURVE SMOOTH"
);
}
);
width = 548;
},
{
layerId = "601FF878-0EB3-47BC-931B-6B704884A184";
name = Bold;
paths = (
{
closed = 1;
nodes = (
"95 0 LINE",
"95 680 LINE",
"271 680 LINE SMOOTH",
"412 680 OFFCURVE",
"516 623 OFFCURVE",
"516 475 CURVE SMOOTH",
"515 328 OFFCURVE",
"401 264 OFFCURVE",
"260 264 CURVE SMOOTH",
"157 264 LINE",
"157 0 LINE"
);
},
{
closed = 1;
nodes = (
"157 627 LINE",
"157 317 LINE",
"262 317 LINE SMOOTH",
"369 317 OFFCURVE",
"452 361 OFFCURVE",
"453 474 CURVE SMOOTH",
"453 591 OFFCURVE",
"382 627 OFFCURVE",
"273 627 CURVE SMOOTH"
);
}
);
width = 551;
}
);
unicode = 0050;
},
{
glyphname = Q;
lastChange = "2015-05-04 18:40:54 +0000";
layers = (
{
layerId = "7D7A15B1-26C3-429D-8003-112E9373A587";
name = Light;
paths = (
{
closed = 1;
nodes = (
"650 1 LINE",
"618 -24 LINE",
"405 176 LINE",
"439 209 LINE"
);
},
{
closed = 1;
nodes = (
"531 696 OFFCURVE",
"657 549 OFFCURVE",
"657 345 CURVE SMOOTH",
"657 137 OFFCURVE",
"528 -14 OFFCURVE",
"351 -14 CURVE SMOOTH",
"176 -14 OFFCURVE",
"50 133 OFFCURVE",
"50 337 CURVE SMOOTH",
"50 545 OFFCURVE",
"179 696 OFFCURVE",
"357 696 CURVE SMOOTH"
);
},
{
closed = 1;
nodes = (
"105 158 OFFCURVE",
"207 27 OFFCURVE",
"349 27 CURVE SMOOTH",
"496 27 OFFCURVE",
"602 160 OFFCURVE",
"602 344 CURVE SMOOTH",
"602 524 OFFCURVE",
"500 654 OFFCURVE",
"358 654 CURVE SMOOTH",
"211 654 OFFCURVE",
"105 521 OFFCURVE",
"105 338 CURVE SMOOTH"
);
}
);
width = 707;
},
{
layerId = "601FF878-0EB3-47BC-931B-6B704884A184";
name = Bold;
paths = (
{
closed = 1;
nodes = (
"618 18 LINE",
"581 -14 LINE",
"368 186 LINE",
"412 219 LINE"
);
},
{
closed = 1;
nodes = (
"545 696 OFFCURVE",
"676 549 OFFCURVE",
"676 345 CURVE SMOOTH",
"676 140 OFFCURVE",
"542 -11 OFFCURVE",
"357 -14 CURVE SMOOTH",
"176 -14 OFFCURVE",
"45 133 OFFCURVE",
"45 337 CURVE SMOOTH",
"45 541 OFFCURVE",
"179 692 OFFCURVE",
"363 696 CURVE SMOOTH"
);
},
{
closed = 1;
nodes = (
"111 166 OFFCURVE",
"213 41 OFFCURVE",
"355 41 CURVE SMOOTH",
"502 41 OFFCURVE",
"608 168 OFFCURVE",
"608 344 CURVE SMOOTH",
"608 516 OFFCURVE",
"506 640 OFFCURVE",
"364 640 CURVE SMOOTH",
"217 640 OFFCURVE",
"111 513 OFFCURVE",
"111 338 CURVE SMOOTH"
);
}
);
width = 721;
}
);
unicode = 0051;
},
{
glyphname = R;
lastChange = "2015-05-04 18:52:35 +0000";
layers = (
{
anchors = (
{
name = bottom;
position = "{329, 0}";
},
{
name = topU;
position = "{263, 680}";
}
);
layerId = "7D7A15B1-26C3-429D-8003-112E9373A587";
name = Light;
paths = (
{
closed = 1;
nodes = (
"149 640 LINE",
"149 325 LINE",
"254 325 LINE SMOOTH",
"355 325 OFFCURVE",
"458 371 OFFCURVE",
"458 484 CURVE SMOOTH",
"458 600 OFFCURVE",
"369 640 OFFCURVE",
"265 640 CURVE SMOOTH"
);
},
{
closed = 1;
nodes = (
"263 680 LINE SMOOTH",
"404 680 OFFCURVE",
"508 629 OFFCURVE",
"508 486 CURVE SMOOTH",
"508 394 OFFCURVE",
"457 337 OFFCURVE",
"385 309 CURVE",
"562 0 LINE",
"507 0 LINE",
"343 296 LINE",
"314 289 OFFCURVE",
"283 286 OFFCURVE",
"252 286 CURVE SMOOTH",
"149 286 LINE",
"149 0 LINE",
"100 0 LINE",
"100 680 LINE"
);
}
);
width = 572;
},
{
anchors = (
{
name = bottom;
position = "{327, 0}";
},
{
name = topU;
position = "{271, 680}";
}
);
layerId = "601FF878-0EB3-47BC-931B-6B704884A184";
name = Bold;
paths = (
{
closed = 1;
nodes = (
"157 627 LINE",
"157 337 LINE",
"262 337 LINE SMOOTH",
"363 337 OFFCURVE",
"452 371 OFFCURVE",
"453 484 CURVE SMOOTH",
"453 600 OFFCURVE",
"377 627 OFFCURVE",
"273 627 CURVE SMOOTH"
);
},
{
closed = 1;
nodes = (
"271 680 LINE SMOOTH",
"412 680 OFFCURVE",
"516 629 OFFCURVE",
"516 486 CURVE SMOOTH",
"515 391 OFFCURVE",
"465 336 OFFCURVE",
"394 308 CURVE",
"570 0 LINE",
"500 0 LINE",
"339 291 LINE",
"314 288 OFFCURVE",
"287 286 OFFCURVE",
"260 286 CURVE SMOOTH",
"157 286 LINE",
"157 0 LINE",
"95 0 LINE",
"95 680 LINE"
);
}
);
width = 580;
}
);
unicode = 0052;
},
{
glyphname = S;
lastChange = "2015-05-04 18:40:54 +0000";
layers = (
{
anchors = (
{
name = bottom;
position = "{237, 0}";
},
{
name = topU;
position = "{256, 680}";
}
);
layerId = "7D7A15B1-26C3-429D-8003-112E9373A587";
name = Light;
paths = (
{
closed = 1;
nodes = (
"70 68 LINE",
"105 51 OFFCURVE",
"169 29 OFFCURVE",
"236 29 CURVE SMOOTH",
"351 29 OFFCURVE",
"413 91 OFFCURVE",
"413 160 CURVE SMOOTH",
"413 233 OFFCURVE",
"353 280 OFFCURVE",
"232 330 CURVE SMOOTH",
"114 379 OFFCURVE",
"50 438 OFFCURVE",
"50 535 CURVE SMOOTH",
"50 627 OFFCURVE",
"128 696 OFFCURVE",
"256 696 CURVE SMOOTH",
"323 696 OFFCURVE",
"384 677 OFFCURVE",
"424 657 CURVE",
"402 621 LINE",
"367 637 OFFCURVE",
"327 655 OFFCURVE",
"258 655 CURVE SMOOTH",
"162 655 OFFCURVE",
"102 599 OFFCURVE",
"102 530 CURVE SMOOTH",
"102 454 OFFCURVE",
"165 405 OFFCURVE",
"283 355 CURVE SMOOTH",
"404 304 OFFCURVE",
"464 248 OFFCURVE",
"464 157 CURVE SMOOTH",
"464 57 OFFCURVE",
"385 -13 OFFCURVE",
"237 -13 CURVE SMOOTH",
"180 -13 OFFCURVE",
"78 9 OFFCURVE",
"55 29 CURVE"
);
}
);
width = 504;
},
{
anchors = (
{
name = bottom;
position = "{238, 0}";
},
{
name = topU;
position = "{257, 680}";
}
);
layerId = "601FF878-0EB3-47BC-931B-6B704884A184";
name = Bold;
paths = (
{
closed = 1;
nodes = (
"71 77 LINE",
"106 60 OFFCURVE",
"170 38 OFFCURVE",
"237 38 CURVE SMOOTH",
"352 38 OFFCURVE",
"414 91 OFFCURVE",
"414 160 CURVE SMOOTH",
"414 238 OFFCURVE",
"349 276 OFFCURVE",
"229 327 CURVE SMOOTH",
"109 378 OFFCURVE",
"45 445 OFFCURVE",
"45 530 CURVE SMOOTH",
"45 623 OFFCURVE",
"129 696 OFFCURVE",
"257 696 CURVE SMOOTH",
"324 696 OFFCURVE",
"385 677 OFFCURVE",
"425 657 CURVE",
"403 610 LINE",
"368 626 OFFCURVE",
"328 644 OFFCURVE",
"259 644 CURVE SMOOTH",
"163 644 OFFCURVE",
"103 599 OFFCURVE",
"103 530 CURVE SMOOTH",
"103 451 OFFCURVE",
"169 417 OFFCURVE",
"290 360 CURVE SMOOTH",
"411 303 OFFCURVE",
"473 259 OFFCURVE",
"473 160 CURVE SMOOTH",
"473 60 OFFCURVE",
"386 -13 OFFCURVE",
"238 -13 CURVE SMOOTH",
"181 -13 OFFCURVE",
"100 5 OFFCURVE",
"56 29 CURVE"
);
}
);
width = 508;
}
);
unicode = 0053;
},
{
glyphname = T;
lastChange = "2015-05-04 18:40:54 +0000";
layers = (
{
anchors = (
{
name = bottom;
position = "{267, 0}";
},
{
name = topU;
position = "{266, 680}";
}
);
layerId = "7D7A15B1-26C3-429D-8003-112E9373A587";
name = Light;
paths = (
{
closed = 1;
nodes = (
"524 641 LINE",
"291 641 LINE",
"291 0 LINE",
"242 0 LINE",
"242 641 LINE",
"10 641 LINE",
"10 680 LINE",
"519 680 LINE"
);
}
);
width = 534;
},
{
anchors = (
{
name = bottom;
position = "{279, 0}";
},
{
name = topU;
position = "{278, 680}";
}
);
layerId = "601FF878-0EB3-47BC-931B-6B704884A184";
name = Bold;
paths = (
{
closed = 1;
nodes = (
"543 631 LINE",
"308 631 LINE",
"308 0 LINE",
"245 0 LINE",
"245 631 LINE",
"10 631 LINE",
"10 680 LINE",
"538 680 LINE"
);
}
);
width = 553;
}
);
unicode = 0054;
},
{
glyphname = U;
lastChange = "2015-05-04 18:40:54 +0000";
layers = (
{
anchors = (
{
name = bottom;
position = "{329, 0}";
},
{
name = topU;
position = "{329, 680}";
}
);
layerId = "7D7A15B1-26C3-429D-8003-112E9373A587";
name = Light;
paths = (
{
closed = 1;
nodes = (
"139 236 LINE SMOOTH",
"139 120 OFFCURVE",
"214 29 OFFCURVE",
"329 29 CURVE SMOOTH",
"448 29 OFFCURVE",
"519 120 OFFCURVE",
"519 236 CURVE SMOOTH",
"519 680 LINE",
"568 680 LINE",
"568 239 LINE SMOOTH",
"568 94 OFFCURVE",
"484 -12 OFFCURVE",
"329 -12 CURVE SMOOTH",
"176 -12 OFFCURVE",
"90 94 OFFCURVE",
"90 239 CURVE SMOOTH",
"90 680 LINE",
"139 680 LINE"
);
}
);
width = 658;
},
{
anchors = (
{
name = bottom;
position = "{336, 0}";
},
{
name = topU;
position = "{336, 680}";
}
);
layerId = "601FF878-0EB3-47BC-931B-6B704884A184";
name = Bold;
paths = (
{
closed = 1;
nodes = (
"147 248 LINE SMOOTH",
"147 132 OFFCURVE",
"221 41 OFFCURVE",
"336 41 CURVE SMOOTH",
"455 41 OFFCURVE",
"525 132 OFFCURVE",
"525 248 CURVE SMOOTH",
"525 680 LINE",
"588 680 LINE",
"588 239 LINE SMOOTH",
"588 94 OFFCURVE",
"491 -12 OFFCURVE",
"336 -12 CURVE SMOOTH",
"183 -11 OFFCURVE",
"85 94 OFFCURVE",
"85 239 CURVE SMOOTH",
"85 680 LINE",
"147 680 LINE"
);
}
);
width = 673;
}
);
unicode = 0055;
},
{
glyphname = V;
lastChange = "2015-05-04 19:56:03 +0000";
layers = (
{
layerId = "7D7A15B1-26C3-429D-8003-112E9373A587";
name = Light;
paths = (
{
closed = 1;
nodes = (
"291 65 LINE",
"513 679 LINE",
"562 679 LINE",
"315 -1 LINE",
"269 -1 LINE",
"10 674 LINE",
"60 685 LINE"
);
}
);
width = 572;
},
{
layerId = "601FF878-0EB3-47BC-931B-6B704884A184";
name = Bold;
paths = (
{
closed = 1;
nodes = (
"302 80 LINE",
"523 680 LINE",
"582 680 LINE",
"335 0 LINE",
"270 0 LINE",
"10 675 LINE",
"71 685 LINE"
);
}
);
width = 592;
}
);
unicode = 0056;
},
{
glyphname = W;
lastChange = "2015-05-04 18:40:54 +0000";
layers = (
{
layerId = "7D7A15B1-26C3-429D-8003-112E9373A587";
name = Light;
paths = (
{
closed = 1;
nodes = (
"753 679 LINE",
"601 79 LINE",
"432 679 LINE",
"383 679 LINE",
"231 79 LINE",
"60 685 LINE",
"10 674 LINE",
"209 -1 LINE",
"255 -1 LINE",
"407 593 LINE",
"579 -1 LINE",
"625 -1 LINE",
"802 679 LINE"
);
}
);
width = 812;
},
{
layerId = "601FF878-0EB3-47BC-931B-6B704884A184";
name = Bold;
paths = (
{
closed = 1;
nodes = (
"752 680 LINE",
"601 86 LINE",
"442 680 LINE",
"383 680 LINE",
"232 86 LINE",
"71 685 LINE",
"10 675 LINE",
"200 0 LINE",
"265 0 LINE",
"411 581 LINE",
"569 0 LINE",
"634 0 LINE",
"811 680 LINE"
);
}
);
width = 821;
}
);
unicode = 0057;
},
{
glyphname = X;
lastChange = "2015-05-04 18:40:54 +0000";
layers = (
{
layerId = "7D7A15B1-26C3-429D-8003-112E9373A587";
name = Light;
paths = (
{
closed = 1;
nodes = (
"10 0 LINE",
"237 350 LINE",
"38 668 LINE",
"86 691 LINE",
"271 379 LINE",
"459 680 LINE",
"513 680 LINE",
"298 337 LINE",
"513 0 LINE",
"454 0 LINE",
"261 311 LINE",
"68 0 LINE"
);
}
);
width = 523;
},
{
layerId = "601FF878-0EB3-47BC-931B-6B704884A184";
name = Bold;
paths = (
{
closed = 1;
nodes = (
"10 0 LINE",
"255 344 LINE",
"33 668 LINE",
"87 694 LINE",
"302 377 LINE",
"495 680 LINE",
"563 680 LINE",
"335 331 LINE",
"549 0 LINE",
"480 0 LINE",
"289 297 LINE",
"79 0 LINE"
);
}
);
width = 573;
}
);
unicode = 0058;
},
{
glyphname = Y;
lastChange = "2015-05-04 18:40:54 +0000";
layers = (
{
anchors = (
{
name = topU;
position = "{259, 680}";
}
);
layerId = "7D7A15B1-26C3-429D-8003-112E9373A587";
name = Light;
paths = (
{
closed = 1;
nodes = (
"235 0 LINE",
"235 269 LINE",
"10 668 LINE",
"59 689 LINE",
"259 321 LINE",
"463 680 LINE",
"520 680 LINE",
"284 274 LINE",
"284 0 LINE"
);
}
);
width = 530;
},
{
anchors = (
{
name = topU;
position = "{266, 680}";
}
);
layerId = "601FF878-0EB3-47BC-931B-6B704884A184";
name = Bold;
paths = (
{
closed = 1;
nodes = (
"234 0 LINE",
"235 276 LINE",
"10 664 LINE",
"65 695 LINE",
"266 336 LINE",
"469 680 LINE",
"536 680 LINE",
"298 283 LINE",
"297 0 LINE"
);
}
);
width = 546;
}
);
unicode = 0059;
},
{
glyphname = Z;
lastChange = "2015-05-04 18:40:54 +0000";
layers = (
{
anchors = (
{
name = topU;
position = "{268, 680}";
}
);
layerId = "7D7A15B1-26C3-429D-8003-112E9373A587";
name = Light;
paths = (
{
closed = 1;
nodes = (
"504 0 LINE",
"36 0 LINE",
"30 50 LINE",
"463 641 LINE",
"57 641 LINE",
"47 680 LINE",
"504 680 LINE",
"509 631 LINE",
"79 39 LINE",
"499 39 LINE"
);
}
);
width = 539;
},
{
anchors = (
{
name = topU;
position = "{286, 680}";
}
);
layerId = "601FF878-0EB3-47BC-931B-6B704884A184";
name = Bold;
paths = (
{
closed = 1;
nodes = (
"519 0 LINE",
"31 0 LINE",
"25 50 LINE",
"467 631 LINE",
"62 631 LINE",
"52 680 LINE",
"529 680 LINE",
"534 631 LINE",
"94 50 LINE",
"514 50 LINE"
);
}
);
width = 559;
}
);
unicode = 005A;
},
{
glyphname = a;
lastChange = "2015-05-04 18:40:54 +0000";
layers = (
{
anchors = (
{
name = bottom;
position = "{390, 0}";
},
{
name = top;
position = "{241, 485}";
}
);
layerId = "7D7A15B1-26C3-429D-8003-112E9373A587";
name = Light;
paths = (
{
closed = 1;
nodes = (
"103 76 OFFCURVE",
"147 28 OFFCURVE",
"219 28 CURVE SMOOTH",
"282 28 OFFCURVE",
"329 64 OFFCURVE",
"360 109 CURVE",
"360 244 LINE",
"229 244 LINE SMOOTH",
"141 244 OFFCURVE",
"103 196 OFFCURVE",
"103 136 CURVE SMOOTH"
);
},
{
closed = 1;
nodes = (
"86 456 LINE",
"123 481 OFFCURVE",
"201 498 OFFCURVE",
"241 498 CURVE SMOOTH",
"352 498 OFFCURVE",
"409 435 OFFCURVE",
"409 340 CURVE SMOOTH",
"409 0 LINE",
"371 0 LINE",
"363 52 LINE",
"330 15 OFFCURVE",
"276 -13 OFFCURVE",
"215 -13 CURVE SMOOTH",
"106 -13 OFFCURVE",
"52 52 OFFCURVE",
"52 136 CURVE SMOOTH",
"52 228 OFFCURVE",
"124 281 OFFCURVE",
"225 281 CURVE SMOOTH",
"360 281 LINE",
"360 341 LINE SMOOTH",
"360 408 OFFCURVE",
"323 457 OFFCURVE",
"244 457 CURVE SMOOTH",
"179 457 OFFCURVE",
"145 442 OFFCURVE",
"105 423 CURVE"
);
}
);
width = 475;
},
{
anchors = (
{
name = bottom;
position = "{401, 0}";
},
{
name = top;
position = "{250, 485}";
}
);
layerId = "601FF878-0EB3-47BC-931B-6B704884A184";
name = Bold;
paths = (
{
closed = 1;
nodes = (
"113 91 OFFCURVE",
"141 38 OFFCURVE",
"213 38 CURVE SMOOTH",
"276 38 OFFCURVE",
"327 76 OFFCURVE",
"360 117 CURVE",
"360 240 LINE",
"223 240 LINE SMOOTH",
"151 240 OFFCURVE",
"113 192 OFFCURVE",
"113 136 CURVE SMOOTH"
);
},
{
closed = 1;
nodes = (
"86 456 LINE",
"123 481 OFFCURVE",
"201 498 OFFCURVE",
"241 498 CURVE SMOOTH",
"352 498 OFFCURVE",
"422 435 OFFCURVE",
"422 340 CURVE SMOOTH",
"422 0 LINE",
"371 0 LINE",
"363 52 LINE",
"332 20 OFFCURVE",
"272 -13 OFFCURVE",
"215 -13 CURVE SMOOTH",
"106 -13 OFFCURVE",
"52 52 OFFCURVE",
"52 136 CURVE SMOOTH",
"52 228 OFFCURVE",
"124 282 OFFCURVE",
"225 281 CURVE SMOOTH",
"360 281 LINE",
"360 330 LINE SMOOTH",
"360 397 OFFCURVE",
"323 446 OFFCURVE",
"244 446 CURVE SMOOTH",
"173 446 OFFCURVE",
"140 428 OFFCURVE",
"105 412 CURVE"
);
}
);
width = 483;
}
);
unicode = 0061;
},
{
glyphname = b;
lastChange = "2015-05-04 18:40:54 +0000";
layers = (
{
layerId = "7D7A15B1-26C3-429D-8003-112E9373A587";
name = Light;
paths = (
{
closed = 1;
nodes = (
"80 0 LINE",
"80 696 LINE",
"129 706 LINE",
"129 59 LINE",
"108 0 LINE"
);
},
{
closed = 1;
nodes = (
"104 420 LINE",
"144 467 OFFCURVE",
"197 498 OFFCURVE",
"263 498 CURVE SMOOTH",
"406 498 OFFCURVE",
"472 391 OFFCURVE",
"472 240 CURVE SMOOTH",
"472 95 OFFCURVE",
"399 -13 OFFCURVE",
"256 -13 CURVE SMOOTH",
"193 -13 OFFCURVE",
"126 30 OFFCURVE",
"99 59 CURVE",
"119 92 LINE",
"152 60 OFFCURVE",
"197 28 OFFCURVE",
"258 28 CURVE SMOOTH",
"365 28 OFFCURVE",
"421 126 OFFCURVE",
"421 239 CURVE SMOOTH",
"421 358 OFFCURVE",
"372 457 OFFCURVE",
"263 457 CURVE SMOOTH",
"196 457 OFFCURVE",
"159 425 OFFCURVE",
"124 386 CURVE"
);
}
);
width = 512;
},
{
layerId = "601FF878-0EB3-47BC-931B-6B704884A184";
name = Bold;
paths = (
{
closed = 1;
nodes = (
"75 0 LINE",
"75 696 LINE",
"137 706 LINE",
"137 67 LINE",
"116 0 LINE"
);
},
{
closed = 1;
nodes = (
"105 421 LINE",
"145 467 OFFCURVE",
"202 498 OFFCURVE",
"264 498 CURVE SMOOTH",
"407 498 OFFCURVE",
"485 393 OFFCURVE",
"485 242 CURVE SMOOTH",
"484 97 OFFCURVE",
"403 -13 OFFCURVE",
"260 -13 CURVE SMOOTH",
"194 -13 OFFCURVE",
"143 27 OFFCURVE",
"104 63 CURVE",
"124 103 LINE",
"157 72 OFFCURVE",
"194 39 OFFCURVE",
"263 39 CURVE SMOOTH",
"370 39 OFFCURVE",
"421 128 OFFCURVE",
"422 241 CURVE SMOOTH",
"422 360 OFFCURVE",
"374 446 OFFCURVE",
"265 446 CURVE SMOOTH",
"201 446 OFFCURVE",
"160 416 OFFCURVE",
"125 376 CURVE"
);
}
);
width = 520;
}
);
unicode = 0062;
},
{
glyphname = c;
lastChange = "2015-05-04 18:40:54 +0000";
layers = (
{
anchors = (
{
name = bottom;
position = "{259, 0}";
},
{
name = top;
position = "{246, 485}";
}
);
layerId = "7D7A15B1-26C3-429D-8003-112E9373A587";
name = Light;
paths = (
{
closed = 1;
nodes = (
"408 28 LINE",
"368 3 OFFCURVE",
"300 -13 OFFCURVE",
"259 -13 CURVE SMOOTH",
"116 -13 OFFCURVE",
"40 94 OFFCURVE",
"40 245 CURVE SMOOTH",
"40 390 OFFCURVE",
"123 498 OFFCURVE",
"266 498 CURVE SMOOTH",
"305 498 OFFCURVE",
"374 481 OFFCURVE",
"413 456 CURVE",
"393 423 LINE",
"360 439 OFFCURVE",
"325 457 OFFCURVE",
"264 457 CURVE SMOOTH",
"157 457 OFFCURVE",
"91 359 OFFCURVE",
"91 246 CURVE SMOOTH",
"91 127 OFFCURVE",
"150 28 OFFCURVE",
"259 28 CURVE SMOOTH",
"326 28 OFFCURVE",
"353 45 OFFCURVE",
"388 62 CURVE"
);
}
);
width = 449;
},
{
anchors = (
{
name = bottom;
position = "{262, 0}";
},
{
name = top;
position = "{267, 485}";
}
);
layerId = "601FF878-0EB3-47BC-931B-6B704884A184";
name = Bold;
paths = (
{
closed = 1;
nodes = (
"415 28 LINE",
"375 3 OFFCURVE",
"303 -13 OFFCURVE",
"262 -13 CURVE SMOOTH",
"119 -13 OFFCURVE",
"35 94 OFFCURVE",
"35 245 CURVE SMOOTH",
"36 390 OFFCURVE",
"126 498 OFFCURVE",
"269 498 CURVE SMOOTH",
"308 498 OFFCURVE",
"381 481 OFFCURVE",
"420 456 CURVE",
"400 412 LINE",
"367 428 OFFCURVE",
"335 446 OFFCURVE",
"266 446 CURVE SMOOTH",
"159 446 OFFCURVE",
"99 359 OFFCURVE",
"98 246 CURVE SMOOTH",
"98 127 OFFCURVE",
"152 39 OFFCURVE",
"261 39 CURVE SMOOTH",
"332 39 OFFCURVE",
"360 56 OFFCURVE",
"395 73 CURVE"
);
}
);
width = 451;
}
);
unicode = 0063;
},
{
glyphname = d;
lastChange = "2015-05-04 20:10:15 +0000";
layers = (
{
layerId = "7D7A15B1-26C3-429D-8003-112E9373A587";
name = Light;
paths = (
{
closed = 1;
nodes = (
"383 696 LINE",
"432 705 LINE",
"432 0 LINE",
"405 0 LINE",
"383 53 LINE"
);
},
{
closed = 1;
nodes = (
"408 65 LINE",
"368 18 OFFCURVE",
"315 -13 OFFCURVE",
"249 -13 CURVE SMOOTH",
"106 -13 OFFCURVE",
"40 94 OFFCURVE",
"40 245 CURVE SMOOTH",
"40 390 OFFCURVE",
"113 498 OFFCURVE",
"256 498 CURVE SMOOTH",
"319 498 OFFCURVE",
"386 455 OFFCURVE",
"413 426 CURVE",
"393 393 LINE",
"360 425 OFFCURVE",
"315 457 OFFCURVE",
"254 457 CURVE SMOOTH",
"147 457 OFFCURVE",
"91 359 OFFCURVE",
"91 246 CURVE SMOOTH",
"91 127 OFFCURVE",
"140 28 OFFCURVE",
"249 28 CURVE SMOOTH",
"316 28 OFFCURVE",
"353 60 OFFCURVE",
"388 99 CURVE"
);
}
);
width = 512;
},
{
layerId = "601FF878-0EB3-47BC-931B-6B704884A184";
name = Bold;
paths = (
{
closed = 1;
nodes = (
"378 696 LINE",
"441 705 LINE",
"441 0 LINE",
"400 0 LINE",
"378 73 LINE"
);
},
{
closed = 1;
nodes = (
"415 64 LINE",
"375 18 OFFCURVE",
"318 -13 OFFCURVE",
"256 -13 CURVE SMOOTH",
"113 -13 OFFCURVE",
"35 92 OFFCURVE",
"35 243 CURVE SMOOTH",
"36 388 OFFCURVE",
"117 498 OFFCURVE",
"260 498 CURVE SMOOTH",
"326 498 OFFCURVE",
"377 458 OFFCURVE",
"416 422 CURVE",
"396 382 LINE",
"363 413 OFFCURVE",
"326 446 OFFCURVE",
"257 446 CURVE SMOOTH",
"150 446 OFFCURVE",
"99 357 OFFCURVE",
"98 244 CURVE SMOOTH",
"98 125 OFFCURVE",
"146 39 OFFCURVE",
"255 39 CURVE SMOOTH",
"319 39 OFFCURVE",
"360 69 OFFCURVE",
"395 109 CURVE"
);
}
);
width = 516;
}
);
unicode = 0064;
},
{
glyphname = e;
lastChange = "2015-05-04 18:40:54 +0000";
layers = (
{
anchors = (
{
name = bottom;
position = "{329, 0}";
},
{
name = top;
position = "{251, 485}";
}
);
layerId = "7D7A15B1-26C3-429D-8003-112E9373A587";
name = Light;
paths = (
{
closed = 1;
nodes = (
"91 242 LINE",
"92 126 OFFCURVE",
"142 28 OFFCURVE",
"262 28 CURVE SMOOTH",
"333 28 OFFCURVE",
"372 45 OFFCURVE",
"405 62 CURVE",
"425 25 LINE",
"385 0 OFFCURVE",
"309 -13 OFFCURVE",
"270 -13 CURVE SMOOTH",
"111 -13 OFFCURVE",
"40 94 OFFCURVE",
"40 245 CURVE SMOOTH",
"40 390 OFFCURVE",
"109 498 OFFCURVE",
"252 498 CURVE SMOOTH",
"364 498 OFFCURVE",
"440 390 OFFCURVE",
"440 242 CURVE"
);
},
{
closed = 1;
nodes = (
"388 279 LINE",
"379 374 OFFCURVE",
"341 457 OFFCURVE",
"245 457 CURVE SMOOTH",
"149 457 OFFCURVE",
"102 374 OFFCURVE",
"93 279 CURVE"
);
}
);
width = 480;
},
{
anchors = (
{
name = bottom;
position = "{337, 0}";
},
{
name = top;
position = "{255, 485}";
}
);
layerId = "601FF878-0EB3-47BC-931B-6B704884A184";
name = Bold;
paths = (
{
closed = 1;
nodes = (
"98 239 LINE",
"99 123 OFFCURVE",
"148 37 OFFCURVE",
"278 37 CURVE SMOOTH",
"334 37 OFFCURVE",
"380 53 OFFCURVE",
"430 79 CURVE",
"451 33 LINE",
"404 8 OFFCURVE",
"357 -13 OFFCURVE",
"281 -13 CURVE SMOOTH",
"112 -13 OFFCURVE",
"35 94 OFFCURVE",
"35 245 CURVE SMOOTH",
"36 390 OFFCURVE",
"112 498 OFFCURVE",
"255 498 CURVE SMOOTH",
"398 498 OFFCURVE",
"458 387 OFFCURVE",
"458 239 CURVE"
);
},
{
closed = 1;
nodes = (
"395 282 LINE",
"386 377 OFFCURVE",
"348 446 OFFCURVE",
"252 446 CURVE SMOOTH",
"156 446 OFFCURVE",
"109 377 OFFCURVE",
"100 282 CURVE"
);
}
);
width = 493;
}
);
unicode = 0065;
},
{
glyphname = f;
lastChange = "2015-05-04 18:40:54 +0000";
layers = (
{
layerId = "7D7A15B1-26C3-429D-8003-112E9373A587";
name = Light;
paths = (
{
closed = 1;
nodes = (
"20 470 LINE",
"93 470 LINE",
"93 563 LINE SMOOTH",
"93 647 OFFCURVE",
"126 702 OFFCURVE",
"198 702 CURVE SMOOTH",
"225 702 OFFCURVE",
"251 694 OFFCURVE",
"264 689 CURVE",
"252 652 LINE",
"244 656 OFFCURVE",
"224 661 OFFCURVE",
"211 661 CURVE SMOOTH",
"160 661 OFFCURVE",
"142 627 OFFCURVE",
"142 579 CURVE SMOOTH",
"142 470 LINE",
"230 470 LINE",
"251 433 LINE",
"142 433 LINE",
"142 0 LINE",
"93 0 LINE",
"93 433 LINE",
"20 433 LINE"
);
}
);
width = 264;
},
{
layerId = "601FF878-0EB3-47BC-931B-6B704884A184";
name = Bold;
paths = (
{
closed = 1;
nodes = (
"17 475 LINE",
"90 475 LINE",
"90 563 LINE SMOOTH",
"90 647 OFFCURVE",
"136 702 OFFCURVE",
"208 702 CURVE SMOOTH",
"235 702 OFFCURVE",
"261 694 OFFCURVE",
"274 689 CURVE",
"262 636 LINE",
"254 640 OFFCURVE",
"234 645 OFFCURVE",
"221 645 CURVE SMOOTH",
"170 645 OFFCURVE",
"152 611 OFFCURVE",
"152 563 CURVE SMOOTH",
"152 475 LINE",
"240 475 LINE",
"261 428 LINE",
"152 428 LINE",
"152 0 LINE",
"90 0 LINE",
"90 428 LINE",
"18 428 LINE"
);
}
);
width = 274;
}
);
unicode = 0066;
},
{
glyphname = g;
lastChange = "2015-05-04 18:40:54 +0000";
layers = (
{
anchors = (
{
name = top;
position = "{253, 485}";
}
);
layerId = "7D7A15B1-26C3-429D-8003-112E9373A587";
name = Light;
paths = (
{
closed = 1;
nodes = (
"432 -62 LINE SMOOTH",
"432 -158 OFFCURVE",
"367 -230 OFFCURVE",
"240 -230 CURVE SMOOTH",
"201 -230 OFFCURVE",
"112 -214 OFFCURVE",
"75 -189 CURVE",
"94 -154 LINE",
"139 -174 OFFCURVE",
"177 -189 OFFCURVE",
"238 -189 CURVE SMOOTH",
"319 -189 OFFCURVE",
"383 -152 OFFCURVE",
"383 -72 CURVE SMOOTH",
"383 412 LINE",
"405 485 LINE",
"432 485 LINE"
);
},
{
closed = 1;
nodes = (
"408 65 LINE",
"368 18 OFFCURVE",
"315 -13 OFFCURVE",
"249 -13 CURVE SMOOTH",
"106 -13 OFFCURVE",
"40 94 OFFCURVE",
"40 245 CURVE SMOOTH",
"40 390 OFFCURVE",
"113 498 OFFCURVE",
"256 498 CURVE SMOOTH",
"319 498 OFFCURVE",
"386 455 OFFCURVE",
"413 426 CURVE",
"393 393 LINE",
"360 425 OFFCURVE",
"315 457 OFFCURVE",
"254 457 CURVE SMOOTH",
"147 457 OFFCURVE",
"91 359 OFFCURVE",
"91 246 CURVE SMOOTH",
"91 127 OFFCURVE",
"140 28 OFFCURVE",
"249 28 CURVE SMOOTH",
"316 28 OFFCURVE",
"353 60 OFFCURVE",
"388 99 CURVE"
);
}
);
width = 508;
},
{
anchors = (
{
name = top;
position = "{258, 485}";
}
);
layerId = "601FF878-0EB3-47BC-931B-6B704884A184";
name = Bold;
paths = (
{
closed = 1;
nodes = (
"441 -62 LINE SMOOTH",
"441 -158 OFFCURVE",
"362 -230 OFFCURVE",
"235 -230 CURVE SMOOTH",
"196 -230 OFFCURVE",
"111 -214 OFFCURVE",
"70 -189 CURVE",
"89 -143 LINE",
"122 -159 OFFCURVE",
"165 -177 OFFCURVE",
"233 -178 CURVE SMOOTH",
"314 -178 OFFCURVE",
"378 -141 OFFCURVE",
"378 -61 CURVE SMOOTH",
"378 429 LINE",
"400 485 LINE",
"441 485 LINE"
);
},
{
closed = 1;
nodes = (
"415 64 LINE",
"375 18 OFFCURVE",
"318 -13 OFFCURVE",
"256 -13 CURVE SMOOTH",
"113 -13 OFFCURVE",
"35 92 OFFCURVE",
"35 243 CURVE SMOOTH",
"36 388 OFFCURVE",
"117 498 OFFCURVE",
"260 498 CURVE SMOOTH",
"326 498 OFFCURVE",
"377 458 OFFCURVE",
"416 422 CURVE",
"396 382 LINE",
"363 413 OFFCURVE",
"326 446 OFFCURVE",
"257 446 CURVE SMOOTH",
"150 446 OFFCURVE",
"99 357 OFFCURVE",
"98 244 CURVE SMOOTH",
"98 125 OFFCURVE",
"146 39 OFFCURVE",
"255 39 CURVE SMOOTH",
"319 39 OFFCURVE",
"360 69 OFFCURVE",
"395 109 CURVE"
);
}
);
width = 512;
}
);
unicode = 0067;
},
{
glyphname = h;
lastChange = "2015-05-04 18:40:54 +0000";
layers = (
{
layerId = "7D7A15B1-26C3-429D-8003-112E9373A587";
name = Light;
paths = (
{
closed = 1;
nodes = (
"128 409 LINE",
"169 457 OFFCURVE",
"240 498 OFFCURVE",
"300 498 CURVE SMOOTH",
"404 498 OFFCURVE",
"444 430 OFFCURVE",
"444 337 CURVE SMOOTH",
"444 0 LINE",
"395 0 LINE",
"395 337 LINE SMOOTH",
"395 404 OFFCURVE",
"377 457 OFFCURVE",
"304 457 CURVE SMOOTH",
"246 457 OFFCURVE",
"185 416 OFFCURVE",
"129 359 CURVE"
);
},
{
closed = 1;
nodes = (
"80 0 LINE",
"80 696 LINE",
"129 706 LINE",
"129 0 LINE"
);
}
);
width = 510;
},
{
layerId = "601FF878-0EB3-47BC-931B-6B704884A184";
name = Bold;
paths = (
{
closed = 1;
nodes = (
"136 411 LINE",
"177 459 OFFCURVE",
"256 498 OFFCURVE",
"316 498 CURVE SMOOTH",
"420 498 OFFCURVE",
"465 430 OFFCURVE",
"465 337 CURVE SMOOTH",
"465 1 LINE",
"403 1 LINE",
"403 325 LINE SMOOTH",
"403 392 OFFCURVE",
"380 445 OFFCURVE",
"309 445 CURVE SMOOTH",
"259 445 OFFCURVE",
"182 403 OFFCURVE",
"137 346 CURVE"
);
},
{
closed = 1;
nodes = (
"75 0 LINE",
"75 696 LINE",
"137 706 LINE",
"137 0 LINE"
);
}
);
width = 526;
}
);
unicode = 0068;
},
{
glyphname = i;
lastChange = "2015-05-04 18:40:54 +0000";
layers = (
{
anchors = (
{
name = bottom;
position = "{94, 0}";
}
);
layerId = "7D7A15B1-26C3-429D-8003-112E9373A587";
name = Light;
paths = (
{
closed = 1;
nodes = (
"70 0 LINE",
"70 485 LINE",
"119 485 LINE",
"119 0 LINE"
);
},
{
closed = 1;
nodes = (
"71 600 OFFCURVE",
"56 617 OFFCURVE",
"56 638 CURVE SMOOTH",
"56 659 OFFCURVE",
"71 676 OFFCURVE",
"94 676 CURVE SMOOTH",
"115 676 OFFCURVE",
"133 659 OFFCURVE",
"133 638 CURVE SMOOTH",
"133 617 OFFCURVE",
"117 600 OFFCURVE",
"94 600 CURVE SMOOTH"
);
}
);
width = 189;
},
{
anchors = (
{
name = bottom;
position = "{98, 0}";
}
);
layerId = "601FF878-0EB3-47BC-931B-6B704884A184";
name = Bold;
paths = (
{
closed = 1;
nodes = (
"65 0 LINE",
"65 485 LINE",
"128 485 LINE",
"128 0 LINE"
);
},
{
closed = 1;
nodes = (
"68 591 OFFCURVE",
"49 611 OFFCURVE",
"49 638 CURVE SMOOTH",
"49 665 OFFCURVE",
"68 685 OFFCURVE",
"96 685 CURVE SMOOTH",
"121 685 OFFCURVE",
"144 665 OFFCURVE",
"144 638 CURVE SMOOTH",
"144 611 OFFCURVE",
"121 591 OFFCURVE",
"96 591 CURVE SMOOTH"
);
}
);
width = 193;
}
);
unicode = 0069;
},
{
glyphname = j;
lastChange = "2015-05-04 19:32:19 +0000";
layers = (
{
layerId = "7D7A15B1-26C3-429D-8003-112E9373A587";
name = Light;
paths = (
{
closed = 1;
nodes = (
"124 600 OFFCURVE",
"140 617 OFFCURVE",
"140 638 CURVE SMOOTH",
"140 659 OFFCURVE",
"122 676 OFFCURVE",
"101 676 CURVE SMOOTH",
"78 676 OFFCURVE",
"63 659 OFFCURVE",
"63 638 CURVE SMOOTH",
"63 617 OFFCURVE",
"78 600 OFFCURVE",
"101 600 CURVE SMOOTH"
);
},
{
closed = 1;
nodes = (
"77 485 LINE",
"77 -54 LINE SMOOTH",
"77 -130 OFFCURVE",
"67 -158 OFFCURVE",
"0 -183 CURVE",
"18 -219 LINE",
"114 -188 OFFCURVE",
"126 -146 OFFCURVE",
"126 -62 CURVE SMOOTH",
"126 485 LINE"
);
}
);
width = 206;
},
{
layerId = "601FF878-0EB3-47BC-931B-6B704884A184";
name = Bold;
paths = (
{
closed = 1;
nodes = (
"131 591 OFFCURVE",
"154 611 OFFCURVE",
"154 638 CURVE SMOOTH",
"154 665 OFFCURVE",
"131 685 OFFCURVE",
"106 685 CURVE SMOOTH",
"78 685 OFFCURVE",
"59 665 OFFCURVE",
"59 638 CURVE SMOOTH",
"59 611 OFFCURVE",
"78 591 OFFCURVE",
"106 591 CURVE SMOOTH"
);
},
{
closed = 1;
nodes = (
"75 485 LINE",
"75 -47 LINE SMOOTH",
"76 -127 OFFCURVE",
"67 -151 OFFCURVE",
"0 -176 CURVE",
"24 -219 LINE",
"120 -188 OFFCURVE",
"138 -146 OFFCURVE",
"138 -62 CURVE SMOOTH",
"138 485 LINE"
);
}
);
width = 215;
}
);
unicode = 006A;
},
{
glyphname = k;
lastChange = "2015-05-04 18:40:54 +0000";
layers = (
{
anchors = (
{
name = bottom;
position = "{256, 0}";
}
);
layerId = "7D7A15B1-26C3-429D-8003-112E9373A587";
name = Light;
paths = (
{
closed = 1;
nodes = (
"80 0 LINE",
"80 696 LINE",
"129 706 LINE",
"129 264 LINE",
"354 498 LINE",
"391 467 LINE",
"236 313 LINE",
"449 0 LINE",
"390 0 LINE",
"203 280 LINE",
"129 206 LINE",
"129 0 LINE"
);
}
);
width = 449;
},
{
anchors = (
{
name = bottom;
position = "{254, 0}";
}
);
layerId = "601FF878-0EB3-47BC-931B-6B704884A184";
name = Bold;
paths = (
{
closed = 1;
nodes = (
"75 0 LINE",
"75 696 LINE",
"137 706 LINE",
"137 266 LINE",
"362 498 LINE",
"401 461 LINE",
"249 305 LINE",
"457 0 LINE",
"382 0 LINE",
"209 264 LINE",
"137 190 LINE",
"137 0 LINE"
);
}
);
width = 457;
}
);
unicode = 006B;
},
{
glyphname = l;
lastChange = "2015-05-04 18:40:54 +0000";
layers = (
{
anchors = (
{
name = bottom;
position = "{106, 0}";
}
);
layerId = "7D7A15B1-26C3-429D-8003-112E9373A587";
name = Light;
paths = (
{
closed = 1;
nodes = (
"80 0 LINE",
"80 696 LINE",
"129 706 LINE",
"129 0 LINE"
);
}
);
width = 209;
},
{
anchors = (
{
name = bottom;
position = "{105, 0}";
}
);
layerId = "601FF878-0EB3-47BC-931B-6B704884A184";
name = Bold;
paths = (
{
closed = 1;
nodes = (
"75 0 LINE",
"75 696 LINE",
"137 706 LINE",
"137 0 LINE"
);
}
);
width = 212;
}
);
unicode = 006C;
},
{
glyphname = m;
lastChange = "2015-05-04 18:40:54 +0000";
layers = (
{
layerId = "7D7A15B1-26C3-429D-8003-112E9373A587";
name = Light;
paths = (
{
closed = 1;
nodes = (
"70 0 LINE",
"70 485 LINE",
"108 485 LINE",
"118 409 LINE",
"159 457 OFFCURVE",
"234 498 OFFCURVE",
"285 498 CURVE SMOOTH",
"384 498 OFFCURVE",
"419 430 OFFCURVE",
"419 337 CURVE SMOOTH",
"419 0 LINE",
"370 0 LINE",
"370 337 LINE SMOOTH",
"370 404 OFFCURVE",
"357 457 OFFCURVE",
"289 457 CURVE SMOOTH",
"236 457 OFFCURVE",
"175 416 OFFCURVE",
"119 359 CURVE",
"119 0 LINE"
);
},
{
closed = 1;
nodes = (
"409 409 LINE",
"450 457 OFFCURVE",
"525 498 OFFCURVE",
"576 498 CURVE SMOOTH",
"675 498 OFFCURVE",
"710 430 OFFCURVE",
"710 337 CURVE SMOOTH",
"710 0 LINE",
"661 0 LINE",
"661 337 LINE SMOOTH",
"661 404 OFFCURVE",
"648 457 OFFCURVE",
"580 457 CURVE SMOOTH",
"527 457 OFFCURVE",
"466 416 OFFCURVE",
"410 359 CURVE"
);
}
);
width = 776;
},
{
layerId = "601FF878-0EB3-47BC-931B-6B704884A184";
name = Bold;
paths = (
{
closed = 1;
nodes = (
"65 0 LINE",
"65 485 LINE",
"116 485 LINE",
"126 411 LINE",
"167 459 OFFCURVE",
"241 498 OFFCURVE",
"296 498 CURVE SMOOTH",
"396 498 OFFCURVE",
"435 430 OFFCURVE",
"435 337 CURVE SMOOTH",
"435 1 LINE",
"373 1 LINE",
"373 325 LINE SMOOTH",
"373 392 OFFCURVE",
"356 445 OFFCURVE",
"289 445 CURVE SMOOTH",
"244 445 OFFCURVE",
"172 403 OFFCURVE",
"127 346 CURVE",
"127 0 LINE"
);
},
{
closed = 1;
nodes = (
"424 411 LINE",
"465 459 OFFCURVE",
"539 498 OFFCURVE",
"594 498 CURVE SMOOTH",
"694 498 OFFCURVE",
"733 430 OFFCURVE",
"733 337 CURVE SMOOTH",
"733 1 LINE",
"671 1 LINE",
"671 325 LINE SMOOTH",
"671 392 OFFCURVE",
"654 445 OFFCURVE",
"587 445 CURVE SMOOTH",
"542 445 OFFCURVE",
"470 403 OFFCURVE",
"425 346 CURVE"
);
}
);
width = 794;
}
);
unicode = 006D;
},
{
glyphname = n;
lastChange = "2015-05-04 18:40:54 +0000";
layers = (
{
anchors = (
{
name = bottom;
position = "{253, 0}";
},
{
name = top;
position = "{261, 485}";
}
);
layerId = "7D7A15B1-26C3-429D-8003-112E9373A587";
name = Light;
paths = (
{
closed = 1;
nodes = (
"70 0 LINE",
"70 485 LINE",
"108 485 LINE",
"118 409 LINE",
"159 457 OFFCURVE",
"230 498 OFFCURVE",
"290 498 CURVE SMOOTH",
"394 498 OFFCURVE",
"434 430 OFFCURVE",
"434 337 CURVE SMOOTH",
"434 0 LINE",
"385 0 LINE",
"385 337 LINE SMOOTH",
"385 404 OFFCURVE",
"367 457 OFFCURVE",
"294 457 CURVE SMOOTH",
"236 457 OFFCURVE",
"175 416 OFFCURVE",
"119 359 CURVE",
"119 0 LINE"
);
}
);
width = 500;
},
{
anchors = (
{
name = bottom;
position = "{265, 0}";
},
{
name = top;
position = "{270, 485}";
}
);
layerId = "601FF878-0EB3-47BC-931B-6B704884A184";
name = Bold;
paths = (
{
closed = 1;
nodes = (
"65 0 LINE",
"65 485 LINE",
"116 485 LINE",
"126 411 LINE",
"167 459 OFFCURVE",
"246 498 OFFCURVE",
"306 498 CURVE SMOOTH",
"410 498 OFFCURVE",
"455 430 OFFCURVE",
"455 337 CURVE SMOOTH",
"455 1 LINE",
"393 1 LINE",
"393 325 LINE SMOOTH",
"393 392 OFFCURVE",
"370 445 OFFCURVE",
"299 445 CURVE SMOOTH",
"249 445 OFFCURVE",
"172 403 OFFCURVE",
"127 346 CURVE",
"127 0 LINE"
);
}
);
width = 516;
}
);
unicode = 006E;
},
{
glyphname = o;
lastChange = "2015-05-04 18:40:54 +0000";
layers = (
{
anchors = (
{
name = top;
position = "{266, 485}";
}
);
layerId = "7D7A15B1-26C3-429D-8003-112E9373A587";
name = Light;
paths = (
{
closed = 1;
nodes = (
"483 390 OFFCURVE",
"408 497 OFFCURVE",
"265 498 CURVE SMOOTH",
"122 497 OFFCURVE",
"40 389 OFFCURVE",
"40 245 CURVE SMOOTH",
"40 95 OFFCURVE",
"115 -12 OFFCURVE",
"259 -13 CURVE SMOOTH",
"401 -12 OFFCURVE",
"483 96 OFFCURVE",
"483 240 CURVE SMOOTH"
);
},
{
closed = 1;
nodes = (
"150 28 OFFCURVE",
"91 127 OFFCURVE",
"91 246 CURVE SMOOTH",
"91 359 OFFCURVE",
"157 457 OFFCURVE",
"264 457 CURVE SMOOTH",
"373 457 OFFCURVE",
"432 358 OFFCURVE",
"432 239 CURVE SMOOTH",
"432 126 OFFCURVE",
"366 28 OFFCURVE",
"259 28 CURVE SMOOTH"
);
}
);
width = 523;
},
{
anchors = (
{
name = top;
position = "{266, 485}";
}
);
layerId = "601FF878-0EB3-47BC-931B-6B704884A184";
name = Bold;
paths = (
{
closed = 1;
nodes = (
"492 401 OFFCURVE",
"410 498 OFFCURVE",
"267 498 CURVE SMOOTH",
"124 498 OFFCURVE",
"36 389 OFFCURVE",
"35 245 CURVE SMOOTH",
"35 95 OFFCURVE",
"117 -15 OFFCURVE",
"258 -13 CURVE SMOOTH",
"403 -11 OFFCURVE",
"492 96 OFFCURVE",
"492 240 CURVE SMOOTH"
);
},
{
closed = 1;
nodes = (
"152 39 OFFCURVE",
"98 127 OFFCURVE",
"98 246 CURVE SMOOTH",
"99 359 OFFCURVE",
"159 446 OFFCURVE",
"266 446 CURVE SMOOTH",
"375 446 OFFCURVE",
"429 358 OFFCURVE",
"429 239 CURVE SMOOTH",
"428 126 OFFCURVE",
"368 39 OFFCURVE",
"261 39 CURVE SMOOTH"
);
}
);
width = 527;
}
);
unicode = 006F;
},
{
glyphname = p;
lastChange = "2015-05-04 18:40:54 +0000";
layers = (
{
layerId = "7D7A15B1-26C3-429D-8003-112E9373A587";
name = Light;
paths = (
{
closed = 1;
nodes = (
"76 -219 LINE",
"76 485 LINE",
"104 485 LINE",
"125 418 LINE",
"125 -208 LINE"
);
},
{
closed = 1;
nodes = (
"100 420 LINE",
"140 467 OFFCURVE",
"193 498 OFFCURVE",
"259 498 CURVE SMOOTH",
"402 498 OFFCURVE",
"468 391 OFFCURVE",
"468 240 CURVE SMOOTH",
"468 95 OFFCURVE",
"395 -13 OFFCURVE",
"252 -13 CURVE SMOOTH",
"189 -13 OFFCURVE",
"122 30 OFFCURVE",
"95 59 CURVE",
"115 92 LINE",
"148 60 OFFCURVE",
"193 28 OFFCURVE",
"254 28 CURVE SMOOTH",
"361 28 OFFCURVE",
"417 126 OFFCURVE",
"417 239 CURVE SMOOTH",
"417 358 OFFCURVE",
"368 457 OFFCURVE",
"259 457 CURVE SMOOTH",
"192 457 OFFCURVE",
"155 425 OFFCURVE",
"120 386 CURVE"
);
}
);
width = 508;
},
{
layerId = "601FF878-0EB3-47BC-931B-6B704884A184";
name = Bold;
paths = (
{
closed = 1;
nodes = (
"71 -219 LINE",
"71 485 LINE",
"112 485 LINE",
"133 419 LINE",
"133 -208 LINE"
);
},
{
closed = 1;
nodes = (
"101 421 LINE",
"141 467 OFFCURVE",
"198 498 OFFCURVE",
"260 498 CURVE SMOOTH",
"403 498 OFFCURVE",
"481 393 OFFCURVE",
"481 242 CURVE SMOOTH",
"480 97 OFFCURVE",
"399 -13 OFFCURVE",
"256 -13 CURVE SMOOTH",
"190 -13 OFFCURVE",
"139 27 OFFCURVE",
"100 63 CURVE",
"120 103 LINE",
"153 72 OFFCURVE",
"190 39 OFFCURVE",
"259 39 CURVE SMOOTH",
"366 39 OFFCURVE",
"417 128 OFFCURVE",
"418 241 CURVE SMOOTH",
"418 360 OFFCURVE",
"370 446 OFFCURVE",
"261 446 CURVE SMOOTH",
"197 446 OFFCURVE",
"156 416 OFFCURVE",
"121 376 CURVE"
);
}
);
width = 516;
}
);
unicode = 0070;
},
{
glyphname = q;
lastChange = "2015-05-04 18:40:54 +0000";
layers = (
{
layerId = "7D7A15B1-26C3-429D-8003-112E9373A587";
name = Light;
paths = (
{
closed = 1;
nodes = (
"432 485 LINE",
"432 -208 LINE",
"383 -219 LINE",
"383 419 LINE",
"405 485 LINE"
);
},
{
closed = 1;
nodes = (
"408 65 LINE",
"368 18 OFFCURVE",
"315 -13 OFFCURVE",
"249 -13 CURVE SMOOTH",
"106 -13 OFFCURVE",
"40 94 OFFCURVE",
"40 245 CURVE SMOOTH",
"40 390 OFFCURVE",
"113 498 OFFCURVE",
"256 498 CURVE SMOOTH",
"319 498 OFFCURVE",
"386 455 OFFCURVE",
"413 426 CURVE",
"393 393 LINE",
"360 425 OFFCURVE",
"315 457 OFFCURVE",
"254 457 CURVE SMOOTH",
"147 457 OFFCURVE",
"91 359 OFFCURVE",
"91 246 CURVE SMOOTH",
"91 127 OFFCURVE",
"140 28 OFFCURVE",
"249 28 CURVE SMOOTH",
"316 28 OFFCURVE",
"353 60 OFFCURVE",
"388 99 CURVE"
);
}
);
width = 508;
},
{
layerId = "601FF878-0EB3-47BC-931B-6B704884A184";
name = Bold;
paths = (
{
closed = 1;
nodes = (
"441 485 LINE",
"441 -208 LINE",
"378 -219 LINE",
"378 427 LINE",
"400 485 LINE"
);
},
{
closed = 1;
nodes = (
"415 64 LINE",
"375 18 OFFCURVE",
"318 -13 OFFCURVE",
"256 -13 CURVE SMOOTH",
"113 -13 OFFCURVE",
"35 92 OFFCURVE",
"35 243 CURVE SMOOTH",
"36 388 OFFCURVE",
"117 498 OFFCURVE",
"260 498 CURVE SMOOTH",
"326 498 OFFCURVE",
"377 458 OFFCURVE",
"416 422 CURVE",
"396 382 LINE",
"363 413 OFFCURVE",
"326 446 OFFCURVE",
"257 446 CURVE SMOOTH",
"150 446 OFFCURVE",
"99 357 OFFCURVE",
"98 244 CURVE SMOOTH",
"98 125 OFFCURVE",
"146 39 OFFCURVE",
"255 39 CURVE SMOOTH",
"319 39 OFFCURVE",
"360 69 OFFCURVE",
"395 109 CURVE"
);
}
);
width = 512;
}
);
unicode = 0071;
},
{
glyphname = r;
lastChange = "2015-05-04 18:40:54 +0000";
layers = (
{
anchors = (
{
name = bottom;
position = "{95, 0}";
},
{
name = top;
position = "{156, 485}";
}
);
layerId = "7D7A15B1-26C3-429D-8003-112E9373A587";
name = Light;
paths = (
{
closed = 1;
nodes = (
"70 0 LINE",
"70 485 LINE",
"98 485 LINE",
"116 408 LINE",
"151 437 OFFCURVE",
"224 485 OFFCURVE",
"275 485 CURVE",
"292 447 LINE",
"231 447 OFFCURVE",
"156 398 OFFCURVE",
"119 357 CURVE",
"119 0 LINE"
);
}
);
width = 302;
},
{
anchors = (
{
name = bottom;
position = "{97, 0}";
},
{
name = top;
position = "{156, 485}";
}
);
layerId = "601FF878-0EB3-47BC-931B-6B704884A184";
name = Bold;
paths = (
{
closed = 1;
nodes = (
"65 0 LINE",
"65 485 LINE",
"106 485 LINE",
"124 408 LINE",
"159 437 OFFCURVE",
"232 485 OFFCURVE",
"283 485 CURVE",
"300 436 LINE",
"239 436 OFFCURVE",
"164 387 OFFCURVE",
"127 346 CURVE",
"127 0 LINE"
);
}
);
width = 310;
}
);
unicode = 0072;
},
{
glyphname = s;
lastChange = "2015-05-04 18:40:54 +0000";
layers = (
{
anchors = (
{
name = bottom;
position = "{189, 0}";
},
{
name = top;
position = "{217, 485}";
}
);
layerId = "7D7A15B1-26C3-429D-8003-112E9373A587";
name = Light;
paths = (
{
closed = 1;
nodes = (
"60 66 LINE",
"95 49 OFFCURVE",
"140 28 OFFCURVE",
"191 28 CURVE SMOOTH",
"271 28 OFFCURVE",
"319 64 OFFCURVE",
"319 119 CURVE SMOOTH",
"319 166 OFFCURVE",
"263 201 OFFCURVE",
"191 229 CURVE SMOOTH",
"116 258 OFFCURVE",
"50 301 OFFCURVE",
"50 364 CURVE SMOOTH",
"50 440 OFFCURVE",
"108 498 OFFCURVE",
"217 498 CURVE SMOOTH",
"258 498 OFFCURVE",
"321 482 OFFCURVE",
"354 458 CURVE",
"334 423 LINE",
"307 436 OFFCURVE",
"270 457 OFFCURVE",
"210 457 CURVE SMOOTH",
"142 457 OFFCURVE",
"97 415 OFFCURVE",
"97 368 CURVE SMOOTH",
"97 323 OFFCURVE",
"152 293 OFFCURVE",
"219 266 CURVE SMOOTH",
"298 234 OFFCURVE",
"366 191 OFFCURVE",
"366 123 CURVE SMOOTH",
"366 38 OFFCURVE",
"313 -13 OFFCURVE",
"189 -13 CURVE SMOOTH",
"149 -13 OFFCURVE",
"79 0 OFFCURVE",
"42 25 CURVE"
);
}
);
width = 406;
},
{
anchors = (
{
name = bottom;
position = "{197, 0}";
},
{
name = top;
position = "{216, 485}";
}
);
layerId = "601FF878-0EB3-47BC-931B-6B704884A184";
name = Bold;
paths = (
{
closed = 1;
nodes = (
"61 71 LINE",
"96 54 OFFCURVE",
"143 37 OFFCURVE",
"194 37 CURVE SMOOTH",
"274 37 OFFCURVE",
"326 64 OFFCURVE",
"326 119 CURVE SMOOTH",
"326 166 OFFCURVE",
"263 199 OFFCURVE",
"194 223 CURVE SMOOTH",
"118 248 OFFCURVE",
"37 288 OFFCURVE",
"37 364 CURVE SMOOTH",
"37 448 OFFCURVE",
"106 498 OFFCURVE",
"215 498 CURVE SMOOTH",
"256 498 OFFCURVE",
"328 482 OFFCURVE",
"361 458 CURVE",
"341 414 LINE",
"314 427 OFFCURVE",
"273 448 OFFCURVE",
"213 448 CURVE SMOOTH",
"145 448 OFFCURVE",
"96 415 OFFCURVE",
"96 368 CURVE SMOOTH",
"97 323 OFFCURVE",
"154 297 OFFCURVE",
"222 274 CURVE SMOOTH",
"301 246 OFFCURVE",
"384 201 OFFCURVE",
"384 124 CURVE SMOOTH",
"384 39 OFFCURVE",
"316 -13 OFFCURVE",
"192 -13 CURVE SMOOTH",
"152 -13 OFFCURVE",
"78 0 OFFCURVE",
"41 25 CURVE"
);
}
);
width = 419;
}
);
unicode = 0073;
},
{
glyphname = t;
lastChange = "2015-05-04 18:40:54 +0000";
layers = (
{
anchors = (
{
name = bottom;
position = "{187, 0}";
}
);
layerId = "7D7A15B1-26C3-429D-8003-112E9373A587";
name = Light;
paths = (
{
closed = 1;
nodes = (
"250 433 LINE",
"141 433 LINE",
"141 123 LINE SMOOTH",
"141 75 OFFCURVE",
"160 28 OFFCURVE",
"209 28 CURVE SMOOTH",
"224 28 OFFCURVE",
"243 34 OFFCURVE",
"250 37 CURVE",
"262 -1 LINE",
"255 -2 OFFCURVE",
"246 -5 OFFCURVE",
"235 -8 CURVE SMOOTH",
"223 -11 OFFCURVE",
"210 -13 OFFCURVE",
"196 -13 CURVE SMOOTH",
"133 -13 OFFCURVE",
"92 32 OFFCURVE",
"92 116 CURVE SMOOTH",
"92 433 LINE",
"20 433 LINE",
"20 470 LINE",
"92 470 LINE",
"92 601 LINE",
"141 623 LINE",
"141 470 LINE",
"229 470 LINE"
);
}
);
width = 292;
},
{
anchors = (
{
name = bottom;
position = "{176, 0}";
}
);
layerId = "601FF878-0EB3-47BC-931B-6B704884A184";
name = Bold;
paths = (
{
closed = 1;
nodes = (
"261 428 LINE",
"152 428 LINE",
"152 123 LINE SMOOTH",
"152 75 OFFCURVE",
"171 41 OFFCURVE",
"220 41 CURVE SMOOTH",
"235 41 OFFCURVE",
"254 47 OFFCURVE",
"261 50 CURVE",
"273 -1 LINE",
"266 -2 OFFCURVE",
"257 -5 OFFCURVE",
"246 -8 CURVE SMOOTH",
"234 -11 OFFCURVE",
"221 -13 OFFCURVE",
"207 -13 CURVE SMOOTH",
"136 -13 OFFCURVE",
"89 32 OFFCURVE",
"89 116 CURVE SMOOTH",
"89 428 LINE",
"18 428 LINE",
"17 475 LINE",
"89 475 LINE",
"89 601 LINE",
"152 623 LINE",
"152 475 LINE",
"240 475 LINE"
);
}
);
width = 298;
}
);
unicode = 0074;
},
{
glyphname = u;
lastChange = "2015-05-04 20:12:07 +0000";
layers = (
{
anchors = (
{
name = bottom;
position = "{413, 0}";
},
{
name = top;
position = "{248, 485}";
}
);
layerId = "7D7A15B1-26C3-429D-8003-112E9373A587";
name = Light;
paths = (
{
closed = 1;
nodes = (
"430 485 LINE",
"430 0 LINE",
"392 0 LINE",
"382 76 LINE",
"341 28 OFFCURVE",
"270 -13 OFFCURVE",
"210 -13 CURVE SMOOTH",
"106 -13 OFFCURVE",
"66 55 OFFCURVE",
"66 148 CURVE SMOOTH",
"66 485 LINE",
"115 485 LINE",
"115 148 LINE SMOOTH",
"115 81 OFFCURVE",
"133 28 OFFCURVE",
"206 28 CURVE SMOOTH",
"264 28 OFFCURVE",
"325 69 OFFCURVE",
"381 126 CURVE",
"381 485 LINE"
);
}
);
width = 500;
},
{
anchors = (
{
name = bottom;
position = "{425, 0}";
},
{
name = top;
position = "{252, 485}";
}
);
layerId = "601FF878-0EB3-47BC-931B-6B704884A184";
name = Bold;
paths = (
{
closed = 1;
nodes = (
"451 486 LINE",
"451 0 LINE",
"400 0 LINE",
"390 75 LINE",
"349 27 OFFCURVE",
"270 -12 OFFCURVE",
"210 -12 CURVE SMOOTH",
"106 -12 OFFCURVE",
"61 56 OFFCURVE",
"61 149 CURVE SMOOTH",
"61 485 LINE",
"123 485 LINE",
"123 161 LINE SMOOTH",
"123 94 OFFCURVE",
"146 41 OFFCURVE",
"217 41 CURVE SMOOTH",
"267 41 OFFCURVE",
"344 83 OFFCURVE",
"389 140 CURVE",
"389 486 LINE"
);
}
);
width = 516;
}
);
unicode = 0075;
},
{
glyphname = v;
lastChange = "2015-05-04 18:40:54 +0000";
layers = (
{
layerId = "7D7A15B1-26C3-429D-8003-112E9373A587";
name = Light;
paths = (
{
closed = 1;
nodes = (
"193 0 LINE",
"10 474 LINE",
"56 492 LINE",
"216 56 LINE",
"370 485 LINE",
"420 485 LINE",
"240 0 LINE"
);
}
);
width = 430;
},
{
layerId = "601FF878-0EB3-47BC-931B-6B704884A184";
name = Bold;
paths = (
{
closed = 1;
nodes = (
"185 0 LINE",
"10 472 LINE",
"62 498 LINE",
"218 79 LINE",
"368 485 LINE",
"428 485 LINE",
"251 0 LINE"
);
}
);
width = 438;
}
);
unicode = 0076;
},
{
glyphname = w;
lastChange = "2015-05-04 18:40:54 +0000";
layers = (
{
layerId = "7D7A15B1-26C3-429D-8003-112E9373A587";
name = Light;
paths = (
{
closed = 1;
nodes = (
"441 0 LINE",
"315 409 LINE",
"200 0 LINE",
"153 0 LINE",
"10 473 LINE",
"56 491 LINE",
"175 64 LINE",
"298 485 LINE",
"340 485 LINE",
"466 64 LINE",
"582 485 LINE",
"632 485 LINE",
"488 0 LINE"
);
}
);
width = 642;
},
{
layerId = "601FF878-0EB3-47BC-931B-6B704884A184";
name = Bold;
paths = (
{
closed = 1;
nodes = (
"429 0 LINE",
"315 393 LINE",
"211 0 LINE",
"144 0 LINE",
"10 471 LINE",
"62 497 LINE",
"177 83 LINE",
"287 485 LINE",
"346 485 LINE",
"461 83 LINE",
"571 485 LINE",
"632 485 LINE",
"496 0 LINE"
);
}
);
width = 642;
}
);
unicode = 0077;
},
{
glyphname = x;
lastChange = "2015-05-04 18:40:54 +0000";
layers = (
{
layerId = "7D7A15B1-26C3-429D-8003-112E9373A587";
name = Light;
paths = (
{
closed = 1;
nodes = (
"10 0 LINE",
"171 244 LINE",
"30 474 LINE",
"73 494 LINE",
"209 267 LINE",
"341 485 LINE",
"395 485 LINE",
"235 232 LINE",
"382 0 LINE",
"327 0 LINE",
"196 207 LINE",
"66 0 LINE"
);
}
);
width = 405;
},
{
layerId = "601FF878-0EB3-47BC-931B-6B704884A184";
name = Bold;
paths = (
{
closed = 1;
nodes = (
"10 0 LINE",
"173 245 LINE",
"26 470 LINE",
"81 495 LINE",
"219 279 LINE",
"351 485 LINE",
"419 485 LINE",
"253 233 LINE",
"405 0 LINE",
"337 0 LINE",
"207 199 LINE",
"80 0 LINE"
);
}
);
width = 429;
}
);
unicode = 0078;
},
{
glyphname = y;
lastChange = "2015-05-04 18:40:54 +0000";
layers = (
{
anchors = (
{
name = top;
position = "{212, 485}";
}
);
layerId = "7D7A15B1-26C3-429D-8003-112E9373A587";
name = Light;
paths = (
{
closed = 1;
nodes = (
"193 0 LINE",
"10 473 LINE",
"56 491 LINE",
"216 56 LINE",
"370 485 LINE",
"420 485 LINE",
"201 -112 LINE SMOOTH",
"181 -167 OFFCURVE",
"132 -206 OFFCURVE",
"68 -219 CURVE",
"63 -181 LINE",
"114 -164 OFFCURVE",
"145 -143 OFFCURVE",
"162 -98 CURVE"
);
}
);
width = 430;
},
{
anchors = (
{
name = top;
position = "{218, 485}";
}
);
layerId = "601FF878-0EB3-47BC-931B-6B704884A184";
name = Bold;
paths = (
{
closed = 1;
nodes = (
"192 -7 LINE",
"10 471 LINE",
"59 497 LINE",
"218 83 LINE",
"368 485 LINE",
"428 485 LINE",
"215 -112 LINE SMOOTH",
"195 -167 OFFCURVE",
"146 -206 OFFCURVE",
"82 -219 CURVE",
"65 -179 LINE",
"114 -156 OFFCURVE",
"143 -143 OFFCURVE",
"160 -98 CURVE SMOOTH"
);
}
);
width = 438;
}
);
unicode = 0079;
},
{
glyphname = z;
lastChange = "2015-05-04 18:40:54 +0000";
layers = (
{
anchors = (
{
name = top;
position = "{227, 485}";
}
);
layerId = "7D7A15B1-26C3-429D-8003-112E9373A587";
name = Light;
paths = (
{
closed = 1;
nodes = (
"404 453 LINE",
"79 37 LINE",
"388 37 LINE",
"398 0 LINE",
"36 0 LINE",
"28 31 LINE",
"350 448 LINE",
"73 448 LINE",
"57 485 LINE",
"401 485 LINE"
);
}
);
width = 432;
},
{
anchors = (
{
name = top;
position = "{228, 485}";
}
);
layerId = "601FF878-0EB3-47BC-931B-6B704884A184";
name = Bold;
paths = (
{
closed = 1;
nodes = (
"409 453 LINE",
"98 48 LINE",
"393 48 LINE",
"403 0 LINE",
"31 0 LINE",
"23 31 LINE",
"330 436 LINE",
"68 436 LINE",
"52 485 LINE",
"406 485 LINE"
);
}
);
width = 432;
}
);
unicode = 007A;
},
{
glyphname = zero;
lastChange = "2015-05-04 18:40:54 +0000";
layers = (
{
layerId = "7D7A15B1-26C3-429D-8003-112E9373A587";
name = Light;
paths = (
{
closed = 1;
nodes = (
"40 457 OFFCURVE",
"143 579 OFFCURVE",
"286 579 CURVE SMOOTH",
"428 579 OFFCURVE",
"530 457 OFFCURVE",
"530 289 CURVE SMOOTH",
"530 114 OFFCURVE",
"428 -13 OFFCURVE",
"286 -13 CURVE SMOOTH",
"143 -13 OFFCURVE",
"40 113 OFFCURVE",
"40 288 CURVE SMOOTH"
);
},
{
closed = 1;
nodes = (
"91 138 OFFCURVE",
"173 28 OFFCURVE",
"286 28 CURVE SMOOTH",
"398 28 OFFCURVE",
"479 136 OFFCURVE",
"479 286 CURVE SMOOTH",
"479 432 OFFCURVE",
"398 538 OFFCURVE",
"286 538 CURVE SMOOTH",
"173 538 OFFCURVE",
"91 434 OFFCURVE",
"91 291 CURVE SMOOTH"
);
}
);
width = 570;
},
{
layerId = "601FF878-0EB3-47BC-931B-6B704884A184";
name = Bold;
paths = (
{
closed = 1;
nodes = (
"35 457 OFFCURVE",
"144 579 OFFCURVE",
"295 579 CURVE SMOOTH",
"445 579 OFFCURVE",
"553 457 OFFCURVE",
"553 289 CURVE SMOOTH",
"553 114 OFFCURVE",
"445 -13 OFFCURVE",
"295 -13 CURVE SMOOTH",
"144 -13 OFFCURVE",
"35 113 OFFCURVE",
"35 288 CURVE SMOOTH"
);
},
{
closed = 1;
nodes = (
"100 146 OFFCURVE",
"182 41 OFFCURVE",
"295 41 CURVE SMOOTH",
"407 41 OFFCURVE",
"488 144 OFFCURVE",
"488 286 CURVE SMOOTH",
"488 425 OFFCURVE",
"407 526 OFFCURVE",
"295 526 CURVE SMOOTH",
"182 526 OFFCURVE",
"100 427 OFFCURVE",
"100 291 CURVE SMOOTH"
);
}
);
width = 588;
}
);
unicode = 0030;
},
{
glyphname = one;
lastChange = "2015-05-04 18:40:54 +0000";
layers = (
{
layerId = "7D7A15B1-26C3-429D-8003-112E9373A587";
name = Light;
paths = (
{
closed = 1;
nodes = (
"171 0 LINE",
"171 508 LINE",
"28 445 LINE",
"10 481 LINE",
"185 566 LINE",
"220 566 LINE",
"220 0 LINE"
);
}
);
width = 300;
},
{
layerId = "601FF878-0EB3-47BC-931B-6B704884A184";
name = Bold;
paths = (
{
closed = 1;
nodes = (
"161 0 LINE",
"161 489 LINE",
"36 438 LINE",
"10 489 LINE",
"182 566 LINE",
"224 566 LINE",
"224 0 LINE"
);
}
);
width = 299;
}
);
unicode = 0031;
},
{
glyphname = two;
lastChange = "2015-05-04 18:40:54 +0000";
layers = (
{
layerId = "7D7A15B1-26C3-429D-8003-112E9373A587";
name = Light;
paths = (
{
closed = 1;
nodes = (
"335 579 OFFCURVE",
"419 511 OFFCURVE",
"419 418 CURVE SMOOTH",
"419 343 OFFCURVE",
"369 276 OFFCURVE",
"270 196 CURVE SMOOTH",
"75 39 LINE",
"442 39 LINE",
"450 0 LINE",
"25 0 LINE",
"25 50 LINE",
"250 238 LINE SMOOTH",
"340 313 OFFCURVE",
"367 352 OFFCURVE",
"367 417 CURVE SMOOTH",
"367 488 OFFCURVE",
"304 539 OFFCURVE",
"217 539 CURVE SMOOTH",
"144 539 OFFCURVE",
"95 513 OFFCURVE",
"60 493 CURVE",
"38 527 LINE",
"75 549 OFFCURVE",
"134 579 OFFCURVE",
"219 579 CURVE SMOOTH"
);
}
);
width = 470;
},
{
layerId = "601FF878-0EB3-47BC-931B-6B704884A184";
name = Bold;
paths = (
{
closed = 1;
nodes = (
"347 579 OFFCURVE",
"425 511 OFFCURVE",
"425 418 CURVE SMOOTH",
"425 343 OFFCURVE",
"374 277 OFFCURVE",
"276 194 CURVE SMOOTH",
"106 50 LINE",
"448 49 LINE",
"456 0 LINE",
"25 0 LINE",
"25 50 LINE",
"237 233 LINE SMOOTH",
"326 309 OFFCURVE",
"360 350 OFFCURVE",
"360 415 CURVE SMOOTH",
"360 486 OFFCURVE",
"305 527 OFFCURVE",
"218 527 CURVE SMOOTH",
"145 527 OFFCURVE",
"96 496 OFFCURVE",
"61 476 CURVE",
"38 527 LINE",
"75 549 OFFCURVE",
"134 579 OFFCURVE",
"219 579 CURVE SMOOTH"
);
}
);
width = 476;
}
);
unicode = 0032;
},
{
glyphname = three;
lastChange = "2015-05-04 18:40:54 +0000";
layers = (
{
layerId = "7D7A15B1-26C3-429D-8003-112E9373A587";
name = Light;
paths = (
{
closed = 1;
nodes = (
"329 579 OFFCURVE",
"390 501 OFFCURVE",
"390 417 CURVE SMOOTH",
"390 345 OFFCURVE",
"339 288 OFFCURVE",
"276 268 CURVE",
"351 251 OFFCURVE",
"402 187 OFFCURVE",
"402 106 CURVE SMOOTH",
"402 3 OFFCURVE",
"319 -76 OFFCURVE",
"190 -76 CURVE SMOOTH",
"115 -76 OFFCURVE",
"45 -49 OFFCURVE",
"0 -24 CURVE",
"33 10 LINE",
"80 -18 OFFCURVE",
"120 -35 OFFCURVE",
"193 -35 CURVE SMOOTH",
"273 -35 OFFCURVE",
"351 23 OFFCURVE",
"351 104 CURVE SMOOTH",
"351 189 OFFCURVE",
"293 247 OFFCURVE",
"154 247 CURVE SMOOTH",
"136 247 LINE",
"126 286 LINE",
"160 286 LINE SMOOTH",
"272 286 OFFCURVE",
"339 340 OFFCURVE",
"339 416 CURVE SMOOTH",
"339 475 OFFCURVE",
"286 538 OFFCURVE",
"202 538 CURVE SMOOTH",
"130 538 OFFCURVE",
"74 510 OFFCURVE",
"42 489 CURVE",
"11 520 LINE",
"63 553 OFFCURVE",
"125 579 OFFCURVE",
"205 579 CURVE SMOOTH"
);
}
);
width = 447;
},
{
layerId = "601FF878-0EB3-47BC-931B-6B704884A184";
name = Bold;
paths = (
{
closed = 1;
nodes = (
"338 579 OFFCURVE",
"404 501 OFFCURVE",
"404 417 CURVE SMOOTH",
"404 345 OFFCURVE",
"353 288 OFFCURVE",
"290 268 CURVE",
"365 251 OFFCURVE",
"416 187 OFFCURVE",
"416 106 CURVE SMOOTH",
"416 3 OFFCURVE",
"329 -76 OFFCURVE",
"190 -76 CURVE SMOOTH",
"115 -76 OFFCURVE",
"45 -49 OFFCURVE",
"0 -24 CURVE",
"33 20 LINE",
"80 -8 OFFCURVE",
"120 -25 OFFCURVE",
"193 -25 CURVE SMOOTH",
"273 -25 OFFCURVE",
"351 23 OFFCURVE",
"351 104 CURVE SMOOTH",
"351 189 OFFCURVE",
"293 244 OFFCURVE",
"154 244 CURVE SMOOTH",
"136 244 LINE",
"126 289 LINE",
"160 289 LINE SMOOTH",
"272 289 OFFCURVE",
"339 340 OFFCURVE",
"339 416 CURVE SMOOTH",
"339 475 OFFCURVE",
"286 528 OFFCURVE",
"202 528 CURVE SMOOTH",
"130 528 OFFCURVE",
"74 500 OFFCURVE",
"42 479 CURVE",
"11 520 LINE",
"63 553 OFFCURVE",
"125 579 OFFCURVE",
"205 579 CURVE SMOOTH"
);
}
);
width = 456;
}
);
unicode = 0033;
},
{
glyphname = four;
lastChange = "2015-05-04 18:40:54 +0000";
layers = (
{
layerId = "7D7A15B1-26C3-429D-8003-112E9373A587";
name = Light;
paths = (
{
closed = 1;
nodes = (
"484 74 LINE",
"375 74 LINE",
"375 -69 LINE",
"326 -69 LINE",
"326 74 LINE",
"19 74 LINE",
"10 125 LINE",
"347 571 LINE",
"375 571 LINE",
"375 113 LINE",
"492 113 LINE"
);
},
{
closed = 1;
nodes = (
"60 113 LINE",
"326 113 LINE",
"326 470 LINE"
);
}
);
width = 512;
},
{
layerId = "601FF878-0EB3-47BC-931B-6B704884A184";
name = Bold;
paths = (
{
closed = 1;
nodes = (
"484 74 LINE",
"388 74 LINE",
"388 -69 LINE",
"326 -69 LINE",
"326 74 LINE",
"19 74 LINE",
"10 125 LINE",
"347 571 LINE",
"388 571 LINE",
"388 125 LINE",
"492 125 LINE"
);
},
{
closed = 1;
nodes = (
"77 125 LINE",
"326 125 LINE",
"326 456 LINE"
);
}
);
width = 512;
}
);
unicode = 0034;
},
{
glyphname = five;
lastChange = "2015-05-04 18:40:54 +0000";
layers = (
{
layerId = "7D7A15B1-26C3-429D-8003-112E9373A587";
name = Light;
paths = (
{
closed = 1;
nodes = (
"80 230 LINE",
"95 566 LINE",
"412 566 LINE",
"409 527 LINE",
"140 527 LINE",
"129 289 LINE",
"165 316 OFFCURVE",
"210 330 OFFCURVE",
"243 330 CURVE SMOOTH",
"390 330 OFFCURVE",
"451 238 OFFCURVE",
"451 130 CURVE SMOOTH",
"451 19 OFFCURVE",
"371 -76 OFFCURVE",
"220 -76 CURVE SMOOTH",
"147 -76 OFFCURVE",
"87 -51 OFFCURVE",
"40 -26 CURVE",
"64 10 LINE",
"111 -18 OFFCURVE",
"163 -35 OFFCURVE",
"224 -35 CURVE SMOOTH",
"336 -35 OFFCURVE",
"399 34 OFFCURVE",
"399 130 CURVE SMOOTH",
"399 226 OFFCURVE",
"339 289 OFFCURVE",
"247 289 CURVE SMOOTH",
"194 289 OFFCURVE",
"143 259 OFFCURVE",
"116 230 CURVE"
);
}
);
width = 491;
},
{
layerId = "601FF878-0EB3-47BC-931B-6B704884A184";
name = Bold;
paths = (
{
closed = 1;
nodes = (
"68 230 LINE",
"83 566 LINE",
"416 566 LINE",
"408 514 LINE",
"143 514 LINE",
"133 293 LINE",
"168 316 OFFCURVE",
"210 330 OFFCURVE",
"247 330 CURVE SMOOTH",
"394 330 OFFCURVE",
"454 238 OFFCURVE",
"455 130 CURVE SMOOTH",
"455 19 OFFCURVE",
"375 -76 OFFCURVE",
"224 -76 CURVE SMOOTH",
"151 -76 OFFCURVE",
"82 -49 OFFCURVE",
"35 -24 CURVE",
"68 20 LINE",
"115 -8 OFFCURVE",
"156 -25 OFFCURVE",
"228 -25 CURVE SMOOTH",
"325 -25 OFFCURVE",
"389 34 OFFCURVE",
"389 130 CURVE SMOOTH",
"389 226 OFFCURVE",
"332 279 OFFCURVE",
"251 279 CURVE SMOOTH",
"198 279 OFFCURVE",
"152 247 OFFCURVE",
"131 230 CURVE"
);
}
);
width = 490;
}
);
unicode = 0035;
},
{
glyphname = six;
lastChange = "2015-05-04 18:40:54 +0000";
layers = (
{
layerId = "7D7A15B1-26C3-429D-8003-112E9373A587";
name = Light;
paths = (
{
closed = 1;
nodes = (
"94 322 OFFCURVE",
"151 387 OFFCURVE",
"253 387 CURVE SMOOTH",
"381 387 OFFCURVE",
"452 291 OFFCURVE",
"452 190 CURVE SMOOTH",
"452 86 OFFCURVE",
"371 -13 OFFCURVE",
"254 -13 CURVE SMOOTH",
"127 -13 OFFCURVE",
"40 83 OFFCURVE",
"40 260 CURVE SMOOTH",
"40 485 OFFCURVE",
"214 613 OFFCURVE",
"375 634 CURVE",
"393 594 LINE",
"263 588 OFFCURVE",
"87 462 OFFCURVE",
"87 270 CURVE SMOOTH",
"87 116 OFFCURVE",
"145 28 OFFCURVE",
"252 28 CURVE SMOOTH",
"347 28 OFFCURVE",
"401 109 OFFCURVE",
"401 185 CURVE SMOOTH",
"401 274 OFFCURVE",
"346 346 OFFCURVE",
"253 346 CURVE SMOOTH",
"180 346 OFFCURVE",
"111 295 OFFCURVE",
"82 248 CURVE",
"65 285 LINE"
);
}
);
width = 492;
},
{
layerId = "601FF878-0EB3-47BC-931B-6B704884A184";
name = Bold;
paths = (
{
closed = 1;
nodes = (
"99 322 OFFCURVE",
"161 387 OFFCURVE",
"258 387 CURVE SMOOTH",
"397 387 OFFCURVE",
"467 291 OFFCURVE",
"467 190 CURVE SMOOTH",
"467 75 OFFCURVE",
"376 -13 OFFCURVE",
"259 -13 CURVE SMOOTH",
"132 -13 OFFCURVE",
"35 85 OFFCURVE",
"35 260 CURVE SMOOTH",
"35 485 OFFCURVE",
"219 613 OFFCURVE",
"380 634 CURVE",
"398 586 LINE",
"268 580 OFFCURVE",
"97 462 OFFCURVE",
"97 270 CURVE SMOOTH",
"97 118 OFFCURVE",
"150 40 OFFCURVE",
"257 40 CURVE SMOOTH",
"352 40 OFFCURVE",
"406 109 OFFCURVE",
"406 185 CURVE SMOOTH",
"406 274 OFFCURVE",
"351 337 OFFCURVE",
"258 337 CURVE SMOOTH",
"185 337 OFFCURVE",
"116 286 OFFCURVE",
"87 239 CURVE",
"70 285 LINE"
);
}
);
width = 502;
}
);
unicode = 0036;
},
{
glyphname = seven;
lastChange = "2015-05-04 18:40:54 +0000";
layers = (
{
layerId = "7D7A15B1-26C3-429D-8003-112E9373A587";
name = Light;
paths = (
{
closed = 1;
nodes = (
"123 -49 LINE",
"360 527 LINE",
"18 527 LINE",
"10 566 LINE",
"387 566 LINE",
"409 537 LINE",
"169 -69 LINE"
);
}
);
width = 429;
},
{
layerId = "601FF878-0EB3-47BC-931B-6B704884A184";
name = Bold;
paths = (
{
closed = 1;
nodes = (
"119 -49 LINE",
"341 514 LINE",
"18 514 LINE",
"10 566 LINE",
"387 566 LINE",
"409 537 LINE",
"179 -69 LINE"
);
}
);
width = 429;
}
);
unicode = 0037;
},
{
glyphname = eight;
lastChange = "2015-05-04 18:40:54 +0000";
layers = (
{
layerId = "7D7A15B1-26C3-429D-8003-112E9373A587";
name = Light;
paths = (
{
closed = 1;
nodes = (
"380 643 OFFCURVE",
"433 560 OFFCURVE",
"433 481 CURVE SMOOTH",
"433 413 OFFCURVE",
"378 363 OFFCURVE",
"325 339 CURVE",
"396 322 OFFCURVE",
"461 253 OFFCURVE",
"461 169 CURVE SMOOTH",
"461 73 OFFCURVE",
"392 -13 OFFCURVE",
"251 -13 CURVE SMOOTH",
"108 -13 OFFCURVE",
"40 69 OFFCURVE",
"40 169 CURVE SMOOTH",
"40 241 OFFCURVE",
"101 322 OFFCURVE",
"177 339 CURVE",
"116 363 OFFCURVE",
"68 414 OFFCURVE",
"68 481 CURVE SMOOTH",
"68 565 OFFCURVE",
"123 643 OFFCURVE",
"251 643 CURVE SMOOTH"
);
},
{
closed = 1;
nodes = (
"159 602 OFFCURVE",
"118 543 OFFCURVE",
"118 484 CURVE SMOOTH",
"118 428 OFFCURVE",
"166 372 OFFCURVE",
"251 360 CURVE",
"335 372 OFFCURVE",
"384 431 OFFCURVE",
"384 484 CURVE SMOOTH",
"384 545 OFFCURVE",
"341 602 OFFCURVE",
"248 602 CURVE SMOOTH"
);
},
{
closed = 1;
nodes = (
"144 303 OFFCURVE",
"91 238 OFFCURVE",
"91 162 CURVE SMOOTH",
"91 86 OFFCURVE",
"160 28 OFFCURVE",
"251 28 CURVE SMOOTH",
"338 28 OFFCURVE",
"410 85 OFFCURVE",
"410 162 CURVE SMOOTH",
"410 238 OFFCURVE",
"356 303 OFFCURVE",
"251 316 CURVE"
);
}
);
width = 501;
},
{
layerId = "601FF878-0EB3-47BC-931B-6B704884A184";
name = Bold;
paths = (
{
closed = 1;
nodes = (
"388 643 OFFCURVE",
"454 565 OFFCURVE",
"454 481 CURVE SMOOTH",
"454 413 OFFCURVE",
"399 363 OFFCURVE",
"346 339 CURVE",
"417 322 OFFCURVE",
"482 253 OFFCURVE",
"482 169 CURVE SMOOTH",
"482 73 OFFCURVE",
"404 -13 OFFCURVE",
"259 -13 CURVE SMOOTH",
"112 -13 OFFCURVE",
"35 69 OFFCURVE",
"35 169 CURVE SMOOTH",
"35 241 OFFCURVE",
"96 322 OFFCURVE",
"172 339 CURVE",
"111 363 OFFCURVE",
"63 414 OFFCURVE",
"63 481 CURVE SMOOTH",
"63 565 OFFCURVE",
"131 643 OFFCURVE",
"259 643 CURVE SMOOTH"
);
},
{
closed = 1;
nodes = (
"167 593 OFFCURVE",
"126 538 OFFCURVE",
"126 479 CURVE SMOOTH",
"126 423 OFFCURVE",
"174 372 OFFCURVE",
"259 360 CURVE",
"343 372 OFFCURVE",
"392 426 OFFCURVE",
"392 479 CURVE SMOOTH",
"392 540 OFFCURVE",
"349 593 OFFCURVE",
"256 593 CURVE SMOOTH"
);
},
{
closed = 1;
nodes = (
"152 303 OFFCURVE",
"99 243 OFFCURVE",
"99 167 CURVE SMOOTH",
"99 91 OFFCURVE",
"168 38 OFFCURVE",
"259 38 CURVE SMOOTH",
"346 38 OFFCURVE",
"418 90 OFFCURVE",
"418 167 CURVE SMOOTH",
"418 243 OFFCURVE",
"364 303 OFFCURVE",
"259 316 CURVE"
);
}
);
width = 517;
}
);
unicode = 0038;
},
{
glyphname = nine;
lastChange = "2015-05-04 18:40:54 +0000";
layers = (
{
layerId = "7D7A15B1-26C3-429D-8003-112E9373A587";
name = Light;
paths = (
{
closed = 1;
nodes = (
"398 243 OFFCURVE",
"341 178 OFFCURVE",
"239 178 CURVE SMOOTH",
"111 178 OFFCURVE",
"40 274 OFFCURVE",
"40 375 CURVE SMOOTH",
"40 479 OFFCURVE",
"121 578 OFFCURVE",
"238 578 CURVE SMOOTH",
"365 578 OFFCURVE",
"452 482 OFFCURVE",
"452 305 CURVE SMOOTH",
"452 80 OFFCURVE",
"278 -48 OFFCURVE",
"117 -69 CURVE",
"99 -29 LINE",
"229 -23 OFFCURVE",
"405 103 OFFCURVE",
"405 295 CURVE SMOOTH",
"405 449 OFFCURVE",
"347 537 OFFCURVE",
"240 537 CURVE SMOOTH",
"145 537 OFFCURVE",
"91 456 OFFCURVE",
"91 380 CURVE SMOOTH",
"91 291 OFFCURVE",
"146 219 OFFCURVE",
"239 219 CURVE SMOOTH",
"312 219 OFFCURVE",
"381 270 OFFCURVE",
"410 317 CURVE",
"427 280 LINE"
);
}
);
width = 492;
},
{
layerId = "601FF878-0EB3-47BC-931B-6B704884A184";
name = Bold;
paths = (
{
closed = 1;
nodes = (
"403 244 OFFCURVE",
"341 179 OFFCURVE",
"244 179 CURVE SMOOTH",
"105 179 OFFCURVE",
"35 275 OFFCURVE",
"35 376 CURVE SMOOTH",
"35 491 OFFCURVE",
"126 579 OFFCURVE",
"243 579 CURVE SMOOTH",
"370 579 OFFCURVE",
"467 481 OFFCURVE",
"467 306 CURVE SMOOTH",
"467 81 OFFCURVE",
"283 -47 OFFCURVE",
"122 -68 CURVE",
"104 -20 LINE",
"234 -14 OFFCURVE",
"405 104 OFFCURVE",
"405 296 CURVE SMOOTH",
"405 448 OFFCURVE",
"352 526 OFFCURVE",
"245 526 CURVE SMOOTH",
"150 526 OFFCURVE",
"96 457 OFFCURVE",
"96 381 CURVE SMOOTH",
"96 292 OFFCURVE",
"151 229 OFFCURVE",
"244 229 CURVE SMOOTH",
"317 229 OFFCURVE",
"386 280 OFFCURVE",
"415 327 CURVE",
"432 281 LINE"
);
}
);
width = 502;
}
);
unicode = 0039;
},
{
glyphname = grave;
lastChange = "2015-05-04 18:40:54 +0000";
layers = (
{
anchors = (
{
name = _top;
position = "{93, 485}";
}
);
layerId = "7D7A15B1-26C3-429D-8003-112E9373A587";
name = Light;
paths = (
{
closed = 1;
nodes = (
"10 742 LINE",
"71 742 LINE",
"127 600 LINE",
"95 589 LINE"
);
}
);
width = 137;
},
{
anchors = (
{
name = _top;
position = "{93, 485}";
}
);
layerId = "601FF878-0EB3-47BC-931B-6B704884A184";
name = Bold;
paths = (
{
closed = 1;
nodes = (
"10 742 LINE",
"81 742 LINE",
"135 602 LINE",
"95 589 LINE"
);
}
);
width = 145;
}
);
unicode = 0060;
},
{
glyphname = dieresis;
lastChange = "2015-05-04 20:03:36 +0000";
layers = (
{
anchors = (
{
name = _top;
position = "{124, 485}";
}
);
layerId = "7D7A15B1-26C3-429D-8003-112E9373A587";
name = Light;
paths = (
{
closed = 1;
nodes = (
"183 618 OFFCURVE",
"169 634 OFFCURVE",
"169 655 CURVE SMOOTH",
"169 676 OFFCURVE",
"183 691 OFFCURVE",
"206 691 CURVE SMOOTH",
"226 691 OFFCURVE",
"243 676 OFFCURVE",
"243 655 CURVE SMOOTH",
"243 634 OFFCURVE",
"226 618 OFFCURVE",
"206 618 CURVE SMOOTH"
);
},
{
closed = 1;
nodes = (
"24 618 OFFCURVE",
"10 634 OFFCURVE",
"10 655 CURVE SMOOTH",
"10 676 OFFCURVE",
"24 691 OFFCURVE",
"47 691 CURVE SMOOTH",
"67 691 OFFCURVE",
"84 676 OFFCURVE",
"84 655 CURVE SMOOTH",
"84 634 OFFCURVE",
"67 618 OFFCURVE",
"47 618 CURVE SMOOTH"
);
}
);
width = 253;
},
{
anchors = (
{
name = _top;
position = "{136, 485}";
}
);
layerId = "601FF878-0EB3-47BC-931B-6B704884A184";
name = Bold;
paths = (
{
closed = 1;
nodes = (
"186 618 OFFCURVE",
"167 637 OFFCURVE",
"167 662 CURVE SMOOTH",
"167 685 OFFCURVE",
"186 704 OFFCURVE",
"210 704 CURVE SMOOTH",
"235 704 OFFCURVE",
"253 685 OFFCURVE",
"253 662 CURVE SMOOTH",
"253 637 OFFCURVE",
"235 618 OFFCURVE",
"210 618 CURVE SMOOTH"
);
},
{
closed = 1;
nodes = (
"30 618 OFFCURVE",
"10 637 OFFCURVE",
"10 662 CURVE SMOOTH",
"10 685 OFFCURVE",
"30 704 OFFCURVE",
"53 704 CURVE SMOOTH",
"78 704 OFFCURVE",
"97 685 OFFCURVE",
"97 662 CURVE SMOOTH",
"97 637 OFFCURVE",
"78 618 OFFCURVE",
"53 618 CURVE SMOOTH"
);
}
);
width = 263;
}
);
unicode = 00A8;
},
{
glyphname = macron;
lastChange = "2015-05-04 18:40:54 +0000";
layers = (
{
anchors = (
{
name = _top;
position = "{133, 485}";
}
);
layerId = "7D7A15B1-26C3-429D-8003-112E9373A587";
name = Light;
paths = (
{
closed = 1;
nodes = (
"10 677 LINE",
"245 677 LINE",
"251 640 LINE",
"10 640 LINE"
);
}
);
width = 261;
},
{
anchors = (
{
name = _top;
position = "{140, 485}";
}
);
layerId = "601FF878-0EB3-47BC-931B-6B704884A184";
name = Bold;
paths = (
{
closed = 1;
nodes = (
"10 689 LINE",
"245 689 LINE",
"251 640 LINE",
"10 640 LINE"
);
}
);
width = 261;
}
);
unicode = 00AF;
},
{
glyphname = acute;
lastChange = "2015-05-04 18:40:54 +0000";
layers = (
{
anchors = (
{
name = _top;
position = "{54, 485}";
}
);
layerId = "7D7A15B1-26C3-429D-8003-112E9373A587";
name = Light;
paths = (
{
closed = 1;
nodes = (
"10 600 LINE",
"66 742 LINE",
"127 742 LINE",
"42 589 LINE"
);
}
);
width = 137;
},
{
anchors = (
{
name = _top;
position = "{58, 485}";
}
);
layerId = "601FF878-0EB3-47BC-931B-6B704884A184";
name = Bold;
paths = (
{
closed = 1;
nodes = (
"10 602 LINE",
"64 742 LINE",
"135 742 LINE",
"50 589 LINE"
);
}
);
width = 145;
}
);
unicode = 00B4;
},
{
glyphname = circumflex;
lastChange = "2015-05-04 18:40:54 +0000";
layers = (
{
anchors = (
{
name = _top;
position = "{127, 485}";
}
);
layerId = "7D7A15B1-26C3-429D-8003-112E9373A587";
name = Light;
paths = (
{
closed = 1;
nodes = (
"51 589 LINE",
"10 599 LINE",
"116 742 LINE",
"156 742 LINE",
"261 603 LINE",
"220 589 LINE",
"137 707 LINE"
);
}
);
width = 271;
},
{
anchors = (
{
name = _top;
position = "{144, 485}";
}
);
layerId = "601FF878-0EB3-47BC-931B-6B704884A184";
name = Bold;
paths = (
{
closed = 1;
nodes = (
"65 589 LINE",
"10 599 LINE",
"110 742 LINE",
"170 742 LINE",
"272 599 LINE",
"214 589 LINE",
"140 698 LINE"
);
}
);
width = 282;
}
);
unicode = 02C6;
},
{
glyphname = caron;
lastChange = "2015-05-04 18:40:54 +0000";
layers = (
{
anchors = (
{
name = _top;
position = "{140, 485}";
}
);
layerId = "7D7A15B1-26C3-429D-8003-112E9373A587";
name = Light;
paths = (
{
closed = 1;
nodes = (
"220 742 LINE",
"261 728 LINE",
"156 589 LINE",
"116 589 LINE",
"10 732 LINE",
"51 742 LINE",
"137 624 LINE"
);
}
);
width = 271;
},
{
anchors = (
{
name = _top;
position = "{141, 485}";
}
);
layerId = "601FF878-0EB3-47BC-931B-6B704884A184";
name = Bold;
paths = (
{
closed = 1;
nodes = (
"217 742 LINE",
"272 732 LINE",
"172 589 LINE",
"112 589 LINE",
"10 732 LINE",
"68 742 LINE",
"142 633 LINE"
);
}
);
width = 282;
}
);
unicode = 02C7;
},
{
glyphname = breve;
lastChange = "2015-05-04 18:40:54 +0000";
layers = (
{
anchors = (
{
name = _top;
position = "{143, 485}";
}
);
layerId = "7D7A15B1-26C3-429D-8003-112E9373A587";
name = Light;
paths = (
{
closed = 1;
nodes = (
"270 731 LINE",
"270 664 OFFCURVE",
"227 601 OFFCURVE",
"140 601 CURVE SMOOTH",
"56 601 OFFCURVE",
"10 664 OFFCURVE",
"10 731 CURVE",
"51 731 LINE",
"51 684 OFFCURVE",
"84 640 OFFCURVE",
"140 640 CURVE SMOOTH",
"196 640 OFFCURVE",
"229 682 OFFCURVE",
"229 731 CURVE"
);
}
);
width = 280;
},
{
anchors = (
{
name = _top;
position = "{147, 485}";
}
);
layerId = "601FF878-0EB3-47BC-931B-6B704884A184";
name = Bold;
paths = (
{
closed = 1;
nodes = (
"270 731 LINE",
"270 664 OFFCURVE",
"232 602 OFFCURVE",
"140 601 CURVE SMOOTH",
"48 602 OFFCURVE",
"10 664 OFFCURVE",
"10 731 CURVE",
"56 731 LINE",
"56 694 OFFCURVE",
"84 649 OFFCURVE",
"140 649 CURVE SMOOTH",
"193 649 OFFCURVE",
"223 694 OFFCURVE",
"223 731 CURVE"
);
}
);
width = 280;
}
);
unicode = 02D8;
},
{
glyphname = dotaccent;
lastChange = "2015-05-04 20:03:41 +0000";
layers = (
{
anchors = (
{
name = _top;
position = "{51, 485}";
}
);
layerId = "7D7A15B1-26C3-429D-8003-112E9373A587";
name = Light;
paths = (
{
closed = 1;
nodes = (
"25 618 OFFCURVE",
"10 635 OFFCURVE",
"10 656 CURVE SMOOTH",
"10 677 OFFCURVE",
"25 694 OFFCURVE",
"48 694 CURVE SMOOTH",
"69 694 OFFCURVE",
"87 677 OFFCURVE",
"87 656 CURVE SMOOTH",
"87 635 OFFCURVE",
"69 618 OFFCURVE",
"48 618 CURVE SMOOTH"
);
}
);
width = 97;
},
{
anchors = (
{
name = _top;
position = "{59, 485}";
}
);
layerId = "601FF878-0EB3-47BC-931B-6B704884A184";
name = Bold;
paths = (
{
closed = 1;
nodes = (
"31 618 OFFCURVE",
"10 639 OFFCURVE",
"10 666 CURVE SMOOTH",
"10 691 OFFCURVE",
"31 714 OFFCURVE",
"58 714 CURVE SMOOTH",
"83 714 OFFCURVE",
"105 691 OFFCURVE",
"105 666 CURVE SMOOTH",
"105 639 OFFCURVE",
"83 618 OFFCURVE",
"58 618 CURVE SMOOTH"
);
}
);
width = 115;
}
);
unicode = 02D9;
},
{
glyphname = ring;
lastChange = "2015-05-04 18:40:54 +0000";
layers = (
{
anchors = (
{
name = _top;
position = "{102, 485}";
}
);
layerId = "7D7A15B1-26C3-429D-8003-112E9373A587";
name = Light;
paths = (
{
closed = 1;
nodes = (
"147 759 OFFCURVE",
"187 723 OFFCURVE",
"187 675 CURVE SMOOTH",
"187 628 OFFCURVE",
"147 594 OFFCURVE",
"99 594 CURVE SMOOTH",
"51 594 OFFCURVE",
"10 628 OFFCURVE",
"10 675 CURVE SMOOTH",
"10 723 OFFCURVE",
"51 759 OFFCURVE",
"99 759 CURVE SMOOTH"
);
},
{
closed = 1;
nodes = (
"128 624 OFFCURVE",
"148 646 OFFCURVE",
"148 675 CURVE SMOOTH",
"148 706 OFFCURVE",
"128 728 OFFCURVE",
"99 728 CURVE SMOOTH",
"70 728 OFFCURVE",
"49 706 OFFCURVE",
"49 675 CURVE SMOOTH",
"49 646 OFFCURVE",
"70 624 OFFCURVE",
"99 624 CURVE SMOOTH"
);
}
);
width = 197;
},
{
anchors = (
{
name = _top;
position = "{99, 485}";
}
);
layerId = "601FF878-0EB3-47BC-931B-6B704884A184";
name = Bold;
paths = (
{
closed = 1;
nodes = (
"147 759 OFFCURVE",
"187 723 OFFCURVE",
"187 675 CURVE SMOOTH",
"187 628 OFFCURVE",
"147 594 OFFCURVE",
"99 594 CURVE SMOOTH",
"51 594 OFFCURVE",
"10 628 OFFCURVE",
"10 675 CURVE SMOOTH",
"10 723 OFFCURVE",
"51 759 OFFCURVE",
"99 759 CURVE SMOOTH"
);
},
{
closed = 1;
nodes = (
"123 633 OFFCURVE",
"143 651 OFFCURVE",
"143 675 CURVE SMOOTH",
"143 700 OFFCURVE",
"123 719 OFFCURVE",
"99 719 CURVE SMOOTH",
"75 719 OFFCURVE",
"55 700 OFFCURVE",
"55 675 CURVE SMOOTH",
"55 651 OFFCURVE",
"75 633 OFFCURVE",
"99 633 CURVE SMOOTH"
);
}
);
width = 197;
}
);
unicode = 02DA;
},
{
glyphname = tilde;
lastChange = "2015-05-04 18:40:54 +0000";
layers = (
{
anchors = (
{
name = _top;
position = "{150, 485}";
}
);
layerId = "7D7A15B1-26C3-429D-8003-112E9373A587";
name = Light;
paths = (
{
closed = 1;
nodes = (
"289 699 LINE",
"289 636 OFFCURVE",
"251 608 OFFCURVE",
"206 608 CURVE SMOOTH",
"183 608 OFFCURVE",
"163 618 OFFCURVE",
"146 637 CURVE SMOOTH",
"128 656 OFFCURVE",
"111 665 OFFCURVE",
"94 665 CURVE SMOOTH",
"65 665 OFFCURVE",
"52 643 OFFCURVE",
"49 612 CURVE",
"10 612 LINE",
"10 675 OFFCURVE",
"48 703 OFFCURVE",
"93 703 CURVE SMOOTH",
"121 703 OFFCURVE",
"143 694 OFFCURVE",
"158 675 CURVE SMOOTH",
"173 656 OFFCURVE",
"189 646 OFFCURVE",
"206 646 CURVE SMOOTH",
"234 646 OFFCURVE",
"248 668 OFFCURVE",
"251 699 CURVE"
);
}
);
width = 299;
},
{
anchors = (
{
name = _top;
position = "{165, 485}";
}
);
layerId = "601FF878-0EB3-47BC-931B-6B704884A184";
name = Bold;
paths = (
{
closed = 1;
nodes = (
"290 699 LINE",
"290 630 OFFCURVE",
"253 608 OFFCURVE",
"206 608 CURVE SMOOTH",
"183 608 OFFCURVE",
"163 616 OFFCURVE",
"146 632 CURVE SMOOTH",
"128 648 OFFCURVE",
"111 656 OFFCURVE",
"94 656 CURVE SMOOTH",
"77 656 OFFCURVE",
"58 643 OFFCURVE",
"55 612 CURVE",
"10 612 LINE",
"10 683 OFFCURVE",
"48 703 OFFCURVE",
"93 703 CURVE SMOOTH",
"121 703 OFFCURVE",
"143 695 OFFCURVE",
"158 680 CURVE SMOOTH",
"173 664 OFFCURVE",
"189 656 OFFCURVE",
"206 656 CURVE SMOOTH",
"223 656 OFFCURVE",
"241 668 OFFCURVE",
"244 699 CURVE"
);
}
);
width = 305;
}
);
unicode = 02DC;
},
{
glyphname = hungarumlaut;
lastChange = "2015-05-04 18:40:54 +0000";
layers = (
{
anchors = (
{
name = _top;
position = "{101, 485}";
}
);
layerId = "7D7A15B1-26C3-429D-8003-112E9373A587";
name = Light;
paths = (
{
closed = 1;
nodes = (
"10 600 LINE",
"66 742 LINE",
"127 742 LINE",
"42 589 LINE"
);
},
{
closed = 1;
nodes = (
"138 600 LINE",
"194 742 LINE",
"255 742 LINE",
"170 589 LINE"
);
}
);
width = 265;
},
{
anchors = (
{
name = _top;
position = "{117, 485}";
}
);
layerId = "601FF878-0EB3-47BC-931B-6B704884A184";
name = Bold;
paths = (
{
closed = 1;
nodes = (
"10 602 LINE",
"64 742 LINE",
"135 742 LINE",
"50 589 LINE"
);
},
{
closed = 1;
nodes = (
"150 602 LINE",
"204 742 LINE",
"275 742 LINE",
"190 589 LINE"
);
}
);
width = 285;
}
);
unicode = 02DD;
},
{
glyphname = ogonek;
lastChange = "2015-05-04 20:13:00 +0000";
layers = (
{
anchors = (
{
name = _bottom;
position = "{92, 0}";
}
);
layerId = "7D7A15B1-26C3-429D-8003-112E9373A587";
name = Light;
paths = (
{
closed = 1;
nodes = (
"109 0 LINE",
"73 -33 OFFCURVE",
"56 -68 OFFCURVE",
"56 -112 CURVE SMOOTH",
"56 -152 OFFCURVE",
"93 -171 OFFCURVE",
"118 -171 CURVE SMOOTH",
"139 -171 OFFCURVE",
"157 -163 OFFCURVE",
"173 -150 CURVE",
"195 -177 LINE",
"178 -194 OFFCURVE",
"148 -207 OFFCURVE",
"115 -207 CURVE SMOOTH",
"55 -207 OFFCURVE",
"10 -168 OFFCURVE",
"10 -111 CURVE SMOOTH",
"10 -73 OFFCURVE",
"36 -25 OFFCURVE",
"72 4 CURVE"
);
}
);
width = 205;
},
{
anchors = (
{
name = _bottom;
position = "{99, 0}";
}
);
layerId = "601FF878-0EB3-47BC-931B-6B704884A184";
name = Bold;
paths = (
{
closed = 1;
nodes = (
"126 0 LINE",
"91 -24 OFFCURVE",
"65 -69 OFFCURVE",
"65 -107 CURVE SMOOTH",
"65 -147 OFFCURVE",
"92 -160 OFFCURVE",
"117 -160 CURVE SMOOTH",
"138 -160 OFFCURVE",
"156 -152 OFFCURVE",
"172 -139 CURVE",
"194 -177 LINE",
"177 -194 OFFCURVE",
"147 -207 OFFCURVE",
"114 -207 CURVE SMOOTH",
"54 -207 OFFCURVE",
"10 -168 OFFCURVE",
"10 -111 CURVE SMOOTH",
"10 -75 OFFCURVE",
"38 -27 OFFCURVE",
"77 4 CURVE"
);
}
);
width = 204;
}
);
unicode = 02DB;
},
{
glyphname = cedilla;
lastChange = "2015-05-04 18:40:54 +0000";
layers = (
{
anchors = (
{
name = _bottom;
position = "{104, 0}";
}
);
layerId = "7D7A15B1-26C3-429D-8003-112E9373A587";
name = Light;
paths = (
{
closed = 1;
nodes = (
"89 13 LINE",
"130 13 LINE",
"105 -51 LINE",
"165 -62 OFFCURVE",
"196 -101 OFFCURVE",
"196 -136 CURVE SMOOTH",
"196 -187 OFFCURVE",
"152 -221 OFFCURVE",
"87 -221 CURVE SMOOTH",
"63 -221 OFFCURVE",
"27 -213 OFFCURVE",
"10 -202 CURVE",
"25 -171 LINE",
"37 -176 OFFCURVE",
"63 -185 OFFCURVE",
"84 -185 CURVE SMOOTH",
"125 -185 OFFCURVE",
"154 -163 OFFCURVE",
"154 -138 CURVE SMOOTH",
"154 -110 OFFCURVE",
"119 -77 OFFCURVE",
"55 -77 CURVE"
);
}
);
width = 206;
},
{
anchors = (
{
name = _bottom;
position = "{112, 0}";
}
);
layerId = "601FF878-0EB3-47BC-931B-6B704884A184";
name = Bold;
paths = (
{
closed = 1;
nodes = (
"89 13 LINE",
"142 13 LINE",
"116 -54 LINE",
"161 -59 OFFCURVE",
"196 -97 OFFCURVE",
"196 -132 CURVE SMOOTH",
"196 -193 OFFCURVE",
"143 -221 OFFCURVE",
"84 -221 CURVE SMOOTH",
"60 -221 OFFCURVE",
"27 -213 OFFCURVE",
"10 -202 CURVE",
"25 -160 LINE",
"37 -165 OFFCURVE",
"63 -174 OFFCURVE",
"84 -174 CURVE SMOOTH",
"112 -174 OFFCURVE",
"142 -159 OFFCURVE",
"142 -134 CURVE SMOOTH",
"142 -106 OFFCURVE",
"101 -86 OFFCURVE",
"52 -81 CURVE"
);
}
);
width = 206;
}
);
unicode = 00B8;
},
{
glyphname = commaaccent;
lastChange = "2015-05-04 18:40:54 +0000";
layers = (
{
anchors = (
{
name = _bottom;
position = "{72, 0}";
}
);
layerId = "7D7A15B1-26C3-429D-8003-112E9373A587";
name = Light;
paths = (
{
closed = 1;
nodes = (
"97 -21 OFFCURVE",
"112 -44 OFFCURVE",
"112 -64 CURVE SMOOTH",
"112 -125 OFFCURVE",
"82 -178 OFFCURVE",
"26 -205 CURVE",
"10 -180 LINE",
"45 -161 OFFCURVE",
"70 -134 OFFCURVE",
"71 -98 CURVE",
"47 -98 OFFCURVE",
"35 -73 OFFCURVE",
"35 -60 CURVE SMOOTH",
"35 -40 OFFCURVE",
"48 -21 OFFCURVE",
"73 -21 CURVE SMOOTH"
);
}
);
width = 122;
},
{
anchors = (
{
name = _bottom;
position = "{71, 0}";
}
);
layerId = "601FF878-0EB3-47BC-931B-6B704884A184";
name = Bold;
paths = (
{
closed = 1;
nodes = (
"99 -21 OFFCURVE",
"120 -42 OFFCURVE",
"120 -75 CURVE SMOOTH",
"120 -135 OFFCURVE",
"79 -200 OFFCURVE",
"28 -225 CURVE",
"10 -195 LINE",
"42 -174 OFFCURVE",
"66 -151 OFFCURVE",
"67 -116 CURVE",
"42 -113 OFFCURVE",
"24 -92 OFFCURVE",
"24 -69 CURVE SMOOTH",
"24 -42 OFFCURVE",
"47 -21 OFFCURVE",
"72 -21 CURVE SMOOTH"
);
}
);
width = 130;
}
);
unicode = F6C3;
},
{
glyphname = grave.case;
lastChange = "2015-05-04 18:40:54 +0000";
layers = (
{
anchors = (
{
name = _topU;
position = "{90, 680}";
}
);
layerId = "7D7A15B1-26C3-429D-8003-112E9373A587";
name = Light;
paths = (
{
closed = 1;
nodes = (
"10 892 LINE",
"71 892 LINE",
"127 750 LINE",
"95 739 LINE"
);
}
);
width = 137;
},
{
anchors = (
{
name = _topU;
position = "{96, 680}";
}
);
layerId = "601FF878-0EB3-47BC-931B-6B704884A184";
name = Bold;
paths = (
{
closed = 1;
nodes = (
"10 892 LINE",
"81 892 LINE",
"135 752 LINE",
"95 739 LINE"
);
}
);
width = 145;
}
);
},
{
glyphname = dieresis.case;
lastChange = "2015-05-04 20:03:48 +0000";
layers = (
{
anchors = (
{
name = _topU;
position = "{129, 680}";
}
);
layerId = "7D7A15B1-26C3-429D-8003-112E9373A587";
name = Light;
paths = (
{
closed = 1;
nodes = (
"183 768 OFFCURVE",
"169 784 OFFCURVE",
"169 805 CURVE SMOOTH",
"169 826 OFFCURVE",
"183 841 OFFCURVE",
"206 841 CURVE SMOOTH",
"226 841 OFFCURVE",
"243 826 OFFCURVE",
"243 805 CURVE SMOOTH",
"243 784 OFFCURVE",
"226 768 OFFCURVE",
"206 768 CURVE SMOOTH"
);
},
{
closed = 1;
nodes = (
"24 768 OFFCURVE",
"10 784 OFFCURVE",
"10 805 CURVE SMOOTH",
"10 826 OFFCURVE",
"24 841 OFFCURVE",
"47 841 CURVE SMOOTH",
"67 841 OFFCURVE",
"84 826 OFFCURVE",
"84 805 CURVE SMOOTH",
"84 784 OFFCURVE",
"67 768 OFFCURVE",
"47 768 CURVE SMOOTH"
);
}
);
width = 253;
},
{
anchors = (
{
name = _topU;
position = "{136, 680}";
}
);
layerId = "601FF878-0EB3-47BC-931B-6B704884A184";
name = Bold;
paths = (
{
closed = 1;
nodes = (
"186 768 OFFCURVE",
"167 787 OFFCURVE",
"167 812 CURVE SMOOTH",
"167 835 OFFCURVE",
"186 854 OFFCURVE",
"210 854 CURVE SMOOTH",
"235 854 OFFCURVE",
"253 835 OFFCURVE",
"253 812 CURVE SMOOTH",
"253 787 OFFCURVE",
"235 768 OFFCURVE",
"210 768 CURVE SMOOTH"
);
},
{
closed = 1;
nodes = (
"30 768 OFFCURVE",
"10 787 OFFCURVE",
"10 812 CURVE SMOOTH",
"10 835 OFFCURVE",
"30 854 OFFCURVE",
"53 854 CURVE SMOOTH",
"78 854 OFFCURVE",
"97 835 OFFCURVE",
"97 812 CURVE SMOOTH",
"97 787 OFFCURVE",
"78 768 OFFCURVE",
"53 768 CURVE SMOOTH"
);
}
);
width = 263;
}
);
},
{
glyphname = macron.case;
lastChange = "2015-05-04 18:40:54 +0000";
layers = (
{
anchors = (
{
name = _topU;
position = "{133, 680}";
}
);
layerId = "7D7A15B1-26C3-429D-8003-112E9373A587";
name = Light;
paths = (
{
closed = 1;
nodes = (
"10 827 LINE",
"246 827 LINE",
"251 790 LINE",
"10 790 LINE"
);
}
);
width = 261;
},
{
anchors = (
{
name = _topU;
position = "{131, 680}";
}
);
layerId = "601FF878-0EB3-47BC-931B-6B704884A184";
name = Bold;
paths = (
{
closed = 1;
nodes = (
"10 839 LINE",
"245 839 LINE",
"251 790 LINE",
"10 790 LINE"
);
}
);
width = 261;
}
);
},
{
glyphname = acute.case;
lastChange = "2015-05-04 18:40:54 +0000";
layers = (
{
anchors = (
{
name = _topU;
position = "{52, 680}";
}
);
layerId = "7D7A15B1-26C3-429D-8003-112E9373A587";
name = Light;
paths = (
{
closed = 1;
nodes = (
"10 750 LINE",
"66 892 LINE",
"127 892 LINE",
"42 739 LINE"
);
}
);
width = 137;
},
{
anchors = (
{
name = _topU;
position = "{55, 680}";
}
);
layerId = "601FF878-0EB3-47BC-931B-6B704884A184";
name = Bold;
paths = (
{
closed = 1;
nodes = (
"10 752 LINE",
"64 892 LINE",
"135 892 LINE",
"50 739 LINE"
);
}
);
width = 145;
}
);
},
{
glyphname = circumflex.case;
lastChange = "2015-05-04 18:40:54 +0000";
layers = (
{
anchors = (
{
name = _topU;
position = "{130, 680}";
}
);
layerId = "7D7A15B1-26C3-429D-8003-112E9373A587";
name = Light;
paths = (
{
closed = 1;
nodes = (
"51 740 LINE",
"10 750 LINE",
"116 893 LINE",
"156 893 LINE",
"261 754 LINE",
"220 740 LINE",
"137 858 LINE"
);
}
);
width = 271;
},
{
anchors = (
{
name = _topU;
position = "{147, 680}";
}
);
layerId = "601FF878-0EB3-47BC-931B-6B704884A184";
name = Bold;
paths = (
{
closed = 1;
nodes = (
"65 739 LINE",
"10 749 LINE",
"110 892 LINE",
"170 892 LINE",
"272 749 LINE",
"214 739 LINE",
"140 848 LINE"
);
}
);
width = 282;
}
);
},
{
glyphname = caron.case;
lastChange = "2015-05-04 18:40:54 +0000";
layers = (
{
anchors = (
{
name = _topU;
position = "{134, 680}";
}
);
layerId = "7D7A15B1-26C3-429D-8003-112E9373A587";
name = Light;
paths = (
{
closed = 1;
nodes = (
"220 892 LINE",
"261 878 LINE",
"156 739 LINE",
"116 739 LINE",
"10 882 LINE",
"51 892 LINE",
"137 774 LINE"
);
}
);
width = 271;
},
{
anchors = (
{
name = _topU;
position = "{142, 680}";
}
);
layerId = "601FF878-0EB3-47BC-931B-6B704884A184";
name = Bold;
paths = (
{
closed = 1;
nodes = (
"217 892 LINE",
"272 882 LINE",
"172 739 LINE",
"112 739 LINE",
"10 882 LINE",
"68 892 LINE",
"142 783 LINE"
);
}
);
width = 282;
}
);
},
{
glyphname = breve.case;
lastChange = "2015-05-04 18:40:54 +0000";
layers = (
{
anchors = (
{
name = _topU;
position = "{139, 680}";
}
);
layerId = "7D7A15B1-26C3-429D-8003-112E9373A587";
name = Light;
paths = (
{
closed = 1;
nodes = (
"270 881 LINE",
"270 814 OFFCURVE",
"227 751 OFFCURVE",
"140 751 CURVE SMOOTH",
"56 751 OFFCURVE",
"10 814 OFFCURVE",
"10 881 CURVE",
"51 881 LINE",
"51 834 OFFCURVE",
"84 790 OFFCURVE",
"140 790 CURVE SMOOTH",
"196 790 OFFCURVE",
"229 832 OFFCURVE",
"229 881 CURVE"
);
}
);
width = 280;
},
{
anchors = (
{
name = _topU;
position = "{142, 680}";
}
);
layerId = "601FF878-0EB3-47BC-931B-6B704884A184";
name = Bold;
paths = (
{
closed = 1;
nodes = (
"270 881 LINE",
"270 814 OFFCURVE",
"232 752 OFFCURVE",
"140 751 CURVE SMOOTH",
"48 752 OFFCURVE",
"10 814 OFFCURVE",
"10 881 CURVE",
"56 881 LINE",
"56 844 OFFCURVE",
"84 799 OFFCURVE",
"140 799 CURVE SMOOTH",
"193 799 OFFCURVE",
"223 844 OFFCURVE",
"223 881 CURVE"
);
}
);
width = 280;
}
);
},
{
glyphname = dotaccent.case;
lastChange = "2015-05-04 20:03:53 +0000";
layers = (
{
anchors = (
{
name = _topU;
position = "{50, 680}";
}
);
layerId = "7D7A15B1-26C3-429D-8003-112E9373A587";
name = Light;
paths = (
{
closed = 1;
nodes = (
"25 768 OFFCURVE",
"10 785 OFFCURVE",
"10 806 CURVE SMOOTH",
"10 827 OFFCURVE",
"25 844 OFFCURVE",
"48 844 CURVE SMOOTH",
"69 844 OFFCURVE",
"87 827 OFFCURVE",
"87 806 CURVE SMOOTH",
"87 785 OFFCURVE",
"69 768 OFFCURVE",
"48 768 CURVE SMOOTH"
);
}
);
width = 97;
},
{
anchors = (
{
name = _topU;
position = "{59, 680}";
}
);
layerId = "601FF878-0EB3-47BC-931B-6B704884A184";
name = Bold;
paths = (
{
closed = 1;
nodes = (
"31 768 OFFCURVE",
"10 789 OFFCURVE",
"10 816 CURVE SMOOTH",
"10 841 OFFCURVE",
"31 864 OFFCURVE",
"58 864 CURVE SMOOTH",
"83 864 OFFCURVE",
"105 841 OFFCURVE",
"105 816 CURVE SMOOTH",
"105 789 OFFCURVE",
"83 768 OFFCURVE",
"58 768 CURVE SMOOTH"
);
}
);
width = 115;
}
);
},
{
glyphname = ring.case;
lastChange = "2015-05-04 18:40:54 +0000";
layers = (
{
anchors = (
{
name = _topU;
position = "{101, 680}";
}
);
layerId = "7D7A15B1-26C3-429D-8003-112E9373A587";
name = Light;
paths = (
{
closed = 1;
nodes = (
"147 909 OFFCURVE",
"187 873 OFFCURVE",
"187 825 CURVE SMOOTH",
"187 778 OFFCURVE",
"147 744 OFFCURVE",
"99 744 CURVE SMOOTH",
"51 744 OFFCURVE",
"10 778 OFFCURVE",
"10 825 CURVE SMOOTH",
"10 873 OFFCURVE",
"51 909 OFFCURVE",
"99 909 CURVE SMOOTH"
);
},
{
closed = 1;
nodes = (
"128 774 OFFCURVE",
"148 796 OFFCURVE",
"148 825 CURVE SMOOTH",
"148 856 OFFCURVE",
"128 878 OFFCURVE",
"99 878 CURVE SMOOTH",
"70 878 OFFCURVE",
"49 856 OFFCURVE",
"49 825 CURVE SMOOTH",
"49 796 OFFCURVE",
"70 774 OFFCURVE",
"99 774 CURVE SMOOTH"
);
}
);
width = 197;
},
{
anchors = (
{
name = _topU;
position = "{98, 680}";
}
);
layerId = "601FF878-0EB3-47BC-931B-6B704884A184";
name = Bold;
paths = (
{
closed = 1;
nodes = (
"147 909 OFFCURVE",
"187 873 OFFCURVE",
"187 825 CURVE SMOOTH",
"187 778 OFFCURVE",
"147 744 OFFCURVE",
"99 744 CURVE SMOOTH",
"51 744 OFFCURVE",
"10 778 OFFCURVE",
"10 825 CURVE SMOOTH",
"10 873 OFFCURVE",
"51 909 OFFCURVE",
"99 909 CURVE SMOOTH"
);
},
{
closed = 1;
nodes = (
"123 783 OFFCURVE",
"143 801 OFFCURVE",
"143 825 CURVE SMOOTH",
"143 850 OFFCURVE",
"123 869 OFFCURVE",
"99 869 CURVE SMOOTH",
"75 869 OFFCURVE",
"55 850 OFFCURVE",
"55 825 CURVE SMOOTH",
"55 801 OFFCURVE",
"75 783 OFFCURVE",
"99 783 CURVE SMOOTH"
);
}
);
width = 197;
}
);
},
{
glyphname = tilde.case;
lastChange = "2015-05-04 18:40:54 +0000";
layers = (
{
anchors = (
{
name = _topU;
position = "{155, 680}";
}
);
layerId = "7D7A15B1-26C3-429D-8003-112E9373A587";
name = Light;
paths = (
{
closed = 1;
nodes = (
"289 849 LINE",
"289 786 OFFCURVE",
"251 758 OFFCURVE",
"206 758 CURVE SMOOTH",
"183 758 OFFCURVE",
"163 768 OFFCURVE",
"146 787 CURVE SMOOTH",
"128 806 OFFCURVE",
"111 815 OFFCURVE",
"94 815 CURVE SMOOTH",
"65 815 OFFCURVE",
"52 793 OFFCURVE",
"49 762 CURVE",
"10 762 LINE",
"10 825 OFFCURVE",
"48 853 OFFCURVE",
"93 853 CURVE SMOOTH",
"121 853 OFFCURVE",
"143 844 OFFCURVE",
"158 825 CURVE SMOOTH",
"173 806 OFFCURVE",
"189 796 OFFCURVE",
"206 796 CURVE SMOOTH",
"234 796 OFFCURVE",
"248 818 OFFCURVE",
"251 849 CURVE"
);
}
);
width = 299;
},
{
anchors = (
{
name = _topU;
position = "{157, 680}";
}
);
layerId = "601FF878-0EB3-47BC-931B-6B704884A184";
name = Bold;
paths = (
{
closed = 1;
nodes = (
"290 849 LINE",
"290 780 OFFCURVE",
"253 758 OFFCURVE",
"206 758 CURVE SMOOTH",
"183 758 OFFCURVE",
"163 766 OFFCURVE",
"146 782 CURVE SMOOTH",
"128 798 OFFCURVE",
"111 806 OFFCURVE",
"94 806 CURVE SMOOTH",
"77 806 OFFCURVE",
"58 793 OFFCURVE",
"55 762 CURVE",
"10 762 LINE",
"10 833 OFFCURVE",
"48 853 OFFCURVE",
"93 853 CURVE SMOOTH",
"121 853 OFFCURVE",
"143 845 OFFCURVE",
"158 830 CURVE SMOOTH",
"173 814 OFFCURVE",
"189 806 OFFCURVE",
"206 806 CURVE SMOOTH",
"223 806 OFFCURVE",
"241 818 OFFCURVE",
"244 849 CURVE"
);
}
);
width = 300;
}
);
},
{
glyphname = hungarumlaut.case;
lastChange = "2015-05-04 18:40:54 +0000";
layers = (
{
anchors = (
{
name = _topU;
position = "{102, 680}";
}
);
layerId = "7D7A15B1-26C3-429D-8003-112E9373A587";
name = Light;
paths = (
{
closed = 1;
nodes = (
"10 750 LINE",
"66 892 LINE",
"127 892 LINE",
"42 739 LINE"
);
},
{
closed = 1;
nodes = (
"138 750 LINE",
"194 892 LINE",
"255 892 LINE",
"170 739 LINE"
);
}
);
width = 265;
},
{
anchors = (
{
name = _topU;
position = "{115, 680}";
}
);
layerId = "601FF878-0EB3-47BC-931B-6B704884A184";
name = Bold;
paths = (
{
closed = 1;
nodes = (
"10 752 LINE",
"64 892 LINE",
"135 892 LINE",
"50 739 LINE"
);
},
{
closed = 1;
nodes = (
"150 752 LINE",
"204 892 LINE",
"275 892 LINE",
"190 739 LINE"
);
}
);
width = 285;
}
);
},
{
glyphname = Thorn;
lastChange = "2015-05-04 18:53:09 +0000";
layers = (
{
layerId = "7D7A15B1-26C3-429D-8003-112E9373A587";
name = Light;
paths = (
{
closed = 1;
nodes = (
"149 600 LINE",
"149 680 LINE",
"100 680 LINE",
"100 0 LINE",
"149 0 LINE",
"149 184 LINE",
"252 184 LINE SMOOTH",
"393 184 OFFCURVE",
"508 248 OFFCURVE",
"508 395 CURVE SMOOTH",
"508 543 OFFCURVE",
"404 600 OFFCURVE",
"263 600 CURVE SMOOTH"
);
},
{
closed = 1;
nodes = (
"149 223 LINE",
"149 560 LINE",
"275 560 LINE SMOOTH",
"384 560 OFFCURVE",
"458 511 OFFCURVE",
"458 394 CURVE SMOOTH",
"458 281 OFFCURVE",
"371 223 OFFCURVE",
"264 223 CURVE SMOOTH"
);
}
);
width = 548;
},
{
layerId = "601FF878-0EB3-47BC-931B-6B704884A184";
name = Bold;
paths = (
{
closed = 1;
nodes = (
"157 600 LINE",
"157 680 LINE",
"95 680 LINE",
"95 0 LINE",
"157 0 LINE",
"157 184 LINE",
"260 184 LINE SMOOTH",
"401 184 OFFCURVE",
"515 248 OFFCURVE",
"516 395 CURVE SMOOTH",
"516 543 OFFCURVE",
"412 600 OFFCURVE",
"271 600 CURVE SMOOTH"
);
},
{
closed = 1;
nodes = (
"157 237 LINE",
"157 547 LINE",
"273 547 LINE SMOOTH",
"382 547 OFFCURVE",
"453 511 OFFCURVE",
"453 394 CURVE SMOOTH",
"452 281 OFFCURVE",
"369 237 OFFCURVE",
"262 237 CURVE SMOOTH"
);
}
);
width = 551;
}
);
unicode = 00DE;
},
{
glyphname = Eth;
lastChange = "2015-05-04 18:40:54 +0000";
layers = (
{
layerId = "7D7A15B1-26C3-429D-8003-112E9373A587";
name = Light;
paths = (
{
closed = 1;
nodes = (
"20 314 LINE",
"10 353 LINE",
"258 353 LINE",
"268 314 LINE"
);
},
{
closed = 1;
nodes = (
"100 0 LINE",
"100 680 LINE",
"324 680 LINE SMOOTH",
"533 680 OFFCURVE",
"612 529 OFFCURVE",
"612 344 CURVE SMOOTH",
"612 155 OFFCURVE",
"520 0 OFFCURVE",
"321 0 CURVE SMOOTH"
);
},
{
closed = 1;
nodes = (
"149 641 LINE",
"149 39 LINE",
"322 39 LINE SMOOTH",
"465 39 OFFCURVE",
"561 168 OFFCURVE",
"561 343 CURVE SMOOTH",
"561 504 OFFCURVE",
"487 641 OFFCURVE",
"332 641 CURVE SMOOTH"
);
}
);
width = 662;
},
{
layerId = "601FF878-0EB3-47BC-931B-6B704884A184";
name = Bold;
paths = (
{
closed = 1;
nodes = (
"29 309 LINE",
"21 359 LINE",
"269 359 LINE",
"277 309 LINE"
);
},
{
closed = 1;
nodes = (
"95 0 LINE",
"95 680 LINE",
"327 680 LINE SMOOTH",
"536 680 OFFCURVE",
"619 529 OFFCURVE",
"619 344 CURVE SMOOTH",
"619 155 OFFCURVE",
"517 0 OFFCURVE",
"318 0 CURVE SMOOTH"
);
},
{
closed = 1;
nodes = (
"157 627 LINE",
"157 52 LINE",
"320 52 LINE SMOOTH",
"463 52 OFFCURVE",
"559 168 OFFCURVE",
"559 343 CURVE SMOOTH",
"559 504 OFFCURVE",
"485 627 OFFCURVE",
"330 627 CURVE SMOOTH"
);
}
);
width = 664;
}
);
unicode = 00D0;
},
{
glyphname = AE;
lastChange = "2015-05-04 19:56:15 +0000";
layers = (
{
layerId = "7D7A15B1-26C3-429D-8003-112E9373A587";
name = Light;
paths = (
{
closed = 1;
nodes = (
"434 213 LINE",
"190 213 LINE",
"60 -5 LINE",
"10 5 LINE",
"426 680 LINE",
"781 680 LINE",
"786 641 LINE",
"483 641 LINE",
"483 368 LINE",
"723 368 LINE",
"728 329 LINE",
"483 329 LINE",
"483 39 LINE",
"803 39 LINE",
"809 0 LINE",
"434 0 LINE"
);
},
{
closed = 1;
nodes = (
"214 252 LINE",
"434 252 LINE",
"434 611 LINE"
);
}
);
width = 829;
},
{
layerId = "601FF878-0EB3-47BC-931B-6B704884A184";
name = Bold;
paths = (
{
closed = 1;
nodes = (
"434 204 LINE",
"193 204 LINE",
"67 -5 LINE",
"10 5 LINE",
"426 680 LINE",
"796 680 LINE",
"802 635 LINE",
"497 635 LINE",
"497 371 LINE",
"736 371 LINE",
"742 326 LINE",
"497 326 LINE",
"497 50 LINE",
"818 50 LINE",
"822 0 LINE",
"434 0 LINE"
);
},
{
closed = 1;
nodes = (
"224 254 LINE",
"434 254 LINE",
"434 595 LINE"
);
}
);
width = 842;
}
);
unicode = 00C6;
},
{
glyphname = Dcroat;
lastChange = "2015-05-04 18:40:54 +0000";
layers = (
{
layerId = "7D7A15B1-26C3-429D-8003-112E9373A587";
name = Light;
paths = (
{
closed = 1;
nodes = (
"20 314 LINE",
"10 353 LINE",
"258 353 LINE",
"268 314 LINE"
);
},
{
closed = 1;
nodes = (
"100 0 LINE",
"100 680 LINE",
"324 680 LINE SMOOTH",
"533 680 OFFCURVE",
"612 529 OFFCURVE",
"612 344 CURVE SMOOTH",
"612 155 OFFCURVE",
"520 0 OFFCURVE",
"321 0 CURVE SMOOTH"
);
},
{
closed = 1;
nodes = (
"149 641 LINE",
"149 39 LINE",
"322 39 LINE SMOOTH",
"465 39 OFFCURVE",
"561 168 OFFCURVE",
"561 343 CURVE SMOOTH",
"561 504 OFFCURVE",
"487 641 OFFCURVE",
"332 641 CURVE SMOOTH"
);
}
);
width = 662;
},
{
layerId = "601FF878-0EB3-47BC-931B-6B704884A184";
name = Bold;
paths = (
{
closed = 1;
nodes = (
"29 309 LINE",
"21 359 LINE",
"269 359 LINE",
"277 309 LINE"
);
},
{
closed = 1;
nodes = (
"95 0 LINE",
"95 680 LINE",
"327 680 LINE SMOOTH",
"536 680 OFFCURVE",
"619 529 OFFCURVE",
"619 344 CURVE SMOOTH",
"619 155 OFFCURVE",
"517 0 OFFCURVE",
"318 0 CURVE SMOOTH"
);
},
{
closed = 1;
nodes = (
"157 627 LINE",
"157 52 LINE",
"320 52 LINE SMOOTH",
"463 52 OFFCURVE",
"559 168 OFFCURVE",
"559 343 CURVE SMOOTH",
"559 504 OFFCURVE",
"485 627 OFFCURVE",
"330 627 CURVE SMOOTH"
);
}
);
width = 664;
}
);
unicode = 0110;
},
{
glyphname = Lslash;
lastChange = "2015-05-04 18:55:20 +0000";
layers = (
{
layerId = "7D7A15B1-26C3-429D-8003-112E9373A587";
name = Light;
paths = (
{
closed = 1;
nodes = (
"481 0 LINE",
"476 39 LINE",
"149 39 LINE",
"149 321.904 LINE",
"281 438 LINE",
"259 472 LINE",
"149 376.137 LINE",
"149 680 LINE",
"100 680 LINE",
"100 333.434 LINE",
"10 255 LINE",
"32 219 LINE",
"100 278.807 LINE",
"100 0 LINE"
);
}
);
width = 491;
},
{
layerId = "601FF878-0EB3-47BC-931B-6B704884A184";
name = Bold;
paths = (
{
closed = 1;
nodes = (
"477 0 LINE",
"472 50 LINE",
"147 50 LINE",
"147 305.711 LINE",
"294 435 LINE",
"264 472 LINE",
"147 370.036 LINE",
"147 680 LINE",
"85 680 LINE",
"85 316.004 LINE",
"15 255 LINE",
"45 216 LINE",
"85 251.181 LINE",
"85 0 LINE"
);
}
);
width = 487;
}
);
unicode = 0141;
},
{
glyphname = OE;
lastChange = "2015-05-04 18:40:54 +0000";
layers = (
{
layerId = "7D7A15B1-26C3-429D-8003-112E9373A587";
name = Light;
paths = (
{
closed = 1;
nodes = (
"503 621 LINE",
"462 638 OFFCURVE",
"430 651 OFFCURVE",
"358 651 CURVE SMOOTH",
"215 650 OFFCURVE",
"105 529 OFFCURVE",
"105 337 CURVE SMOOTH",
"105 174 OFFCURVE",
"194 29 OFFCURVE",
"349 29 CURVE SMOOTH",
"421 29 OFFCURVE",
"463 43 OFFCURVE",
"499 59 CURVE",
"523 23 LINE",
"486 3 OFFCURVE",
"411 -14 OFFCURVE",
"354 -14 CURVE SMOOTH",
"146 -14 OFFCURVE",
"50 151 OFFCURVE",
"50 336 CURVE SMOOTH",
"50 535 OFFCURVE",
"164 694 OFFCURVE",
"360 694 CURVE SMOOTH",
"401 694 OFFCURVE",
"486 682 OFFCURVE",
"523 657 CURVE"
);
},
{
closed = 1;
nodes = (
"497 0 LINE",
"497 680 LINE",
"844 680 LINE",
"849 641 LINE",
"546 641 LINE",
"546 368 LINE",
"786 368 LINE",
"791 329 LINE",
"546 329 LINE",
"546 39 LINE",
"866 39 LINE",
"872 0 LINE"
);
}
);
width = 892;
},
{
layerId = "601FF878-0EB3-47BC-931B-6B704884A184";
name = Bold;
paths = (
{
closed = 1;
nodes = (
"509 611 LINE",
"468 628 OFFCURVE",
"436 640 OFFCURVE",
"364 640 CURVE SMOOTH",
"221 639 OFFCURVE",
"111 512 OFFCURVE",
"111 337 CURVE SMOOTH",
"111 174 OFFCURVE",
"200 41 OFFCURVE",
"355 41 CURVE SMOOTH",
"427 41 OFFCURVE",
"469 55 OFFCURVE",
"505 71 CURVE",
"529 23 LINE",
"492 3 OFFCURVE",
"414 -14 OFFCURVE",
"357 -14 CURVE SMOOTH",
"149 -14 OFFCURVE",
"45 151 OFFCURVE",
"45 336 CURVE SMOOTH",
"45 535 OFFCURVE",
"167 694 OFFCURVE",
"363 694 CURVE SMOOTH",
"404 694 OFFCURVE",
"492 682 OFFCURVE",
"529 657 CURVE"
);
},
{
closed = 1;
nodes = (
"503 0 LINE",
"503 680 LINE",
"863 680 LINE",
"868 635 LINE",
"565 635 LINE",
"565 371 LINE",
"805 371 LINE",
"810 326 LINE",
"565 326 LINE",
"565 50 LINE",
"885 50 LINE",
"891 0 LINE"
);
}
);
width = 911;
}
);
unicode = 0152;
},
{
glyphname = Oslash;
lastChange = "2015-05-04 18:40:54 +0000";
layers = (
{
layerId = "7D7A15B1-26C3-429D-8003-112E9373A587";
name = Light;
paths = (
{
closed = 1;
nodes = (
"251 37 LINE",
"207 58 LINE",
"456 642 LINE",
"504 629 LINE"
);
},
{
closed = 1;
nodes = (
"531 696 OFFCURVE",
"657 549 OFFCURVE",
"657 345 CURVE SMOOTH",
"657 137 OFFCURVE",
"528 -14 OFFCURVE",
"351 -14 CURVE SMOOTH",
"176 -14 OFFCURVE",
"50 133 OFFCURVE",
"50 337 CURVE SMOOTH",
"50 545 OFFCURVE",
"179 696 OFFCURVE",
"357 696 CURVE SMOOTH"
);
},
{
closed = 1;
nodes = (
"105 158 OFFCURVE",
"207 27 OFFCURVE",
"349 27 CURVE SMOOTH",
"496 27 OFFCURVE",
"602 160 OFFCURVE",
"602 344 CURVE SMOOTH",
"602 524 OFFCURVE",
"500 654 OFFCURVE",
"358 654 CURVE SMOOTH",
"211 654 OFFCURVE",
"105 521 OFFCURVE",
"105 338 CURVE SMOOTH"
);
}
);
width = 707;
},
{
layerId = "601FF878-0EB3-47BC-931B-6B704884A184";
name = Bold;
paths = (
{
closed = 1;
nodes = (
"259 37 LINE",
"209 61 LINE",
"456 624 LINE",
"503 597 LINE"
);
},
{
closed = 1;
nodes = (
"545 696 OFFCURVE",
"676 549 OFFCURVE",
"676 345 CURVE SMOOTH",
"676 140 OFFCURVE",
"542 -11 OFFCURVE",
"357 -14 CURVE SMOOTH",
"176 -14 OFFCURVE",
"45 133 OFFCURVE",
"45 337 CURVE SMOOTH",
"45 541 OFFCURVE",
"179 692 OFFCURVE",
"363 696 CURVE SMOOTH"
);
},
{
closed = 1;
nodes = (
"111 166 OFFCURVE",
"213 41 OFFCURVE",
"355 41 CURVE SMOOTH",
"502 41 OFFCURVE",
"608 168 OFFCURVE",
"608 344 CURVE SMOOTH",
"608 516 OFFCURVE",
"506 640 OFFCURVE",
"364 640 CURVE SMOOTH",
"217 640 OFFCURVE",
"111 513 OFFCURVE",
"111 338 CURVE SMOOTH"
);
}
);
width = 721;
}
);
unicode = 00D8;
},
{
glyphname = germandbls;
lastChange = "2015-05-04 18:40:54 +0000";
layers = (
{
layerId = "7D7A15B1-26C3-429D-8003-112E9373A587";
name = Light;
paths = (
{
closed = 1;
nodes = (
"80 473 LINE SMOOTH",
"80 602 OFFCURVE",
"152 680 OFFCURVE",
"276 680 CURVE SMOOTH",
"380 680 OFFCURVE",
"465 619 OFFCURVE",
"465 503 CURVE SMOOTH",
"465 432 OFFCURVE",
"429 381 OFFCURVE",
"369 356 CURVE",
"441 336 OFFCURVE",
"499 275 OFFCURVE",
"499 188 CURVE SMOOTH",
"499 45 OFFCURVE",
"384 0 OFFCURVE",
"243 0 CURVE SMOOTH",
"205 0 LINE",
"205 39 LINE",
"256 39 LINE SMOOTH",
"363 39 OFFCURVE",
"447 81 OFFCURVE",
"447 186 CURVE SMOOTH",
"447 287 OFFCURVE",
"375 333 OFFCURVE",
"266 333 CURVE SMOOTH",
"221 333 LINE",
"221 372 LINE",
"248 372 LINE SMOOTH",
"368 372 OFFCURVE",
"413 418 OFFCURVE",
"413 502 CURVE SMOOTH",
"413 590 OFFCURVE",
"351 639 OFFCURVE",
"279 639 CURVE SMOOTH",
"180 639 OFFCURVE",
"130 564 OFFCURVE",
"130 473 CURVE SMOOTH",
"130 0 LINE",
"80 0 LINE"
);
}
);
width = 544;
},
{
layerId = "601FF878-0EB3-47BC-931B-6B704884A184";
name = Bold;
paths = (
{
closed = 1;
nodes = (
"75 473 LINE SMOOTH",
"75 608 OFFCURVE",
"164 680 OFFCURVE",
"288 680 CURVE SMOOTH",
"392 680 OFFCURVE",
"482 623 OFFCURVE",
"482 503 CURVE SMOOTH",
"482 432 OFFCURVE",
"453 384 OFFCURVE",
"397 356 CURVE",
"469 327 OFFCURVE",
"517 275 OFFCURVE",
"517 188 CURVE SMOOTH",
"517 45 OFFCURVE",
"402 0 OFFCURVE",
"261 0 CURVE SMOOTH",
"212 0 LINE",
"212 52 LINE",
"263 52 LINE SMOOTH",
"370 52 OFFCURVE",
"454 81 OFFCURVE",
"454 186 CURVE SMOOTH",
"454 287 OFFCURVE",
"382 327 OFFCURVE",
"273 327 CURVE SMOOTH",
"228 327 LINE",
"228 378 LINE",
"255 378 LINE SMOOTH",
"375 378 OFFCURVE",
"420 418 OFFCURVE",
"420 502 CURVE SMOOTH",
"420 590 OFFCURVE",
"358 627 OFFCURVE",
"286 627 CURVE SMOOTH",
"187 627 OFFCURVE",
"137 564 OFFCURVE",
"137 473 CURVE SMOOTH",
"137 0 LINE",
"75 0 LINE"
);
}
);
width = 557;
}
);
unicode = 00DF;
},
{
glyphname = eth;
lastChange = "2015-05-04 18:40:54 +0000";
layers = (
{
layerId = "7D7A15B1-26C3-429D-8003-112E9373A587";
name = Light;
paths = (
{
closed = 1;
nodes = (
"483 96 OFFCURVE",
"401 -12 OFFCURVE",
"259 -13 CURVE SMOOTH",
"115 -12 OFFCURVE",
"40 95 OFFCURVE",
"40 245 CURVE SMOOTH",
"40 389 OFFCURVE",
"122 497 OFFCURVE",
"265 498 CURVE SMOOTH",
"348 497 OFFCURVE",
"396 461 OFFCURVE",
"444 402 CURVE",
"422 381 LINE",
"379 427 OFFCURVE",
"324 457 OFFCURVE",
"264 457 CURVE SMOOTH",
"157 457 OFFCURVE",
"91 359 OFFCURVE",
"91 246 CURVE SMOOTH",
"91 127 OFFCURVE",
"150 28 OFFCURVE",
"259 28 CURVE SMOOTH",
"366 28 OFFCURVE",
"432 126 OFFCURVE",
"432 239 CURVE SMOOTH",
"432 423 OFFCURVE",
"355 606 OFFCURVE",
"101 718 CURVE",
"114 750 LINE",
"369 649 OFFCURVE",
"483 465 OFFCURVE",
"483 240 CURVE SMOOTH"
);
},
{
closed = 1;
nodes = (
"90 610 LINE",
"358 742 LINE",
"376 707 LINE",
"109 572 LINE"
);
}
);
width = 523;
},
{
layerId = "601FF878-0EB3-47BC-931B-6B704884A184";
name = Bold;
paths = (
{
closed = 1;
nodes = (
"492 96 OFFCURVE",
"403 -11 OFFCURVE",
"258 -13 CURVE SMOOTH",
"117 -15 OFFCURVE",
"35 95 OFFCURVE",
"35 245 CURVE SMOOTH",
"36 389 OFFCURVE",
"124 498 OFFCURVE",
"267 498 CURVE SMOOTH",
"355 498 OFFCURVE",
"409 454 OFFCURVE",
"456 388 CURVE",
"424 371 LINE",
"388 420 OFFCURVE",
"330 446 OFFCURVE",
"266 446 CURVE SMOOTH",
"159 446 OFFCURVE",
"99 359 OFFCURVE",
"98 246 CURVE SMOOTH",
"98 127 OFFCURVE",
"152 39 OFFCURVE",
"261 39 CURVE SMOOTH",
"368 39 OFFCURVE",
"428 126 OFFCURVE",
"429 239 CURVE SMOOTH",
"429 423 OFFCURVE",
"379 596 OFFCURVE",
"95 708 CURVE",
"113 750 LINE",
"398 649 OFFCURVE",
"492 465 OFFCURVE",
"492 240 CURVE SMOOTH"
);
},
{
closed = 1;
nodes = (
"90 610 LINE",
"358 742 LINE",
"383 705 LINE",
"116 570 LINE"
);
}
);
width = 527;
}
);
unicode = 00F0;
},
{
glyphname = thorn;
lastChange = "2015-05-04 18:40:54 +0000";
layers = (
{
layerId = "7D7A15B1-26C3-429D-8003-112E9373A587";
name = Light;
paths = (
{
closed = 1;
nodes = (
"205.927 498 OFFCURVE",
"161.261 477.954 OFFCURVE",
"125 445.663 CURVE",
"125 706 LINE",
"76 696 LINE",
"76 -219 LINE",
"125 -208 LINE",
"125 33.3935 LINE",
"158.128 9.8008 OFFCURVE",
"206.125 -13 OFFCURVE",
"252 -13 CURVE SMOOTH",
"395 -13 OFFCURVE",
"468 95 OFFCURVE",
"468 240 CURVE SMOOTH",
"468 391 OFFCURVE",
"402 498 OFFCURVE",
"259 498 CURVE SMOOTH"
);
},
{
closed = 1;
nodes = (
"198.949 28 OFFCURVE",
"156.929 54.0634 OFFCURVE",
"125 82.6683 CURVE",
"125 391.503 LINE",
"158.58 427.965 OFFCURVE",
"195.18 457 OFFCURVE",
"259 457 CURVE SMOOTH",
"368 457 OFFCURVE",
"417 358 OFFCURVE",
"417 239 CURVE SMOOTH",
"417 126 OFFCURVE",
"361 28 OFFCURVE",
"254 28 CURVE SMOOTH"
);
}
);
width = 508;
},
{
layerId = "601FF878-0EB3-47BC-931B-6B704884A184";
name = Bold;
paths = (
{
closed = 1;
nodes = (
"213.066 498 OFFCURVE",
"168.998 480.236 OFFCURVE",
"133 451.648 CURVE",
"133 706 LINE",
"71 696 LINE",
"71 -219 LINE",
"133 -208 LINE",
"133 34.81 LINE",
"166.61 8.8635 OFFCURVE",
"207.205 -13 OFFCURVE",
"256 -13 CURVE SMOOTH",
"399 -13 OFFCURVE",
"480 97 OFFCURVE",
"481 242 CURVE SMOOTH",
"481 393 OFFCURVE",
"403 498 OFFCURVE",
"260 498 CURVE SMOOTH"
);
},
{
closed = 1;
nodes = (
"198.881 39 OFFCURVE",
"163.054 64.0523 OFFCURVE",
"133 91.0059 CURVE",
"133 389.025 LINE",
"165.465 422.339 OFFCURVE",
"204.162 446 OFFCURVE",
"261 446 CURVE SMOOTH",
"370 446 OFFCURVE",
"418 360 OFFCURVE",
"418 241 CURVE SMOOTH",
"417 128 OFFCURVE",
"366 39 OFFCURVE",
"259 39 CURVE SMOOTH"
);
}
);
width = 516;
}
);
unicode = 00FE;
},
{
glyphname = florin;
lastChange = "2015-05-04 18:54:03 +0000";
layers = (
{
layerId = "7D7A15B1-26C3-429D-8003-112E9373A587";
name = Light;
paths = (
{
closed = 1;
nodes = (
"122 470 LINE",
"122 563 LINE SMOOTH",
"122 647 OFFCURVE",
"155 702 OFFCURVE",
"227 702 CURVE SMOOTH",
"254 702 OFFCURVE",
"280 694 OFFCURVE",
"293 689 CURVE",
"281 652 LINE",
"273 656 OFFCURVE",
"253 661 OFFCURVE",
"240 661 CURVE SMOOTH",
"189 661 OFFCURVE",
"171 627 OFFCURVE",
"171 579 CURVE SMOOTH",
"171 470 LINE",
"259 470 LINE",
"280 433 LINE",
"171 433 LINE",
"171 73 LINE SMOOTH",
"171 -11 OFFCURVE",
"138 -66 OFFCURVE",
"66 -66 CURVE SMOOTH",
"39 -66 OFFCURVE",
"13 -58 OFFCURVE",
"0 -53 CURVE",
"12 -16 LINE",
"20 -20 OFFCURVE",
"40 -25 OFFCURVE",
"53 -25 CURVE SMOOTH",
"104 -25 OFFCURVE",
"122 9 OFFCURVE",
"122 57 CURVE SMOOTH",
"122 433 LINE",
"49 433 LINE",
"49 470 LINE"
);
}
);
width = 293;
},
{
layerId = "601FF878-0EB3-47BC-931B-6B704884A184";
name = Bold;
paths = (
{
closed = 1;
nodes = (
"121 475 LINE",
"121 563 LINE SMOOTH",
"121 647 OFFCURVE",
"167 702 OFFCURVE",
"239 702 CURVE SMOOTH",
"266 702 OFFCURVE",
"292 694 OFFCURVE",
"305 689 CURVE",
"293 636 LINE",
"285 640 OFFCURVE",
"265 645 OFFCURVE",
"252 645 CURVE SMOOTH",
"201 645 OFFCURVE",
"183 611 OFFCURVE",
"183 563 CURVE SMOOTH",
"183 475 LINE",
"271 475 LINE",
"292 428 LINE",
"183 428 LINE",
"183 74 LINE SMOOTH",
"183 -10 OFFCURVE",
"138 -65 OFFCURVE",
"67 -65 CURVE SMOOTH",
"39 -65 OFFCURVE",
"12 -57 OFFCURVE",
"0 -53 CURVE",
"11 0 LINE",
"19 -4 OFFCURVE",
"39 -9 OFFCURVE",
"51 -9 CURVE SMOOTH",
"103 -9 OFFCURVE",
"121 24 OFFCURVE",
"121 73 CURVE SMOOTH",
"121 428 LINE",
"49 428 LINE",
"48 475 LINE"
);
}
);
width = 305;
}
);
unicode = 0192;
},
{
glyphname = ae;
lastChange = "2015-05-04 18:40:54 +0000";
layers = (
{
layerId = "7D7A15B1-26C3-429D-8003-112E9373A587";
name = Light;
paths = (
{
closed = 1;
nodes = (
"229 244 LINE SMOOTH",
"141 244 OFFCURVE",
"103 196 OFFCURVE",
"103 136 CURVE SMOOTH",
"103 76 OFFCURVE",
"147 28 OFFCURVE",
"219 28 CURVE SMOOTH",
"316 28 OFFCURVE",
"361 86 OFFCURVE",
"392 151 CURVE",
"408 102 LINE",
"375 34 OFFCURVE",
"323 -13 OFFCURVE",
"215 -13 CURVE SMOOTH",
"106 -13 OFFCURVE",
"52 52 OFFCURVE",
"52 136 CURVE SMOOTH",
"52 228 OFFCURVE",
"124 281 OFFCURVE",
"225 281 CURVE SMOOTH",
"360 281 LINE",
"360 341 LINE SMOOTH",
"360 408 OFFCURVE",
"323 457 OFFCURVE",
"244 457 CURVE SMOOTH",
"179 457 OFFCURVE",
"145 442 OFFCURVE",
"105 423 CURVE",
"86 456 LINE",
"123 481 OFFCURVE",
"201 498 OFFCURVE",
"241 498 CURVE SMOOTH",
"352 498 OFFCURVE",
"409 435 OFFCURVE",
"409 340 CURVE SMOOTH",
"360 244 LINE"
);
},
{
closed = 1;
nodes = (
"406 242 LINE",
"407 126 OFFCURVE",
"457 28 OFFCURVE",
"577 28 CURVE SMOOTH",
"648 28 OFFCURVE",
"687 45 OFFCURVE",
"720 62 CURVE",
"740 25 LINE",
"700 0 OFFCURVE",
"624 -13 OFFCURVE",
"585 -13 CURVE SMOOTH",
"426 -13 OFFCURVE",
"355 94 OFFCURVE",
"355 245 CURVE SMOOTH",
"355 390 OFFCURVE",
"424 498 OFFCURVE",
"567 498 CURVE SMOOTH",
"679 498 OFFCURVE",
"755 390 OFFCURVE",
"755 242 CURVE"
);
},
{
closed = 1;
nodes = (
"703 279 LINE",
"694 374 OFFCURVE",
"656 457 OFFCURVE",
"560 457 CURVE SMOOTH",
"464 457 OFFCURVE",
"417 374 OFFCURVE",
"408 279 CURVE"
);
}
);
width = 795;
},
{
layerId = "601FF878-0EB3-47BC-931B-6B704884A184";
name = Bold;
paths = (
{
closed = 1;
nodes = (
"223 240 LINE SMOOTH",
"151 240 OFFCURVE",
"113 192 OFFCURVE",
"113 136 CURVE SMOOTH",
"113 91 OFFCURVE",
"141 38 OFFCURVE",
"213 38 CURVE SMOOTH",
"331 38 OFFCURVE",
"360 107 OFFCURVE",
"393 148 CURVE",
"422 102 LINE",
"391 70 OFFCURVE",
"336 -13 OFFCURVE",
"215 -13 CURVE SMOOTH",
"106 -13 OFFCURVE",
"52 52 OFFCURVE",
"52 136 CURVE SMOOTH",
"52 228 OFFCURVE",
"124 282 OFFCURVE",
"225 281 CURVE SMOOTH",
"360 281 LINE",
"360 330 LINE SMOOTH",
"360 397 OFFCURVE",
"323 446 OFFCURVE",
"244 446 CURVE SMOOTH",
"173 446 OFFCURVE",
"140 428 OFFCURVE",
"105 412 CURVE",
"86 456 LINE",
"123 481 OFFCURVE",
"201 498 OFFCURVE",
"241 498 CURVE SMOOTH",
"352 498 OFFCURVE",
"422 435 OFFCURVE",
"422 340 CURVE SMOOTH",
"422 240 LINE"
);
},
{
closed = 1;
nodes = (
"422 240 LINE",
"423 124 OFFCURVE",
"472 38 OFFCURVE",
"602 38 CURVE SMOOTH",
"658 38 OFFCURVE",
"704 54 OFFCURVE",
"754 80 CURVE",
"775 34 LINE",
"728 9 OFFCURVE",
"681 -12 OFFCURVE",
"605 -12 CURVE SMOOTH",
"436 -12 OFFCURVE",
"359 95 OFFCURVE",
"359 246 CURVE SMOOTH",
"360 391 OFFCURVE",
"436 499 OFFCURVE",
"579 499 CURVE SMOOTH",
"722 499 OFFCURVE",
"782 388 OFFCURVE",
"782 240 CURVE"
);
},
{
closed = 1;
nodes = (
"719 283 LINE",
"710 378 OFFCURVE",
"672 447 OFFCURVE",
"576 447 CURVE SMOOTH",
"480 447 OFFCURVE",
"433 378 OFFCURVE",
"424 283 CURVE"
);
}
);
width = 817;
}
);
unicode = 00E6;
},
{
glyphname = dcroat;
lastChange = "2015-05-04 19:56:39 +0000";
layers = (
{
layerId = "7D7A15B1-26C3-429D-8003-112E9373A587";
name = Light;
paths = (
{
closed = 1;
nodes = (
"353 60 OFFCURVE",
"316 28 OFFCURVE",
"249 28 CURVE SMOOTH",
"140 28 OFFCURVE",
"91 127 OFFCURVE",
"91 246 CURVE SMOOTH",
"91 359 OFFCURVE",
"147 457 OFFCURVE",
"254 457 CURVE SMOOTH",
"315 457 OFFCURVE",
"360 425 OFFCURVE",
"393 393 CURVE",
"413 426 LINE",
"386 455 OFFCURVE",
"319 498 OFFCURVE",
"256 498 CURVE SMOOTH",
"113 498 OFFCURVE",
"40 390 OFFCURVE",
"40 245 CURVE SMOOTH",
"40 94 OFFCURVE",
"106 -13 OFFCURVE",
"249 -13 CURVE SMOOTH",
"315 -13 OFFCURVE",
"368 18 OFFCURVE",
"408 65 CURVE",
"388 99 LINE"
);
},
{
closed = 1;
nodes = (
"500 580 LINE",
"490 615 LINE",
"432 615 LINE",
"432 705 LINE",
"383 696 LINE",
"383 615 LINE",
"242 615 LINE",
"252 580 LINE",
"383 580 LINE",
"383 53 LINE",
"405 0 LINE",
"432 0 LINE",
"432 580 LINE"
);
}
);
width = 512;
},
{
layerId = "601FF878-0EB3-47BC-931B-6B704884A184";
name = Bold;
paths = (
{
closed = 1;
nodes = (
"360 69 OFFCURVE",
"319 39 OFFCURVE",
"255 39 CURVE SMOOTH",
"146 39 OFFCURVE",
"98 125 OFFCURVE",
"98 244 CURVE SMOOTH",
"99 357 OFFCURVE",
"150 446 OFFCURVE",
"257 446 CURVE SMOOTH",
"326 446 OFFCURVE",
"363 413 OFFCURVE",
"396 382 CURVE",
"416 422 LINE",
"377 458 OFFCURVE",
"326 498 OFFCURVE",
"260 498 CURVE SMOOTH",
"117 498 OFFCURVE",
"36 388 OFFCURVE",
"35 243 CURVE SMOOTH",
"35 92 OFFCURVE",
"113 -13 OFFCURVE",
"256 -13 CURVE SMOOTH",
"318 -13 OFFCURVE",
"375 18 OFFCURVE",
"415 64 CURVE",
"395 109 LINE"
);
},
{
closed = 1;
nodes = (
"522 566 LINE",
"515 611 LINE",
"441 611 LINE",
"441 705 LINE",
"378 696 LINE",
"378 611 LINE",
"267 611 LINE",
"274 566 LINE",
"378 566 LINE",
"378 73 LINE",
"400 0 LINE",
"441 0 LINE",
"441 566 LINE"
);
}
);
width = 516;
}
);
unicode = 0111;
},
{
glyphname = oe;
lastChange = "2015-05-04 18:40:54 +0000";
layers = (
{
layerId = "7D7A15B1-26C3-429D-8003-112E9373A587";
name = Light;
paths = (
{
closed = 1;
nodes = (
"408 28 LINE",
"368 3 OFFCURVE",
"300 -13 OFFCURVE",
"259 -13 CURVE SMOOTH",
"116 -13 OFFCURVE",
"40 94 OFFCURVE",
"40 245 CURVE SMOOTH",
"40 390 OFFCURVE",
"123 498 OFFCURVE",
"266 498 CURVE SMOOTH",
"305 498 OFFCURVE",
"374 481 OFFCURVE",
"413 456 CURVE",
"393 423 LINE",
"360 439 OFFCURVE",
"325 457 OFFCURVE",
"264 457 CURVE SMOOTH",
"157 457 OFFCURVE",
"91 359 OFFCURVE",
"91 246 CURVE SMOOTH",
"91 127 OFFCURVE",
"150 28 OFFCURVE",
"259 28 CURVE SMOOTH",
"326 28 OFFCURVE",
"353 45 OFFCURVE",
"388 62 CURVE"
);
},
{
closed = 1;
nodes = (
"369 242 LINE",
"370 126 OFFCURVE",
"420 28 OFFCURVE",
"540 28 CURVE SMOOTH",
"611 28 OFFCURVE",
"650 45 OFFCURVE",
"683 62 CURVE",
"703 25 LINE",
"663 0 OFFCURVE",
"587 -13 OFFCURVE",
"548 -13 CURVE SMOOTH",
"389 -13 OFFCURVE",
"318 94 OFFCURVE",
"318 245 CURVE SMOOTH",
"318 390 OFFCURVE",
"387 498 OFFCURVE",
"530 498 CURVE SMOOTH",
"642 498 OFFCURVE",
"718 390 OFFCURVE",
"718 242 CURVE"
);
},
{
closed = 1;
nodes = (
"666 279 LINE",
"657 374 OFFCURVE",
"619 457 OFFCURVE",
"523 457 CURVE SMOOTH",
"427 457 OFFCURVE",
"380 374 OFFCURVE",
"371 279 CURVE"
);
}
);
width = 758;
},
{
layerId = "601FF878-0EB3-47BC-931B-6B704884A184";
name = Bold;
paths = (
{
closed = 1;
nodes = (
"415 28 LINE",
"375 3 OFFCURVE",
"303 -13 OFFCURVE",
"262 -13 CURVE SMOOTH",
"119 -13 OFFCURVE",
"35 94 OFFCURVE",
"35 245 CURVE SMOOTH",
"36 390 OFFCURVE",
"126 498 OFFCURVE",
"269 498 CURVE SMOOTH",
"308 498 OFFCURVE",
"381 481 OFFCURVE",
"420 456 CURVE",
"400 412 LINE",
"367 428 OFFCURVE",
"335 446 OFFCURVE",
"266 446 CURVE SMOOTH",
"159 446 OFFCURVE",
"99 359 OFFCURVE",
"98 246 CURVE SMOOTH",
"98 127 OFFCURVE",
"152 39 OFFCURVE",
"261 39 CURVE SMOOTH",
"332 39 OFFCURVE",
"360 56 OFFCURVE",
"395 73 CURVE"
);
},
{
closed = 1;
nodes = (
"381 239 LINE",
"382 123 OFFCURVE",
"431 37 OFFCURVE",
"561 37 CURVE SMOOTH",
"617 37 OFFCURVE",
"663 53 OFFCURVE",
"713 79 CURVE",
"734 33 LINE",
"687 8 OFFCURVE",
"640 -13 OFFCURVE",
"564 -13 CURVE SMOOTH",
"395 -13 OFFCURVE",
"318 94 OFFCURVE",
"318 245 CURVE SMOOTH",
"319 390 OFFCURVE",
"395 498 OFFCURVE",
"538 498 CURVE SMOOTH",
"681 498 OFFCURVE",
"741 387 OFFCURVE",
"741 239 CURVE"
);
},
{
closed = 1;
nodes = (
"678 282 LINE",
"669 377 OFFCURVE",
"631 446 OFFCURVE",
"535 446 CURVE SMOOTH",
"439 446 OFFCURVE",
"392 377 OFFCURVE",
"383 282 CURVE"
);
}
);
width = 776;
}
);
unicode = 0153;
},
{
glyphname = lacute;
lastChange = "2015-05-04 18:40:54 +0000";
layers = (
{
layerId = "7D7A15B1-26C3-429D-8003-112E9373A587";
name = Light;
paths = (
{
closed = 1;
nodes = (
"80 0 LINE",
"80 674 LINE",
"129 684 LINE",
"129 0 LINE"
);
},
{
closed = 1;
nodes = (
"84 750 LINE",
"140 892 LINE",
"201 892 LINE",
"116 739 LINE"
);
}
);
width = 209;
},
{
layerId = "601FF878-0EB3-47BC-931B-6B704884A184";
name = Bold;
paths = (
{
closed = 1;
nodes = (
"75 0 LINE",
"75 673 LINE",
"137 685 LINE",
"137 0 LINE"
);
},
{
closed = 1;
nodes = (
"83 752 LINE",
"137 892 LINE",
"208 892 LINE",
"123 739 LINE"
);
}
);
width = 212;
}
);
unicode = 013A;
},
{
glyphname = lslash;
lastChange = "2015-05-04 18:40:54 +0000";
layers = (
{
layerId = "7D7A15B1-26C3-429D-8003-112E9373A587";
name = Light;
paths = (
{
closed = 1;
nodes = (
"271 438 LINE",
"160 340 LINE",
"160 0 LINE",
"111 0 LINE",
"111 297 LINE",
"22 219 LINE",
"0 255 LINE",
"111 351 LINE",
"111 696 LINE",
"160 706 LINE",
"160 394 LINE",
"249 472 LINE"
);
}
);
width = 271;
},
{
layerId = "601FF878-0EB3-47BC-931B-6B704884A184";
name = Bold;
paths = (
{
closed = 1;
nodes = (
"277 455 LINE",
"170 360 LINE",
"170 0 LINE",
"108 0 LINE",
"108 306 LINE",
"30 237 LINE",
"0 276 LINE",
"108 370 LINE",
"108 696 LINE",
"170 706 LINE",
"170 424 LINE",
"248 494 LINE"
);
}
);
width = 277;
}
);
unicode = 0142;
},
{
glyphname = dotlessi;
lastChange = "2015-05-04 18:40:54 +0000";
layers = (
{
anchors = (
{
name = top;
position = "{97, 485}";
}
);
layerId = "7D7A15B1-26C3-429D-8003-112E9373A587";
name = Light;
paths = (
{
closed = 1;
nodes = (
"70 0 LINE",
"70 485 LINE",
"119 485 LINE",
"119 0 LINE"
);
}
);
width = 189;
},
{
anchors = (
{
name = top;
position = "{99, 485}";
}
);
layerId = "601FF878-0EB3-47BC-931B-6B704884A184";
name = Bold;
paths = (
{
closed = 1;
nodes = (
"65 0 LINE",
"65 485 LINE",
"128 485 LINE",
"128 0 LINE"
);
}
);
width = 193;
}
);
unicode = 0131;
},
{
glyphname = oslash;
lastChange = "2015-05-04 18:40:54 +0000";
layers = (
{
layerId = "7D7A15B1-26C3-429D-8003-112E9373A587";
name = Light;
paths = (
{
closed = 1;
nodes = (
"347 444 LINE",
"142 49 LINE",
"182 28 LINE",
"384 417 LINE"
);
},
{
closed = 1;
nodes = (
"483 390 OFFCURVE",
"408 497 OFFCURVE",
"265 498 CURVE SMOOTH",
"122 497 OFFCURVE",
"40 389 OFFCURVE",
"40 245 CURVE SMOOTH",
"40 95 OFFCURVE",
"115 -12 OFFCURVE",
"259 -13 CURVE SMOOTH",
"401 -12 OFFCURVE",
"483 96 OFFCURVE",
"483 240 CURVE SMOOTH"
);
},
{
closed = 1;
nodes = (
"150 28 OFFCURVE",
"91 127 OFFCURVE",
"91 246 CURVE SMOOTH",
"91 359 OFFCURVE",
"157 457 OFFCURVE",
"264 457 CURVE SMOOTH",
"373 457 OFFCURVE",
"432 358 OFFCURVE",
"432 239 CURVE SMOOTH",
"432 126 OFFCURVE",
"366 28 OFFCURVE",
"259 28 CURVE SMOOTH"
);
}
);
width = 523;
},
{
layerId = "601FF878-0EB3-47BC-931B-6B704884A184";
name = Bold;
paths = (
{
closed = 1;
nodes = (
"191 25 LINE",
"393 419 LINE",
"350 451 LINE",
"143 49 LINE"
);
},
{
closed = 1;
nodes = (
"492 401 OFFCURVE",
"410 498 OFFCURVE",
"267 498 CURVE SMOOTH",
"124 498 OFFCURVE",
"36 389 OFFCURVE",
"35 245 CURVE SMOOTH",
"35 95 OFFCURVE",
"117 -15 OFFCURVE",
"258 -13 CURVE SMOOTH",
"403 -11 OFFCURVE",
"492 96 OFFCURVE",
"492 240 CURVE SMOOTH"
);
},
{
closed = 1;
nodes = (
"152 39 OFFCURVE",
"98 127 OFFCURVE",
"98 246 CURVE SMOOTH",
"99 359 OFFCURVE",
"159 446 OFFCURVE",
"266 446 CURVE SMOOTH",
"375 446 OFFCURVE",
"429 358 OFFCURVE",
"429 239 CURVE SMOOTH",
"428 126 OFFCURVE",
"368 39 OFFCURVE",
"261 39 CURVE SMOOTH"
);
}
);
width = 527;
}
);
unicode = 00F8;
},
{
glyphname = dcaron;
lastChange = "2015-05-04 18:40:54 +0000";
layers = (
{
components = (
{
name = d;
transform = "{1, 0, 0, 1, 0, 0}";
}
);
layerId = "7D7A15B1-26C3-429D-8003-112E9373A587";
name = Light;
paths = (
{
closed = 1;
nodes = (
"591 702 OFFCURVE",
"606 679 OFFCURVE",
"606 659 CURVE SMOOTH",
"606 598 OFFCURVE",
"576 545 OFFCURVE",
"520 518 CURVE",
"504 543 LINE",
"539 562 OFFCURVE",
"564 589 OFFCURVE",
"565 625 CURVE",
"541 625 OFFCURVE",
"529 650 OFFCURVE",
"529 663 CURVE SMOOTH",
"529 683 OFFCURVE",
"542 702 OFFCURVE",
"567 702 CURVE SMOOTH"
);
}
);
width = 636;
},
{
components = (
{
name = d;
transform = "{1, 0, 0, 1, 0, 0}";
}
);
layerId = "601FF878-0EB3-47BC-931B-6B704884A184";
name = Bold;
paths = (
{
closed = 1;
nodes = (
"595 702 OFFCURVE",
"617 680 OFFCURVE",
"617 647 CURVE SMOOTH",
"617 587 OFFCURVE",
"574 523 OFFCURVE",
"525 498 CURVE",
"507 527 LINE",
"538 548 OFFCURVE",
"560 571 OFFCURVE",
"563 606 CURVE",
"538 609 OFFCURVE",
"521 630 OFFCURVE",
"521 654 CURVE SMOOTH",
"521 679 OFFCURVE",
"542 702 OFFCURVE",
"570 702 CURVE SMOOTH"
);
}
);
width = 647;
}
);
unicode = 010F;
},
{
glyphname = lcaron;
lastChange = "2015-05-04 18:40:54 +0000";
layers = (
{
components = (
{
name = l;
transform = "{1, 0, 0, 1, 0, 0}";
}
);
layerId = "7D7A15B1-26C3-429D-8003-112E9373A587";
name = Light;
paths = (
{
closed = 1;
nodes = (
"288 702 OFFCURVE",
"303 679 OFFCURVE",
"303 659 CURVE SMOOTH",
"303 598 OFFCURVE",
"273 545 OFFCURVE",
"217 518 CURVE",
"201 543 LINE",
"236 562 OFFCURVE",
"261 589 OFFCURVE",
"262 625 CURVE",
"238 625 OFFCURVE",
"226 650 OFFCURVE",
"226 663 CURVE SMOOTH",
"226 683 OFFCURVE",
"239 702 OFFCURVE",
"264 702 CURVE SMOOTH"
);
}
);
width = 333;
},
{
components = (
{
name = l;
transform = "{1, 0, 0, 1, 0, 0}";
}
);
layerId = "601FF878-0EB3-47BC-931B-6B704884A184";
name = Bold;
paths = (
{
closed = 1;
nodes = (
"291 702 OFFCURVE",
"313 680 OFFCURVE",
"313 647 CURVE SMOOTH",
"313 587 OFFCURVE",
"270 523 OFFCURVE",
"221 498 CURVE",
"203 527 LINE",
"234 548 OFFCURVE",
"256 571 OFFCURVE",
"259 606 CURVE",
"234 609 OFFCURVE",
"217 630 OFFCURVE",
"217 654 CURVE SMOOTH",
"217 679 OFFCURVE",
"238 702 OFFCURVE",
"266 702 CURVE SMOOTH"
);
}
);
width = 343;
}
);
unicode = 013E;
},
{
glyphname = tcaron;
lastChange = "2015-05-04 18:40:54 +0000";
layers = (
{
components = (
{
name = t;
transform = "{1, 0, 0, 1, 0, 0}";
}
);
layerId = "7D7A15B1-26C3-429D-8003-112E9373A587";
name = Light;
paths = (
{
closed = 1;
nodes = (
"367 702 OFFCURVE",
"382 679 OFFCURVE",
"382 659 CURVE SMOOTH",
"382 598 OFFCURVE",
"352 545 OFFCURVE",
"296 518 CURVE",
"280 543 LINE",
"315 562 OFFCURVE",
"340 589 OFFCURVE",
"341 625 CURVE",
"317 625 OFFCURVE",
"305 650 OFFCURVE",
"305 663 CURVE SMOOTH",
"305 683 OFFCURVE",
"318 702 OFFCURVE",
"343 702 CURVE SMOOTH"
);
}
);
width = 412;
},
{
components = (
{
name = t;
transform = "{1, 0, 0, 1, 0, 0}";
}
);
layerId = "601FF878-0EB3-47BC-931B-6B704884A184";
name = Bold;
paths = (
{
closed = 1;
nodes = (
"354 702 OFFCURVE",
"376 680 OFFCURVE",
"376 647 CURVE SMOOTH",
"376 587 OFFCURVE",
"333 523 OFFCURVE",
"284 498 CURVE",
"266 527 LINE",
"297 548 OFFCURVE",
"319 571 OFFCURVE",
"322 606 CURVE",
"297 609 OFFCURVE",
"280 630 OFFCURVE",
"280 654 CURVE SMOOTH",
"280 679 OFFCURVE",
"301 702 OFFCURVE",
"329 702 CURVE SMOOTH"
);
}
);
width = 406;
}
);
unicode = 0165;
},
{
glyphname = mu;
lastChange = "2015-05-04 18:40:54 +0000";
layers = (
{
layerId = "7D7A15B1-26C3-429D-8003-112E9373A587";
name = Light;
paths = (
{
closed = 1;
nodes = (
"76 -219 LINE",
"76 398 LINE",
"125 418 LINE",
"125 -208 LINE"
);
},
{
closed = 1;
nodes = (
"440 485 LINE",
"440 0 LINE",
"402 0 LINE",
"392 76 LINE",
"351 28 OFFCURVE",
"280 -13 OFFCURVE",
"220 -13 CURVE SMOOTH",
"116 -13 OFFCURVE",
"76 55 OFFCURVE",
"76 148 CURVE SMOOTH",
"76 485 LINE",
"125 485 LINE",
"125 148 LINE SMOOTH",
"125 81 OFFCURVE",
"143 28 OFFCURVE",
"216 28 CURVE SMOOTH",
"274 28 OFFCURVE",
"335 69 OFFCURVE",
"391 126 CURVE",
"391 485 LINE"
);
}
);
width = 510;
},
{
layerId = "601FF878-0EB3-47BC-931B-6B704884A184";
name = Bold;
paths = (
{
closed = 1;
nodes = (
"71 -219 LINE",
"71 313 LINE",
"133 312 LINE",
"133 -208 LINE"
);
},
{
closed = 1;
nodes = (
"461 486 LINE",
"461 1 LINE",
"410 1 LINE",
"400 75 LINE",
"359 27 OFFCURVE",
"280 -12 OFFCURVE",
"220 -12 CURVE SMOOTH",
"116 -12 OFFCURVE",
"71 56 OFFCURVE",
"71 149 CURVE SMOOTH",
"71 485 LINE",
"133 485 LINE",
"133 161 LINE SMOOTH",
"133 94 OFFCURVE",
"156 41 OFFCURVE",
"227 41 CURVE SMOOTH",
"277 41 OFFCURVE",
"354 83 OFFCURVE",
"399 140 CURVE",
"399 486 LINE"
);
}
);
width = 526;
}
);
unicode = 00B5;
},
{
glyphname = uni02C9;
lastChange = "2015-05-04 18:40:54 +0000";
layers = (
{
layerId = "7D7A15B1-26C3-429D-8003-112E9373A587";
name = Light;
paths = (
{
closed = 1;
nodes = (
"10 689 LINE",
"245 689 LINE",
"251 650 LINE",
"10 650 LINE"
);
}
);
width = 261;
},
{
layerId = "601FF878-0EB3-47BC-931B-6B704884A184";
name = Bold;
paths = (
{
closed = 1;
nodes = (
"10 689 LINE",
"246 689 LINE",
"251 640 LINE",
"10 640 LINE"
);
}
);
width = 261;
}
);
unicode = 02C9;
},
{
glyphname = litre;
lastChange = "2015-05-04 19:02:33 +0000";
layers = (
{
layerId = "7D7A15B1-26C3-429D-8003-112E9373A587";
name = Light;
paths = (
{
closed = 1;
nodes = (
"10 232 LINE",
"35 249 OFFCURVE",
"62 270 OFFCURVE",
"87 291 CURVE",
"87 566 LINE SMOOTH",
"87 653 OFFCURVE",
"130 702 OFFCURVE",
"195 702 CURVE SMOOTH",
"263 702 OFFCURVE",
"308 654 OFFCURVE",
"308 574 CURVE SMOOTH",
"308 470 OFFCURVE",
"224 358 OFFCURVE",
"136 274 CURVE",
"136 122 LINE SMOOTH",
"136 74 OFFCURVE",
"164 29 OFFCURVE",
"215 29 CURVE SMOOTH",
"236 29 OFFCURVE",
"252 39 OFFCURVE",
"260 43 CURVE",
"272 6 LINE",
"260 -3 OFFCURVE",
"231 -12 OFFCURVE",
"214 -12 CURVE SMOOTH",
"139 -12 OFFCURVE",
"87 40 OFFCURVE",
"87 127 CURVE SMOOTH",
"87 231 LINE",
"64 214 OFFCURVE",
"42 198 OFFCURVE",
"22 185 CURVE"
);
},
{
closed = 1;
nodes = (
"204 408 OFFCURVE",
"258 492 OFFCURVE",
"258 572 CURVE SMOOTH",
"258 631 OFFCURVE",
"229 661 OFFCURVE",
"196 661 CURVE SMOOTH",
"161 661 OFFCURVE",
"136 631 OFFCURVE",
"136 566 CURVE SMOOTH",
"136 337 LINE"
);
}
);
width = 338;
},
{
layerId = "601FF878-0EB3-47BC-931B-6B704884A184";
name = Bold;
paths = (
{
closed = 1;
nodes = (
"10 231 LINE",
"28 243 OFFCURVE",
"65 274 OFFCURVE",
"78 288 CURVE",
"78 566 LINE SMOOTH",
"78 653 OFFCURVE",
"130 702 OFFCURVE",
"203 702 CURVE SMOOTH",
"271 702 OFFCURVE",
"320 654 OFFCURVE",
"320 574 CURVE SMOOTH",
"320 482 OFFCURVE",
"238 365 OFFCURVE",
"141 274 CURVE",
"141 159 LINE SMOOTH",
"141 94 OFFCURVE",
"147 41 OFFCURVE",
"215 41 CURVE SMOOTH",
"234 41 OFFCURVE",
"255 47 OFFCURVE",
"282 58 CURVE",
"303 20 LINE",
"279 -3 OFFCURVE",
"244 -12 OFFCURVE",
"209 -12 CURVE SMOOTH",
"104 -12 OFFCURVE",
"78 54 OFFCURVE",
"78 150 CURVE SMOOTH",
"78 223 LINE",
"61 208 OFFCURVE",
"41 194 OFFCURVE",
"24 185 CURVE"
);
},
{
closed = 1;
nodes = (
"204 419 OFFCURVE",
"257 500 OFFCURVE",
"257 572 CURVE SMOOTH",
"257 631 OFFCURVE",
"234 650 OFFCURVE",
"203 650 CURVE SMOOTH",
"172 649 OFFCURVE",
"141 631 OFFCURVE",
"141 566 CURVE SMOOTH",
"141 350 LINE"
);
}
);
width = 350;
}
);
unicode = 2113;
},
{
glyphname = Ohm;
lastChange = "2015-05-04 18:40:54 +0000";
layers = (
{
layerId = "7D7A15B1-26C3-429D-8003-112E9373A587";
name = Light;
paths = (
{
closed = 1;
nodes = (
"600 513 OFFCURVE",
"496 652 OFFCURVE",
"353 652 CURVE SMOOTH",
"210 652 OFFCURVE",
"105 513 OFFCURVE",
"105 338 CURVE SMOOTH",
"105 230 OFFCURVE",
"159 88 OFFCURVE",
"236 44 CURVE",
"241 0 LINE",
"56 0 LINE",
"52 39 LINE",
"171 39 LINE",
"98 95 OFFCURVE",
"50 225 OFFCURVE",
"50 337 CURVE SMOOTH",
"50 536 OFFCURVE",
"164 696 OFFCURVE",
"353 696 CURVE SMOOTH",
"544 696 OFFCURVE",
"652 536 OFFCURVE",
"652 337 CURVE SMOOTH",
"652 225 OFFCURVE",
"605 95 OFFCURVE",
"530 39 CURVE",
"650 39 LINE",
"646 0 LINE",
"464 0 LINE",
"469 44 LINE",
"546 88 OFFCURVE",
"600 230 OFFCURVE",
"600 338 CURVE SMOOTH"
);
}
);
width = 702;
},
{
layerId = "601FF878-0EB3-47BC-931B-6B704884A184";
name = Bold;
paths = (
{
closed = 1;
nodes = (
"606 513 OFFCURVE",
"502 640 OFFCURVE",
"359 640 CURVE SMOOTH",
"216 640 OFFCURVE",
"111 513 OFFCURVE",
"111 338 CURVE SMOOTH",
"111 230 OFFCURVE",
"165 94 OFFCURVE",
"242 50 CURVE",
"247 0 LINE",
"51 0 LINE",
"45 50 LINE",
"164 50 LINE",
"91 106 OFFCURVE",
"45 225 OFFCURVE",
"45 337 CURVE SMOOTH",
"45 536 OFFCURVE",
"163 692 OFFCURVE",
"359 696 CURVE",
"555 692 OFFCURVE",
"673 536 OFFCURVE",
"673 337 CURVE SMOOTH",
"673 225 OFFCURVE",
"628 106 OFFCURVE",
"553 50 CURVE",
"673 50 LINE",
"667 0 LINE",
"470 0 LINE",
"475 50 LINE",
"552 94 OFFCURVE",
"606 230 OFFCURVE",
"606 338 CURVE SMOOTH"
);
}
);
width = 718;
}
);
unicode = 2126;
},
{
glyphname = Delta;
lastChange = "2015-05-04 18:40:54 +0000";
layers = (
{
layerId = "7D7A15B1-26C3-429D-8003-112E9373A587";
name = Light;
paths = (
{
closed = 1;
nodes = (
"303 680 LINE",
"562 11 LINE",
"562 0 LINE",
"10 0 LINE",
"257 680 LINE"
);
},
{
closed = 1;
nodes = (
"281 614 LINE",
"73 39 LINE",
"497 39 LINE"
);
}
);
width = 572;
},
{
layerId = "601FF878-0EB3-47BC-931B-6B704884A184";
name = Bold;
paths = (
{
closed = 1;
nodes = (
"322 680 LINE",
"582 10 LINE",
"582 0 LINE",
"10 0 LINE",
"257 680 LINE"
);
},
{
closed = 1;
nodes = (
"290 600 LINE",
"87 50 LINE",
"502 50 LINE"
);
}
);
width = 592;
}
);
unicode = 2206;
},
{
glyphname = divisionslash;
lastChange = "2015-05-04 18:40:54 +0000";
layers = (
{
layerId = "7D7A15B1-26C3-429D-8003-112E9373A587";
name = Light;
paths = (
{
closed = 1;
nodes = (
"365 706 LINE",
"56 -4 LINE",
"10 0 LINE",
"318 710 LINE"
);
}
);
width = 375;
},
{
layerId = "601FF878-0EB3-47BC-931B-6B704884A184";
name = Bold;
paths = (
{
closed = 1;
nodes = (
"375 706 LINE",
"66 -4 LINE",
"10 0 LINE",
"318 710 LINE"
);
}
);
width = 385;
}
);
unicode = 2215;
},
{
glyphname = bulletmath;
lastChange = "2015-05-04 18:40:54 +0000";
layers = (
{
layerId = "7D7A15B1-26C3-429D-8003-112E9373A587";
name = Light;
paths = (
{
closed = 1;
nodes = (
"57 265 OFFCURVE",
"30 293 OFFCURVE",
"30 326 CURVE SMOOTH",
"30 361 OFFCURVE",
"57 388 OFFCURVE",
"92 388 CURVE SMOOTH",
"125 388 OFFCURVE",
"153 361 OFFCURVE",
"153 326 CURVE SMOOTH",
"153 293 OFFCURVE",
"125 265 OFFCURVE",
"92 265 CURVE SMOOTH"
);
}
);
width = 183;
},
{
layerId = "601FF878-0EB3-47BC-931B-6B704884A184";
name = Bold;
paths = (
{
closed = 1;
nodes = (
"67 245 OFFCURVE",
"30 282 OFFCURVE",
"30 326 CURVE SMOOTH",
"30 371 OFFCURVE",
"67 409 OFFCURVE",
"112 409 CURVE SMOOTH",
"157 409 OFFCURVE",
"194 371 OFFCURVE",
"194 326 CURVE SMOOTH",
"194 282 OFFCURVE",
"157 245 OFFCURVE",
"112 245 CURVE SMOOTH"
);
}
);
width = 224;
}
);
unicode = 2219;
},
{
glyphname = Turkishlira;
lastChange = "2015-05-04 19:01:53 +0000";
layers = (
{
layerId = "7D7A15B1-26C3-429D-8003-112E9373A587";
name = Light;
paths = (
{
closed = 1;
nodes = (
"126 381 LINE",
"6 339 LINE",
"0 378 LINE",
"126 422 LINE",
"126 489 LINE",
"6 447 LINE",
"0 486 LINE",
"126 530 LINE",
"126 696 LINE",
"175 706 LINE",
"175 548 LINE",
"337 605 LINE",
"344 567 LINE",
"175 507 LINE",
"175 440 LINE",
"337 497 LINE",
"344 459 LINE",
"175 399 LINE",
"175 39 LINE",
"292 39 OFFCURVE",
"425 183 OFFCURVE",
"425 331 CURVE",
"471 331 LINE",
"471 151 OFFCURVE",
"322 0 OFFCURVE",
"175 0 CURVE SMOOTH",
"126 0 LINE"
);
}
);
width = 491;
},
{
layerId = "601FF878-0EB3-47BC-931B-6B704884A184";
name = Bold;
paths = (
{
closed = 1;
nodes = (
"86 367 LINE",
"8 339 LINE",
"0 384 LINE",
"86 415 LINE",
"86 468 LINE",
"8 441 LINE",
"0 486 LINE",
"86 516 LINE",
"86 696 LINE",
"148 706 LINE",
"148 538 LINE",
"337 605 LINE",
"346 561 LINE",
"148 491 LINE",
"148 436 LINE",
"337 503 LINE",
"346 458 LINE",
"148 389 LINE",
"148 51 LINE",
"265 51 OFFCURVE",
"398 183 OFFCURVE",
"398 331 CURVE",
"461 331 LINE",
"461 151 OFFCURVE",
"303 0 OFFCURVE",
"148 0 CURVE SMOOTH",
"86 0 LINE"
);
}
);
width = 481;
}
);
unicode = 20BA;
},
{
glyphname = Ruble;
lastChange = "2015-05-04 18:40:54 +0000";
layers = (
{
layerId = "7D7A15B1-26C3-429D-8003-112E9373A587";
name = Light;
paths = (
{
closed = 1;
nodes = (
"443 165 LINE",
"42 165 LINE",
"37 204 LINE",
"438 204 LINE"
);
},
{
closed = 1;
nodes = (
"100 0 LINE",
"100 680 LINE",
"263 680 LINE SMOOTH",
"404 680 OFFCURVE",
"508 623 OFFCURVE",
"508 475 CURVE SMOOTH",
"508 328 OFFCURVE",
"393 264 OFFCURVE",
"252 264 CURVE SMOOTH",
"149 264 LINE",
"149 0 LINE"
);
},
{
closed = 1;
nodes = (
"149 640 LINE",
"149 303 LINE",
"264 303 LINE SMOOTH",
"371 303 OFFCURVE",
"458 361 OFFCURVE",
"458 474 CURVE SMOOTH",
"458 591 OFFCURVE",
"384 640 OFFCURVE",
"275 640 CURVE SMOOTH"
);
},
{
closed = 1;
nodes = (
"130 264 LINE",
"42 264 LINE",
"37 303 LINE",
"125 303 LINE"
);
}
);
width = 548;
},
{
layerId = "601FF878-0EB3-47BC-931B-6B704884A184";
name = Bold;
paths = (
{
closed = 1;
nodes = (
"454 157 LINE",
"42 157 LINE",
"37 203 LINE",
"449 203 LINE"
);
},
{
closed = 1;
nodes = (
"95 0 LINE",
"95 680 LINE",
"271 680 LINE SMOOTH",
"412 680 OFFCURVE",
"516 623 OFFCURVE",
"516 475 CURVE SMOOTH",
"515 328 OFFCURVE",
"401 264 OFFCURVE",
"260 264 CURVE SMOOTH",
"157 264 LINE",
"157 0 LINE"
);
},
{
closed = 1;
nodes = (
"157 627 LINE",
"157 317 LINE",
"262 317 LINE SMOOTH",
"369 317 OFFCURVE",
"452 361 OFFCURVE",
"453 474 CURVE SMOOTH",
"453 591 OFFCURVE",
"382 627 OFFCURVE",
"273 627 CURVE SMOOTH"
);
},
{
closed = 1;
nodes = (
"129 268 LINE",
"42 268 LINE",
"37 314 LINE",
"124 314 LINE"
);
}
);
width = 551;
}
);
unicode = 20BD;
},
{
glyphname = cent;
lastChange = "2015-05-04 18:40:54 +0000";
layers = (
{
layerId = "7D7A15B1-26C3-429D-8003-112E9373A587";
name = Light;
paths = (
{
closed = 1;
nodes = (
"240 477 LINE",
"240 595 LINE",
"284 605 LINE",
"284 477 LINE"
);
},
{
closed = 1;
nodes = (
"284 -111 LINE",
"240 -111 LINE",
"240 0 LINE",
"284 0 LINE"
);
},
{
closed = 1;
nodes = (
"408 28 LINE",
"368 3 OFFCURVE",
"300 -13 OFFCURVE",
"259 -13 CURVE SMOOTH",
"116 -13 OFFCURVE",
"40 94 OFFCURVE",
"40 245 CURVE SMOOTH",
"40 390 OFFCURVE",
"123 498 OFFCURVE",
"266 498 CURVE SMOOTH",
"305 498 OFFCURVE",
"374 481 OFFCURVE",
"413 456 CURVE",
"393 423 LINE",
"360 439 OFFCURVE",
"325 457 OFFCURVE",
"264 457 CURVE SMOOTH",
"157 457 OFFCURVE",
"91 359 OFFCURVE",
"91 246 CURVE SMOOTH",
"91 127 OFFCURVE",
"150 28 OFFCURVE",
"259 28 CURVE SMOOTH",
"326 28 OFFCURVE",
"353 45 OFFCURVE",
"388 62 CURVE"
);
}
);
width = 449;
},
{
layerId = "601FF878-0EB3-47BC-931B-6B704884A184";
name = Bold;
paths = (
{
closed = 1;
nodes = (
"246 470 LINE",
"246 595 LINE",
"297 605 LINE",
"297 469 LINE"
);
},
{
closed = 1;
nodes = (
"297 -111 LINE",
"246 -111 LINE",
"246 6 LINE",
"297 9 LINE"
);
},
{
closed = 1;
nodes = (
"415 28 LINE",
"375 3 OFFCURVE",
"303 -13 OFFCURVE",
"262 -13 CURVE SMOOTH",
"119 -13 OFFCURVE",
"35 94 OFFCURVE",
"35 245 CURVE SMOOTH",
"36 390 OFFCURVE",
"126 498 OFFCURVE",
"269 498 CURVE SMOOTH",
"308 498 OFFCURVE",
"381 481 OFFCURVE",
"420 456 CURVE",
"400 412 LINE",
"367 428 OFFCURVE",
"335 446 OFFCURVE",
"266 446 CURVE SMOOTH",
"159 446 OFFCURVE",
"99 359 OFFCURVE",
"98 246 CURVE SMOOTH",
"98 127 OFFCURVE",
"152 39 OFFCURVE",
"261 39 CURVE SMOOTH",
"332 39 OFFCURVE",
"360 56 OFFCURVE",
"395 73 CURVE"
);
}
);
width = 451;
}
);
unicode = 00A2;
},
{
glyphname = sterling;
lastChange = "2015-05-04 18:59:14 +0000";
layers = (
{
layerId = "7D7A15B1-26C3-429D-8003-112E9373A587";
name = Light;
paths = (
{
closed = 1;
nodes = (
"68 39 LINE",
"116 40 OFFCURVE",
"133 74 OFFCURVE",
"133 122 CURVE SMOOTH",
"133 334 LINE",
"62 334 LINE",
"60 371 LINE",
"133 371 LINE",
"133 545 LINE SMOOTH",
"133 629 OFFCURVE",
"166 684 OFFCURVE",
"238 684 CURVE SMOOTH",
"265 684 OFFCURVE",
"291 676 OFFCURVE",
"304 671 CURVE",
"292 634 LINE",
"284 638 OFFCURVE",
"264 643 OFFCURVE",
"251 643 CURVE SMOOTH",
"200 643 OFFCURVE",
"182 609 OFFCURVE",
"182 561 CURVE SMOOTH",
"182 371 LINE",
"322 371 LINE",
"344 334 LINE",
"182 334 LINE",
"182 143 LINE SMOOTH",
"182 98 OFFCURVE",
"177 64 OFFCURVE",
"148 39 CURVE",
"410 39 LINE",
"416 0 LINE",
"70 0 LINE"
);
}
);
width = 426;
},
{
layerId = "601FF878-0EB3-47BC-931B-6B704884A184";
name = Bold;
paths = (
{
closed = 1;
nodes = (
"60 50 LINE",
"111 51 OFFCURVE",
"128 85 OFFCURVE",
"128 133 CURVE SMOOTH",
"128 330 LINE",
"57 330 LINE",
"55 376 LINE",
"128 376 LINE",
"128 545 LINE SMOOTH",
"128 629 OFFCURVE",
"175 684 OFFCURVE",
"246 684 CURVE SMOOTH",
"273 684 OFFCURVE",
"299 675 OFFCURVE",
"312 671 CURVE",
"300 618 LINE",
"293 622 OFFCURVE",
"273 629 OFFCURVE",
"260 629 CURVE SMOOTH",
"209 629 OFFCURVE",
"191 594 OFFCURVE",
"191 545 CURVE SMOOTH",
"191 376 LINE",
"327 376 LINE",
"349 330 LINE",
"191 330 LINE",
"191 154 LINE SMOOTH",
"191 109 OFFCURVE",
"178 74 OFFCURVE",
"157 50 CURVE",
"415 50 LINE",
"421 0 LINE",
"65 0 LINE"
);
}
);
width = 431;
}
);
unicode = 00A3;
},
{
glyphname = currency;
lastChange = "2015-05-04 19:56:50 +0000";
layers = (
{
layerId = "7D7A15B1-26C3-429D-8003-112E9373A587";
name = Light;
paths = (
{
closed = 1;
nodes = (
"30 -22 LINE",
"135 82 LINE",
"104 126 OFFCURVE",
"87 182 OFFCURVE",
"87 246 CURVE SMOOTH",
"87 305 OFFCURVE",
"104 358 OFFCURVE",
"136 401 CURVE",
"30 505 LINE",
"59 537 LINE",
"165 434 LINE",
"208 474 OFFCURVE",
"267 498 OFFCURVE",
"335 498 CURVE SMOOTH",
"402 498 OFFCURVE",
"457 474 OFFCURVE",
"497 435 CURVE",
"602 537 LINE",
"631 505 LINE",
"526 401 LINE",
"557 356 OFFCURVE",
"574 299 OFFCURVE",
"574 239 CURVE SMOOTH",
"574 182 OFFCURVE",
"556 127 OFFCURVE",
"523 84 CURVE",
"631 -22 LINE",
"602 -54 LINE",
"493 51 LINE",
"452 11 OFFCURVE",
"393 -13 OFFCURVE",
"325 -13 CURVE SMOOTH",
"260 -13 OFFCURVE",
"205 9 OFFCURVE",
"164 48 CURVE",
"59 -54 LINE"
);
},
{
closed = 1;
nodes = (
"523 355 OFFCURVE",
"455 457 OFFCURVE",
"335 457 CURVE SMOOTH",
"219 457 OFFCURVE",
"138 359 OFFCURVE",
"138 246 CURVE SMOOTH",
"138 121 OFFCURVE",
"217 28 OFFCURVE",
"325 28 CURVE SMOOTH",
"441 28 OFFCURVE",
"523 123 OFFCURVE",
"523 239 CURVE SMOOTH"
);
}
);
width = 661;
},
{
layerId = "601FF878-0EB3-47BC-931B-6B704884A184";
name = Bold;
paths = (
{
closed = 1;
nodes = (
"30 -18 LINE",
"133 87 LINE",
"105 130 OFFCURVE",
"89 185 OFFCURVE",
"89 245 CURVE SMOOTH",
"89 302 OFFCURVE",
"107 353 OFFCURVE",
"135 394 CURVE",
"30 501 LINE",
"64 543 LINE",
"172 435 LINE",
"215 472 OFFCURVE",
"271 497 OFFCURVE",
"336 498 CURVE SMOOTH",
"400 498 OFFCURVE",
"455 474 OFFCURVE",
"496 437 CURVE",
"600 543 LINE",
"634 501 LINE",
"531 395 LINE",
"560 354 OFFCURVE",
"576 300 OFFCURVE",
"576 239 CURVE SMOOTH",
"575 182 OFFCURVE",
"558 131 OFFCURVE",
"530 90 CURVE",
"634 -18 LINE",
"600 -59 LINE",
"493 49 LINE",
"450 9 OFFCURVE",
"391 -13 OFFCURVE",
"324 -13 CURVE SMOOTH",
"263 -12 OFFCURVE",
"209 10 OFFCURVE",
"169 47 CURVE",
"64 -59 LINE"
);
},
{
closed = 1;
nodes = (
"513 355 OFFCURVE",
"448 445 OFFCURVE",
"337 445 CURVE SMOOTH",
"230 445 OFFCURVE",
"153 359 OFFCURVE",
"152 246 CURVE SMOOTH",
"152 127 OFFCURVE",
"219 40 OFFCURVE",
"327 40 CURVE SMOOTH",
"434 40 OFFCURVE",
"512 123 OFFCURVE",
"513 239 CURVE SMOOTH"
);
}
);
width = 664;
}
);
unicode = 00A4;
},
{
glyphname = yen;
lastChange = "2015-05-04 18:40:54 +0000";
layers = (
{
layerId = "7D7A15B1-26C3-429D-8003-112E9373A587";
name = Light;
paths = (
{
closed = 1;
nodes = (
"67 259 LINE",
"62 298 LINE",
"463 298 LINE",
"468 259 LINE"
);
},
{
closed = 1;
nodes = (
"67 90 LINE",
"62 129 LINE",
"463 129 LINE",
"468 90 LINE"
);
},
{
closed = 1;
nodes = (
"235 0 LINE",
"235 269 LINE",
"10 668 LINE",
"59 689 LINE",
"259 321 LINE",
"463 680 LINE",
"520 680 LINE",
"284 274 LINE",
"284 0 LINE"
);
}
);
width = 530;
},
{
layerId = "601FF878-0EB3-47BC-931B-6B704884A184";
name = Bold;
paths = (
{
closed = 1;
nodes = (
"483 309 LINE",
"492 259 LINE",
"62 259 LINE",
"54 309 LINE"
);
},
{
closed = 1;
nodes = (
"483 127 LINE",
"492 78 LINE",
"62 78 LINE",
"54 127 LINE"
);
},
{
closed = 1;
nodes = (
"234 0 LINE",
"235 276 LINE",
"10 664 LINE",
"65 695 LINE",
"266 336 LINE",
"469 680 LINE",
"536 680 LINE",
"298 283 LINE",
"297 0 LINE"
);
}
);
width = 546;
}
);
unicode = 00A5;
},
{
glyphname = Euro;
lastChange = "2015-05-04 18:40:54 +0000";
layers = (
{
layerId = "7D7A15B1-26C3-429D-8003-112E9373A587";
name = Light;
paths = (
{
closed = 1;
nodes = (
"401 446 LINE",
"406 407 LINE",
"5 407 LINE",
"0 446 LINE"
);
},
{
closed = 1;
nodes = (
"5 226 LINE",
"0 265 LINE",
"401 265 LINE",
"406 226 LINE"
);
},
{
closed = 1;
nodes = (
"543 621 LINE",
"502 638 OFFCURVE",
"470 651 OFFCURVE",
"398 651 CURVE SMOOTH",
"255 650 OFFCURVE",
"145 529 OFFCURVE",
"145 337 CURVE SMOOTH",
"145 174 OFFCURVE",
"234 29 OFFCURVE",
"389 29 CURVE SMOOTH",
"461 29 OFFCURVE",
"503 43 OFFCURVE",
"539 59 CURVE",
"563 23 LINE",
"526 3 OFFCURVE",
"451 -14 OFFCURVE",
"394 -14 CURVE SMOOTH",
"186 -14 OFFCURVE",
"90 151 OFFCURVE",
"90 336 CURVE SMOOTH",
"90 535 OFFCURVE",
"204 694 OFFCURVE",
"400 694 CURVE SMOOTH",
"441 694 OFFCURVE",
"526 682 OFFCURVE",
"563 657 CURVE"
);
}
);
width = 593;
},
{
layerId = "601FF878-0EB3-47BC-931B-6B704884A184";
name = Bold;
paths = (
{
closed = 1;
nodes = (
"430 454 LINE",
"438 405 LINE",
"9 405 LINE",
"0 454 LINE"
);
},
{
closed = 1;
nodes = (
"430 273 LINE",
"438 223 LINE",
"9 223 LINE",
"0 273 LINE"
);
},
{
closed = 1;
nodes = (
"548 611 LINE",
"507 628 OFFCURVE",
"475 640 OFFCURVE",
"403 640 CURVE SMOOTH",
"260 639 OFFCURVE",
"150 512 OFFCURVE",
"150 337 CURVE SMOOTH",
"150 174 OFFCURVE",
"239 41 OFFCURVE",
"394 41 CURVE SMOOTH",
"466 41 OFFCURVE",
"508 55 OFFCURVE",
"544 71 CURVE",
"568 23 LINE",
"531 3 OFFCURVE",
"453 -14 OFFCURVE",
"396 -14 CURVE SMOOTH",
"188 -14 OFFCURVE",
"84 151 OFFCURVE",
"84 336 CURVE SMOOTH",
"84 535 OFFCURVE",
"206 694 OFFCURVE",
"402 694 CURVE SMOOTH",
"443 694 OFFCURVE",
"531 682 OFFCURVE",
"568 657 CURVE"
);
}
);
width = 593;
}
);
unicode = 20AC;
},
{
glyphname = dollar;
lastChange = "2015-05-04 20:00:56 +0000";
layers = (
{
layerId = "7D7A15B1-26C3-429D-8003-112E9373A587";
name = Light;
paths = (
{
closed = 1;
nodes = (
"233 -111 LINE",
"233 -13 LINE",
"237 -13 LINE SMOOTH",
"260 -13 OFFCURVE",
"281 -11 OFFCURVE",
"300 -8 CURVE",
"300 -111 LINE",
"341 -111 LINE",
"341 1 LINE",
"422 27 OFFCURVE",
"464 84 OFFCURVE",
"464 157 CURVE SMOOTH",
"464 248 OFFCURVE",
"404 304 OFFCURVE",
"283 355 CURVE SMOOTH",
"165 405 OFFCURVE",
"102 454 OFFCURVE",
"102 530 CURVE SMOOTH",
"102 599 OFFCURVE",
"162 655 OFFCURVE",
"258 655 CURVE SMOOTH",
"327 655 OFFCURVE",
"367 637 OFFCURVE",
"402 621 CURVE",
"424 657 LINE",
"402 668 OFFCURVE",
"373 679 OFFCURVE",
"341 686 CURVE",
"341 800 LINE",
"300 790 LINE",
"300 693 LINE",
"286 695 OFFCURVE",
"271 696 OFFCURVE",
"256 696 CURVE SMOOTH",
"248 696 OFFCURVE",
"238 695 OFFCURVE",
"233 694 CURVE",
"233 797 LINE",
"193 787 LINE",
"193 690 LINE",
"103 671 OFFCURVE",
"50 611 OFFCURVE",
"50 535 CURVE SMOOTH",
"50 438 OFFCURVE",
"114 379 OFFCURVE",
"232 330 CURVE SMOOTH",
"353 280 OFFCURVE",
"413 233 OFFCURVE",
"413 160 CURVE SMOOTH",
"413 91 OFFCURVE",
"351 29 OFFCURVE",
"236 29 CURVE SMOOTH",
"169 29 OFFCURVE",
"105 51 OFFCURVE",
"70 68 CURVE",
"55 29 LINE",
"73 14 OFFCURVE",
"138 -3 OFFCURVE",
"193 -10 CURVE",
"193 -111 LINE"
);
}
);
width = 534;
},
{
layerId = "601FF878-0EB3-47BC-931B-6B704884A184";
name = Bold;
paths = (
{
closed = 1;
nodes = (
"226 -111 LINE",
"226 -13 LINE",
"238 -13 LINE SMOOTH",
"257 -13 OFFCURVE",
"276 -12 OFFCURVE",
"293 -9 CURVE",
"293 -111 LINE",
"340 -111 LINE",
"340 1 LINE",
"425 27 OFFCURVE",
"473 86 OFFCURVE",
"473 160 CURVE SMOOTH",
"473 259 OFFCURVE",
"411 303 OFFCURVE",
"290 360 CURVE SMOOTH",
"169 417 OFFCURVE",
"103 451 OFFCURVE",
"103 530 CURVE SMOOTH",
"103 599 OFFCURVE",
"163 644 OFFCURVE",
"259 644 CURVE SMOOTH",
"328 644 OFFCURVE",
"368 626 OFFCURVE",
"403 610 CURVE",
"425 657 LINE",
"402 668 OFFCURVE",
"373 679 OFFCURVE",
"340 687 CURVE",
"340 800 LINE",
"293 790 LINE",
"293 694 LINE",
"281 695 OFFCURVE",
"269 696 OFFCURVE",
"257 696 CURVE SMOOTH",
"246 696 OFFCURVE",
"236 695 OFFCURVE",
"226 695 CURVE",
"226 797 LINE",
"180 787 LINE",
"180 686 LINE",
"96 663 OFFCURVE",
"45 603 OFFCURVE",
"45 530 CURVE SMOOTH",
"45 445 OFFCURVE",
"109 378 OFFCURVE",
"229 327 CURVE SMOOTH",
"349 276 OFFCURVE",
"414 238 OFFCURVE",
"414 160 CURVE SMOOTH",
"414 91 OFFCURVE",
"352 38 OFFCURVE",
"237 38 CURVE SMOOTH",
"170 38 OFFCURVE",
"106 60 OFFCURVE",
"71 77 CURVE",
"56 29 LINE",
"86 12 OFFCURVE",
"134 -1 OFFCURVE",
"180 -8 CURVE",
"180 -111 LINE"
);
}
);
width = 508;
}
);
unicode = 0024;
},
{
glyphname = comma;
lastChange = "2015-05-04 18:40:54 +0000";
layers = (
{
layerId = "7D7A15B1-26C3-429D-8003-112E9373A587";
name = Light;
paths = (
{
closed = 1;
nodes = (
"107 76 OFFCURVE",
"122 53 OFFCURVE",
"122 33 CURVE SMOOTH",
"122 -28 OFFCURVE",
"92 -81 OFFCURVE",
"36 -108 CURVE",
"20 -83 LINE",
"55 -64 OFFCURVE",
"80 -37 OFFCURVE",
"81 -1 CURVE",
"57 -1 OFFCURVE",
"45 24 OFFCURVE",
"45 37 CURVE SMOOTH",
"45 57 OFFCURVE",
"58 76 OFFCURVE",
"83 76 CURVE SMOOTH"
);
}
);
width = 152;
},
{
layerId = "601FF878-0EB3-47BC-931B-6B704884A184";
name = Bold;
paths = (
{
closed = 1;
nodes = (
"109 94 OFFCURVE",
"130 74 OFFCURVE",
"130 41 CURVE SMOOTH",
"130 -20 OFFCURVE",
"89 -83 OFFCURVE",
"38 -108 CURVE",
"20 -79 LINE",
"52 -58 OFFCURVE",
"76 -35 OFFCURVE",
"77 1 CURVE",
"52 2 OFFCURVE",
"34 24 OFFCURVE",
"34 48 CURVE SMOOTH",
"34 73 OFFCURVE",
"57 94 OFFCURVE",
"82 94 CURVE SMOOTH"
);
}
);
width = 160;
}
);
unicode = 002C;
},
{
glyphname = period;
lastChange = "2015-05-04 20:04:04 +0000";
layers = (
{
layerId = "7D7A15B1-26C3-429D-8003-112E9373A587";
name = Light;
paths = (
{
closed = 1;
nodes = (
"45 0 OFFCURVE",
"30 17 OFFCURVE",
"30 38 CURVE SMOOTH",
"30 59 OFFCURVE",
"45 76 OFFCURVE",
"68 76 CURVE SMOOTH",
"89 76 OFFCURVE",
"107 59 OFFCURVE",
"107 38 CURVE SMOOTH",
"107 17 OFFCURVE",
"89 0 OFFCURVE",
"68 0 CURVE SMOOTH"
);
}
);
width = 137;
},
{
layerId = "601FF878-0EB3-47BC-931B-6B704884A184";
name = Bold;
paths = (
{
closed = 1;
nodes = (
"51 0 OFFCURVE",
"30 21 OFFCURVE",
"30 48 CURVE SMOOTH",
"30 73 OFFCURVE",
"51 94 OFFCURVE",
"78 94 CURVE SMOOTH",
"103 94 OFFCURVE",
"125 73 OFFCURVE",
"125 48 CURVE SMOOTH",
"125 21 OFFCURVE",
"103 0 OFFCURVE",
"78 0 CURVE SMOOTH"
);
}
);
width = 155;
}
);
unicode = 002E;
},
{
glyphname = exclam;
lastChange = "2015-05-04 20:10:47 +0000";
layers = (
{
layerId = "7D7A15B1-26C3-429D-8003-112E9373A587";
name = Light;
paths = (
{
closed = 1;
nodes = (
"54 702 LINE",
"108 702 LINE",
"99 164 LINE",
"54 185 LINE"
);
},
{
closed = 1;
nodes = (
"89 76 OFFCURVE",
"107 59 OFFCURVE",
"107 38 CURVE SMOOTH",
"107 17 OFFCURVE",
"89 0 OFFCURVE",
"68 0 CURVE SMOOTH",
"45 0 OFFCURVE",
"30 17 OFFCURVE",
"30 38 CURVE SMOOTH",
"30 59 OFFCURVE",
"45 76 OFFCURVE",
"68 76 CURVE SMOOTH"
);
}
);
width = 138;
},
{
layerId = "601FF878-0EB3-47BC-931B-6B704884A184";
name = Bold;
paths = (
{
closed = 1;
nodes = (
"42 702 LINE",
"116 702 LINE",
"100 196 LINE",
"58 217 LINE"
);
},
{
closed = 1;
nodes = (
"106 94 OFFCURVE",
"126 73 OFFCURVE",
"126 48 CURVE SMOOTH",
"126 21 OFFCURVE",
"106 0 OFFCURVE",
"79 0 CURVE SMOOTH",
"54 0 OFFCURVE",
"30 21 OFFCURVE",
"30 48 CURVE SMOOTH",
"30 73 OFFCURVE",
"54 94 OFFCURVE",
"79 94 CURVE SMOOTH"
);
}
);
width = 156;
}
);
unicode = 0021;
},
{
glyphname = exclamdown;
lastChange = "2015-05-04 20:11:06 +0000";
layers = (
{
layerId = "7D7A15B1-26C3-429D-8003-112E9373A587";
name = Light;
paths = (
{
closed = 1;
nodes = (
"49 626 OFFCURVE",
"31 643 OFFCURVE",
"31 664 CURVE SMOOTH",
"31 685 OFFCURVE",
"49 702 OFFCURVE",
"70 702 CURVE SMOOTH",
"93 702 OFFCURVE",
"108 685 OFFCURVE",
"108 664 CURVE SMOOTH",
"108 643 OFFCURVE",
"93 626 OFFCURVE",
"70 626 CURVE SMOOTH"
);
},
{
closed = 1;
nodes = (
"84 0 LINE",
"30 0 LINE",
"39 538 LINE",
"84 517 LINE"
);
}
);
width = 138;
},
{
layerId = "601FF878-0EB3-47BC-931B-6B704884A184";
name = Bold;
paths = (
{
closed = 1;
nodes = (
"52 605 OFFCURVE",
"30 627 OFFCURVE",
"30 654 CURVE SMOOTH",
"30 679 OFFCURVE",
"52 702 OFFCURVE",
"79 702 CURVE SMOOTH",
"104 702 OFFCURVE",
"126 679 OFFCURVE",
"126 654 CURVE SMOOTH",
"126 627 OFFCURVE",
"104 605 OFFCURVE",
"79 605 CURVE SMOOTH"
);
},
{
closed = 1;
nodes = (
"116 0 LINE",
"42 0 LINE",
"58 505 LINE",
"100 485 LINE"
);
}
);
width = 156;
}
);
unicode = 00A1;
},
{
glyphname = colon;
lastChange = "2015-05-04 18:40:54 +0000";
layers = (
{
layerId = "7D7A15B1-26C3-429D-8003-112E9373A587";
name = Light;
paths = (
{
closed = 1;
nodes = (
"45 365 OFFCURVE",
"30 382 OFFCURVE",
"30 403 CURVE SMOOTH",
"30 424 OFFCURVE",
"45 441 OFFCURVE",
"68 441 CURVE SMOOTH",
"89 441 OFFCURVE",
"107 424 OFFCURVE",
"107 403 CURVE SMOOTH",
"107 382 OFFCURVE",
"89 365 OFFCURVE",
"68 365 CURVE SMOOTH"
);
},
{
closed = 1;
nodes = (
"45 46 OFFCURVE",
"30 63 OFFCURVE",
"30 84 CURVE SMOOTH",
"30 105 OFFCURVE",
"45 122 OFFCURVE",
"68 122 CURVE SMOOTH",
"89 122 OFFCURVE",
"107 105 OFFCURVE",
"107 84 CURVE SMOOTH",
"107 63 OFFCURVE",
"89 46 OFFCURVE",
"68 46 CURVE SMOOTH"
);
}
);
width = 137;
},
{
layerId = "601FF878-0EB3-47BC-931B-6B704884A184";
name = Bold;
paths = (
{
closed = 1;
nodes = (
"52 355 OFFCURVE",
"30 377 OFFCURVE",
"30 402 CURVE SMOOTH",
"30 427 OFFCURVE",
"52 451 OFFCURVE",
"77 451 CURVE SMOOTH",
"104 451 OFFCURVE",
"125 427 OFFCURVE",
"125 402 CURVE SMOOTH",
"125 377 OFFCURVE",
"104 355 OFFCURVE",
"77 355 CURVE SMOOTH"
);
},
{
closed = 1;
nodes = (
"52 36 OFFCURVE",
"30 57 OFFCURVE",
"30 84 CURVE SMOOTH",
"30 111 OFFCURVE",
"52 132 OFFCURVE",
"77 132 CURVE SMOOTH",
"104 132 OFFCURVE",
"125 111 OFFCURVE",
"125 84 CURVE SMOOTH",
"125 57 OFFCURVE",
"104 36 OFFCURVE",
"77 36 CURVE SMOOTH"
);
}
);
width = 155;
}
);
unicode = 003A;
},
{
glyphname = semicolon;
lastChange = "2015-05-04 18:40:54 +0000";
layers = (
{
layerId = "7D7A15B1-26C3-429D-8003-112E9373A587";
name = Light;
paths = (
{
closed = 1;
nodes = (
"60 365 OFFCURVE",
"45 382 OFFCURVE",
"45 403 CURVE SMOOTH",
"45 424 OFFCURVE",
"60 441 OFFCURVE",
"83 441 CURVE SMOOTH",
"104 441 OFFCURVE",
"122 424 OFFCURVE",
"122 403 CURVE SMOOTH",
"122 382 OFFCURVE",
"104 365 OFFCURVE",
"83 365 CURVE SMOOTH"
);
},
{
closed = 1;
nodes = (
"107 122 OFFCURVE",
"122 99 OFFCURVE",
"122 79 CURVE SMOOTH",
"122 18 OFFCURVE",
"92 -35 OFFCURVE",
"36 -62 CURVE",
"20 -37 LINE",
"55 -18 OFFCURVE",
"80 9 OFFCURVE",
"81 45 CURVE",
"57 45 OFFCURVE",
"45 70 OFFCURVE",
"45 83 CURVE SMOOTH",
"45 103 OFFCURVE",
"58 122 OFFCURVE",
"83 122 CURVE SMOOTH"
);
}
);
width = 152;
},
{
layerId = "601FF878-0EB3-47BC-931B-6B704884A184";
name = Bold;
paths = (
{
closed = 1;
nodes = (
"56 355 OFFCURVE",
"35 377 OFFCURVE",
"35 402 CURVE SMOOTH",
"35 427 OFFCURVE",
"56 451 OFFCURVE",
"83 451 CURVE SMOOTH",
"110 451 OFFCURVE",
"131 427 OFFCURVE",
"131 402 CURVE SMOOTH",
"131 377 OFFCURVE",
"110 355 OFFCURVE",
"83 355 CURVE SMOOTH"
);
},
{
closed = 1;
nodes = (
"109 132 OFFCURVE",
"130 111 OFFCURVE",
"130 76 CURVE SMOOTH",
"130 17 OFFCURVE",
"89 -48 OFFCURVE",
"38 -72 CURVE",
"20 -43 LINE",
"52 -22 OFFCURVE",
"76 2 OFFCURVE",
"77 37 CURVE",
"52 40 OFFCURVE",
"34 59 OFFCURVE",
"34 84 CURVE SMOOTH",
"34 111 OFFCURVE",
"57 132 OFFCURVE",
"82 132 CURVE SMOOTH"
);
}
);
width = 161;
}
);
unicode = 003B;
},
{
glyphname = question;
lastChange = "2015-05-04 20:10:34 +0000";
layers = (
{
layerId = "7D7A15B1-26C3-429D-8003-112E9373A587";
name = Light;
paths = (
{
closed = 1;
nodes = (
"305 702 OFFCURVE",
"362 634 OFFCURVE",
"362 538 CURVE SMOOTH",
"362 462 OFFCURVE",
"300 381 OFFCURVE",
"189 332 CURVE",
"179 137 LINE",
"146 158 LINE",
"139 363 LINE",
"243 396 OFFCURVE",
"309 461 OFFCURVE",
"309 537 CURVE SMOOTH",
"309 617 OFFCURVE",
"260 661 OFFCURVE",
"184 661 CURVE SMOOTH",
"112 661 OFFCURVE",
"70 637 OFFCURVE",
"18 600 CURVE",
"10 641 LINE",
"45 672 OFFCURVE",
"107 702 OFFCURVE",
"186 702 CURVE SMOOTH"
);
},
{
closed = 1;
nodes = (
"175 76 OFFCURVE",
"193 59 OFFCURVE",
"193 38 CURVE SMOOTH",
"193 17 OFFCURVE",
"175 0 OFFCURVE",
"154 0 CURVE SMOOTH",
"131 0 OFFCURVE",
"116 17 OFFCURVE",
"116 38 CURVE SMOOTH",
"116 59 OFFCURVE",
"131 76 OFFCURVE",
"154 76 CURVE SMOOTH"
);
}
);
width = 392;
},
{
layerId = "601FF878-0EB3-47BC-931B-6B704884A184";
name = Bold;
paths = (
{
closed = 1;
nodes = (
"318 702 OFFCURVE",
"374 634 OFFCURVE",
"374 538 CURVE SMOOTH",
"374 462 OFFCURVE",
"304 381 OFFCURVE",
"193 332 CURVE",
"185 139 LINE",
"139 157 LINE",
"131 363 LINE",
"235 396 OFFCURVE",
"309 461 OFFCURVE",
"309 537 CURVE SMOOTH",
"309 617 OFFCURVE",
"268 648 OFFCURVE",
"184 648 CURVE SMOOTH",
"112 648 OFFCURVE",
"70 624 OFFCURVE",
"18 587 CURVE",
"10 641 LINE",
"63 674 OFFCURVE",
"107 702 OFFCURVE",
"186 702 CURVE SMOOTH"
);
},
{
closed = 1;
nodes = (
"188 94 OFFCURVE",
"209 73 OFFCURVE",
"209 48 CURVE SMOOTH",
"209 21 OFFCURVE",
"188 0 OFFCURVE",
"161 0 CURVE SMOOTH",
"134 0 OFFCURVE",
"114 21 OFFCURVE",
"114 48 CURVE SMOOTH",
"114 73 OFFCURVE",
"134 94 OFFCURVE",
"161 94 CURVE SMOOTH"
);
}
);
width = 404;
}
);
unicode = 003F;
},
{
glyphname = questiondown;
lastChange = "2015-05-04 20:11:21 +0000";
layers = (
{
layerId = "7D7A15B1-26C3-429D-8003-112E9373A587";
name = Light;
paths = (
{
closed = 1;
nodes = (
"217 546 OFFCURVE",
"199 563 OFFCURVE",
"199 584 CURVE SMOOTH",
"199 605 OFFCURVE",
"217 622 OFFCURVE",
"238 622 CURVE SMOOTH",
"261 622 OFFCURVE",
"276 605 OFFCURVE",
"276 584 CURVE SMOOTH",
"276 563 OFFCURVE",
"261 546 OFFCURVE",
"238 546 CURVE SMOOTH"
);
},
{
closed = 1;
nodes = (
"87 -80 OFFCURVE",
"30 -12 OFFCURVE",
"30 84 CURVE SMOOTH",
"30 160 OFFCURVE",
"92 241 OFFCURVE",
"203 290 CURVE",
"213 485 LINE",
"246 464 LINE",
"253 259 LINE",
"149 226 OFFCURVE",
"83 161 OFFCURVE",
"83 85 CURVE SMOOTH",
"83 5 OFFCURVE",
"132 -39 OFFCURVE",
"208 -39 CURVE SMOOTH",
"280 -39 OFFCURVE",
"322 -15 OFFCURVE",
"374 22 CURVE",
"382 -19 LINE",
"347 -50 OFFCURVE",
"285 -80 OFFCURVE",
"206 -80 CURVE SMOOTH"
);
}
);
width = 392;
},
{
layerId = "601FF878-0EB3-47BC-931B-6B704884A184";
name = Bold;
paths = (
{
closed = 1;
nodes = (
"218 525 OFFCURVE",
"195 547 OFFCURVE",
"195 574 CURVE SMOOTH",
"195 599 OFFCURVE",
"218 622 OFFCURVE",
"243 622 CURVE SMOOTH",
"270 622 OFFCURVE",
"291 599 OFFCURVE",
"291 574 CURVE SMOOTH",
"291 547 OFFCURVE",
"270 525 OFFCURVE",
"243 525 CURVE SMOOTH"
);
},
{
closed = 1;
nodes = (
"85 -80 OFFCURVE",
"30 -13 OFFCURVE",
"30 82 CURVE SMOOTH",
"30 158 OFFCURVE",
"100 241 OFFCURVE",
"212 290 CURVE",
"219 483 LINE",
"265 464 LINE",
"273 258 LINE",
"169 225 OFFCURVE",
"96 160 OFFCURVE",
"96 84 CURVE SMOOTH",
"96 4 OFFCURVE",
"136 -26 OFFCURVE",
"220 -26 CURVE SMOOTH",
"292 -26 OFFCURVE",
"334 -2 OFFCURVE",
"386 35 CURVE",
"394 -21 LINE",
"343 -54 OFFCURVE",
"297 -80 OFFCURVE",
"218 -80 CURVE SMOOTH"
);
}
);
width = 404;
}
);
unicode = 00BF;
},
{
glyphname = asterisk;
lastChange = "2015-05-04 18:40:54 +0000";
layers = (
{
layerId = "7D7A15B1-26C3-429D-8003-112E9373A587";
name = Light;
paths = (
{
closed = 1;
nodes = (
"172 654 LINE",
"290 685 LINE",
"303 653 LINE",
"187 624 LINE",
"266 505 LINE",
"235 489 LINE",
"156 602 LINE",
"82 489 LINE",
"46 505 LINE",
"125 624 LINE",
"10 653 LINE",
"22 685 LINE",
"137 654 LINE",
"137 774 LINE",
"172 774 LINE"
);
}
);
width = 313;
},
{
layerId = "601FF878-0EB3-47BC-931B-6B704884A184";
name = Bold;
paths = (
{
closed = 1;
nodes = (
"194 659 LINE",
"316 685 LINE",
"329 646 LINE",
"206 622 LINE",
"292 498 LINE",
"257 472 LINE",
"170 590 LINE",
"82 472 LINE",
"46 498 LINE",
"133 622 LINE",
"10 646 LINE",
"22 685 LINE",
"144 659 LINE",
"145 774 LINE",
"193 774 LINE"
);
}
);
width = 339;
}
);
unicode = 002A;
},
{
glyphname = quotedbl;
lastChange = "2015-05-04 18:40:54 +0000";
layers = (
{
layerId = "7D7A15B1-26C3-429D-8003-112E9373A587";
name = Light;
paths = (
{
closed = 1;
nodes = (
"230 702 OFFCURVE",
"245 679 OFFCURVE",
"245 659 CURVE SMOOTH",
"245 598 OFFCURVE",
"215 545 OFFCURVE",
"159 518 CURVE",
"143 543 LINE",
"178 562 OFFCURVE",
"203 589 OFFCURVE",
"204 625 CURVE",
"180 625 OFFCURVE",
"168 650 OFFCURVE",
"168 663 CURVE SMOOTH",
"168 683 OFFCURVE",
"181 702 OFFCURVE",
"206 702 CURVE SMOOTH"
);
},
{
closed = 1;
nodes = (
"107 702 OFFCURVE",
"122 679 OFFCURVE",
"122 659 CURVE SMOOTH",
"122 598 OFFCURVE",
"92 545 OFFCURVE",
"36 518 CURVE",
"20 543 LINE",
"55 562 OFFCURVE",
"80 589 OFFCURVE",
"81 625 CURVE",
"57 625 OFFCURVE",
"45 650 OFFCURVE",
"45 663 CURVE SMOOTH",
"45 683 OFFCURVE",
"58 702 OFFCURVE",
"83 702 CURVE SMOOTH"
);
}
);
width = 275;
},
{
layerId = "601FF878-0EB3-47BC-931B-6B704884A184";
name = Bold;
paths = (
{
closed = 1;
nodes = (
"254 702 OFFCURVE",
"276 680 OFFCURVE",
"276 647 CURVE SMOOTH",
"276 587 OFFCURVE",
"234 523 OFFCURVE",
"185 498 CURVE",
"167 527 LINE",
"199 548 OFFCURVE",
"221 571 OFFCURVE",
"224 606 CURVE",
"199 609 OFFCURVE",
"181 630 OFFCURVE",
"181 654 CURVE SMOOTH",
"181 679 OFFCURVE",
"202 702 OFFCURVE",
"229 702 CURVE SMOOTH"
);
},
{
closed = 1;
nodes = (
"108 702 OFFCURVE",
"130 680 OFFCURVE",
"130 647 CURVE SMOOTH",
"130 587 OFFCURVE",
"87 523 OFFCURVE",
"38 498 CURVE",
"20 527 LINE",
"51 548 OFFCURVE",
"73 571 OFFCURVE",
"76 606 CURVE",
"51 609 OFFCURVE",
"34 630 OFFCURVE",
"34 654 CURVE SMOOTH",
"34 679 OFFCURVE",
"55 702 OFFCURVE",
"83 702 CURVE SMOOTH"
);
}
);
width = 306;
}
);
unicode = 0022;
},
{
glyphname = quotesingle;
lastChange = "2015-05-04 18:40:54 +0000";
layers = (
{
layerId = "7D7A15B1-26C3-429D-8003-112E9373A587";
name = Light;
paths = (
{
closed = 1;
nodes = (
"107 702 OFFCURVE",
"122 679 OFFCURVE",
"122 659 CURVE SMOOTH",
"122 598 OFFCURVE",
"92 545 OFFCURVE",
"36 518 CURVE",
"20 543 LINE",
"55 562 OFFCURVE",
"80 589 OFFCURVE",
"81 625 CURVE",
"57 625 OFFCURVE",
"45 650 OFFCURVE",
"45 663 CURVE SMOOTH",
"45 683 OFFCURVE",
"58 702 OFFCURVE",
"83 702 CURVE SMOOTH"
);
}
);
width = 152;
},
{
layerId = "601FF878-0EB3-47BC-931B-6B704884A184";
name = Bold;
paths = (
{
closed = 1;
nodes = (
"108 702 OFFCURVE",
"130 680 OFFCURVE",
"130 647 CURVE SMOOTH",
"130 587 OFFCURVE",
"87 523 OFFCURVE",
"38 498 CURVE",
"20 527 LINE",
"51 548 OFFCURVE",
"73 571 OFFCURVE",
"76 606 CURVE",
"51 609 OFFCURVE",
"34 630 OFFCURVE",
"34 654 CURVE SMOOTH",
"34 679 OFFCURVE",
"55 702 OFFCURVE",
"83 702 CURVE SMOOTH"
);
}
);
width = 160;
}
);
unicode = 0027;
},
{
glyphname = quoteleft;
lastChange = "2015-05-04 18:40:54 +0000";
layers = (
{
layerId = "7D7A15B1-26C3-429D-8003-112E9373A587";
name = Light;
paths = (
{
closed = 1;
nodes = (
"45 518 OFFCURVE",
"30 541 OFFCURVE",
"30 561 CURVE SMOOTH",
"30 622 OFFCURVE",
"60 675 OFFCURVE",
"116 702 CURVE",
"132 677 LINE",
"97 658 OFFCURVE",
"72 631 OFFCURVE",
"71 595 CURVE",
"95 595 OFFCURVE",
"107 570 OFFCURVE",
"107 557 CURVE SMOOTH",
"107 537 OFFCURVE",
"94 518 OFFCURVE",
"69 518 CURVE SMOOTH"
);
}
);
width = 152;
},
{
layerId = "601FF878-0EB3-47BC-931B-6B704884A184";
name = Bold;
paths = (
{
closed = 1;
nodes = (
"49 498 OFFCURVE",
"30 519 OFFCURVE",
"30 552 CURVE SMOOTH",
"30 612 OFFCURVE",
"72 677 OFFCURVE",
"121 702 CURVE",
"140 671 LINE",
"108 651 OFFCURVE",
"84 628 OFFCURVE",
"81 593 CURVE",
"109 590 OFFCURVE",
"125 569 OFFCURVE",
"125 545 CURVE SMOOTH",
"125 520 OFFCURVE",
"104 498 OFFCURVE",
"77 498 CURVE SMOOTH"
);
}
);
width = 160;
}
);
unicode = 2018;
},
{
glyphname = quoteright;
lastChange = "2015-05-04 18:40:54 +0000";
layers = (
{
layerId = "7D7A15B1-26C3-429D-8003-112E9373A587";
name = Light;
paths = (
{
closed = 1;
nodes = (
"107 702 OFFCURVE",
"122 679 OFFCURVE",
"122 659 CURVE SMOOTH",
"122 598 OFFCURVE",
"92 545 OFFCURVE",
"36 518 CURVE",
"20 543 LINE",
"55 562 OFFCURVE",
"80 589 OFFCURVE",
"81 625 CURVE",
"57 625 OFFCURVE",
"45 650 OFFCURVE",
"45 663 CURVE SMOOTH",
"45 683 OFFCURVE",
"58 702 OFFCURVE",
"83 702 CURVE SMOOTH"
);
}
);
width = 152;
},
{
layerId = "601FF878-0EB3-47BC-931B-6B704884A184";
name = Bold;
paths = (
{
closed = 1;
nodes = (
"108 702 OFFCURVE",
"130 680 OFFCURVE",
"130 647 CURVE SMOOTH",
"130 587 OFFCURVE",
"87 523 OFFCURVE",
"38 498 CURVE",
"20 527 LINE",
"51 548 OFFCURVE",
"73 571 OFFCURVE",
"76 606 CURVE",
"51 609 OFFCURVE",
"34 630 OFFCURVE",
"34 654 CURVE SMOOTH",
"34 679 OFFCURVE",
"55 702 OFFCURVE",
"83 702 CURVE SMOOTH"
);
}
);
width = 160;
}
);
unicode = 2019;
},
{
glyphname = quotesinglbase;
lastChange = "2015-05-04 18:40:54 +0000";
layers = (
{
layerId = "7D7A15B1-26C3-429D-8003-112E9373A587";
name = Light;
paths = (
{
closed = 1;
nodes = (
"107 76 OFFCURVE",
"122 53 OFFCURVE",
"122 33 CURVE SMOOTH",
"122 -28 OFFCURVE",
"92 -81 OFFCURVE",
"36 -108 CURVE",
"20 -83 LINE",
"55 -64 OFFCURVE",
"80 -37 OFFCURVE",
"81 -1 CURVE",
"57 -1 OFFCURVE",
"45 24 OFFCURVE",
"45 37 CURVE SMOOTH",
"45 57 OFFCURVE",
"58 76 OFFCURVE",
"83 76 CURVE SMOOTH"
);
}
);
width = 152;
},
{
layerId = "601FF878-0EB3-47BC-931B-6B704884A184";
name = Bold;
paths = (
{
closed = 1;
nodes = (
"108 94 OFFCURVE",
"130 74 OFFCURVE",
"130 41 CURVE SMOOTH",
"130 -20 OFFCURVE",
"87 -83 OFFCURVE",
"38 -108 CURVE",
"20 -79 LINE",
"51 -58 OFFCURVE",
"73 -35 OFFCURVE",
"76 1 CURVE",
"51 2 OFFCURVE",
"34 24 OFFCURVE",
"34 48 CURVE SMOOTH",
"34 73 OFFCURVE",
"55 94 OFFCURVE",
"83 94 CURVE SMOOTH"
);
}
);
width = 160;
}
);
unicode = 201A;
},
{
glyphname = quotedblleft;
lastChange = "2015-05-04 18:40:54 +0000";
layers = (
{
layerId = "7D7A15B1-26C3-429D-8003-112E9373A587";
name = Light;
paths = (
{
closed = 1;
nodes = (
"45 518 OFFCURVE",
"30 541 OFFCURVE",
"30 561 CURVE SMOOTH",
"30 622 OFFCURVE",
"60 675 OFFCURVE",
"116 702 CURVE",
"132 677 LINE",
"97 658 OFFCURVE",
"72 631 OFFCURVE",
"71 595 CURVE",
"95 595 OFFCURVE",
"107 570 OFFCURVE",
"107 557 CURVE SMOOTH",
"107 537 OFFCURVE",
"94 518 OFFCURVE",
"69 518 CURVE SMOOTH"
);
},
{
closed = 1;
nodes = (
"168 518 OFFCURVE",
"153 541 OFFCURVE",
"153 561 CURVE SMOOTH",
"153 622 OFFCURVE",
"183 675 OFFCURVE",
"239 702 CURVE",
"255 677 LINE",
"220 658 OFFCURVE",
"195 631 OFFCURVE",
"194 595 CURVE",
"218 595 OFFCURVE",
"230 570 OFFCURVE",
"230 557 CURVE SMOOTH",
"230 537 OFFCURVE",
"217 518 OFFCURVE",
"192 518 CURVE SMOOTH"
);
}
);
width = 275;
},
{
layerId = "601FF878-0EB3-47BC-931B-6B704884A184";
name = Bold;
paths = (
{
closed = 1;
nodes = (
"49 498 OFFCURVE",
"30 519 OFFCURVE",
"30 552 CURVE SMOOTH",
"30 612 OFFCURVE",
"72 677 OFFCURVE",
"121 702 CURVE",
"140 671 LINE",
"108 651 OFFCURVE",
"84 628 OFFCURVE",
"81 593 CURVE",
"109 590 OFFCURVE",
"125 569 OFFCURVE",
"125 545 CURVE SMOOTH",
"125 520 OFFCURVE",
"104 498 OFFCURVE",
"77 498 CURVE SMOOTH"
);
},
{
closed = 1;
nodes = (
"198 498 OFFCURVE",
"177 519 OFFCURVE",
"177 552 CURVE SMOOTH",
"177 612 OFFCURVE",
"218 677 OFFCURVE",
"269 702 CURVE",
"286 671 LINE",
"254 651 OFFCURVE",
"231 628 OFFCURVE",
"230 593 CURVE",
"255 590 OFFCURVE",
"272 569 OFFCURVE",
"272 545 CURVE SMOOTH",
"272 520 OFFCURVE",
"250 498 OFFCURVE",
"223 498 CURVE SMOOTH"
);
}
);
width = 306;
}
);
unicode = 201C;
},
{
glyphname = quotedblright;
lastChange = "2015-05-04 18:40:54 +0000";
layers = (
{
layerId = "7D7A15B1-26C3-429D-8003-112E9373A587";
name = Light;
paths = (
{
closed = 1;
nodes = (
"230 702 OFFCURVE",
"245 679 OFFCURVE",
"245 659 CURVE SMOOTH",
"245 598 OFFCURVE",
"215 545 OFFCURVE",
"159 518 CURVE",
"143 543 LINE",
"178 562 OFFCURVE",
"203 589 OFFCURVE",
"204 625 CURVE",
"180 625 OFFCURVE",
"168 650 OFFCURVE",
"168 663 CURVE SMOOTH",
"168 683 OFFCURVE",
"181 702 OFFCURVE",
"206 702 CURVE SMOOTH"
);
},
{
closed = 1;
nodes = (
"107 702 OFFCURVE",
"122 679 OFFCURVE",
"122 659 CURVE SMOOTH",
"122 598 OFFCURVE",
"92 545 OFFCURVE",
"36 518 CURVE",
"20 543 LINE",
"55 562 OFFCURVE",
"80 589 OFFCURVE",
"81 625 CURVE",
"57 625 OFFCURVE",
"45 650 OFFCURVE",
"45 663 CURVE SMOOTH",
"45 683 OFFCURVE",
"58 702 OFFCURVE",
"83 702 CURVE SMOOTH"
);
}
);
width = 275;
},
{
layerId = "601FF878-0EB3-47BC-931B-6B704884A184";
name = Bold;
paths = (
{
closed = 1;
nodes = (
"254 702 OFFCURVE",
"276 680 OFFCURVE",
"276 647 CURVE SMOOTH",
"276 587 OFFCURVE",
"234 523 OFFCURVE",
"185 498 CURVE",
"167 527 LINE",
"199 548 OFFCURVE",
"221 571 OFFCURVE",
"224 606 CURVE",
"199 609 OFFCURVE",
"181 630 OFFCURVE",
"181 654 CURVE SMOOTH",
"181 679 OFFCURVE",
"202 702 OFFCURVE",
"229 702 CURVE SMOOTH"
);
},
{
closed = 1;
nodes = (
"108 702 OFFCURVE",
"130 680 OFFCURVE",
"130 647 CURVE SMOOTH",
"130 587 OFFCURVE",
"87 523 OFFCURVE",
"38 498 CURVE",
"20 527 LINE",
"51 548 OFFCURVE",
"73 571 OFFCURVE",
"76 606 CURVE",
"51 609 OFFCURVE",
"34 630 OFFCURVE",
"34 654 CURVE SMOOTH",
"34 679 OFFCURVE",
"55 702 OFFCURVE",
"83 702 CURVE SMOOTH"
);
}
);
width = 306;
}
);
unicode = 201D;
},
{
glyphname = quotedblbase;
lastChange = "2015-05-04 18:40:54 +0000";
layers = (
{
layerId = "7D7A15B1-26C3-429D-8003-112E9373A587";
name = Light;
paths = (
{
closed = 1;
nodes = (
"230 76 OFFCURVE",
"245 53 OFFCURVE",
"245 33 CURVE SMOOTH",
"245 -28 OFFCURVE",
"215 -81 OFFCURVE",
"159 -108 CURVE",
"143 -83 LINE",
"178 -64 OFFCURVE",
"203 -37 OFFCURVE",
"204 -1 CURVE",
"180 -1 OFFCURVE",
"168 24 OFFCURVE",
"168 37 CURVE SMOOTH",
"168 57 OFFCURVE",
"181 76 OFFCURVE",
"206 76 CURVE SMOOTH"
);
},
{
closed = 1;
nodes = (
"107 76 OFFCURVE",
"122 53 OFFCURVE",
"122 33 CURVE SMOOTH",
"122 -28 OFFCURVE",
"92 -81 OFFCURVE",
"36 -108 CURVE",
"20 -83 LINE",
"55 -64 OFFCURVE",
"80 -37 OFFCURVE",
"81 -1 CURVE",
"57 -1 OFFCURVE",
"45 24 OFFCURVE",
"45 37 CURVE SMOOTH",
"45 57 OFFCURVE",
"58 76 OFFCURVE",
"83 76 CURVE SMOOTH"
);
}
);
width = 275;
},
{
layerId = "601FF878-0EB3-47BC-931B-6B704884A184";
name = Bold;
paths = (
{
closed = 1;
nodes = (
"108 95 OFFCURVE",
"130 74 OFFCURVE",
"130 41 CURVE SMOOTH",
"130 -19 OFFCURVE",
"87 -83 OFFCURVE",
"38 -108 CURVE",
"20 -78 LINE",
"51 -57 OFFCURVE",
"73 -34 OFFCURVE",
"76 1 CURVE",
"51 2 OFFCURVE",
"34 24 OFFCURVE",
"34 48 CURVE SMOOTH",
"34 75 OFFCURVE",
"55 95 OFFCURVE",
"83 95 CURVE SMOOTH"
);
},
{
closed = 1;
nodes = (
"254 94 OFFCURVE",
"276 74 OFFCURVE",
"276 41 CURVE SMOOTH",
"276 -20 OFFCURVE",
"234 -83 OFFCURVE",
"185 -108 CURVE",
"167 -79 LINE",
"199 -58 OFFCURVE",
"221 -35 OFFCURVE",
"224 1 CURVE",
"199 2 OFFCURVE",
"181 24 OFFCURVE",
"181 48 CURVE SMOOTH",
"181 73 OFFCURVE",
"202 94 OFFCURVE",
"229 94 CURVE SMOOTH"
);
}
);
width = 306;
}
);
unicode = 201E;
},
{
glyphname = periodcentered;
lastChange = "2015-05-04 20:04:11 +0000";
layers = (
{
layerId = "7D7A15B1-26C3-429D-8003-112E9373A587";
name = Light;
paths = (
{
closed = 1;
nodes = (
"45 224 OFFCURVE",
"30 241 OFFCURVE",
"30 262 CURVE SMOOTH",
"30 283 OFFCURVE",
"45 300 OFFCURVE",
"68 300 CURVE SMOOTH",
"89 300 OFFCURVE",
"107 283 OFFCURVE",
"107 262 CURVE SMOOTH",
"107 241 OFFCURVE",
"89 224 OFFCURVE",
"68 224 CURVE SMOOTH"
);
}
);
width = 137;
},
{
layerId = "601FF878-0EB3-47BC-931B-6B704884A184";
name = Bold;
paths = (
{
closed = 1;
nodes = (
"51 214 OFFCURVE",
"30 237 OFFCURVE",
"30 262 CURVE SMOOTH",
"30 289 OFFCURVE",
"51 309 OFFCURVE",
"78 309 CURVE SMOOTH",
"103 309 OFFCURVE",
"125 289 OFFCURVE",
"125 262 CURVE SMOOTH",
"125 237 OFFCURVE",
"103 214 OFFCURVE",
"78 214 CURVE SMOOTH"
);
}
);
width = 155;
}
);
unicode = 00B7;
},
{
glyphname = parenleft;
lastChange = "2015-05-04 18:40:54 +0000";
layers = (
{
layerId = "7D7A15B1-26C3-429D-8003-112E9373A587";
name = Light;
paths = (
{
closed = 1;
nodes = (
"169 -37 LINE",
"85 71 OFFCURVE",
"50 213 OFFCURVE",
"50 320 CURVE SMOOTH",
"50 425 OFFCURVE",
"85 568 OFFCURVE",
"169 675 CURVE",
"209 657 LINE",
"150 594 OFFCURVE",
"101 417 OFFCURVE",
"101 321 CURVE SMOOTH",
"101 224 OFFCURVE",
"150 42 OFFCURVE",
"209 -19 CURVE"
);
}
);
width = 239;
},
{
layerId = "601FF878-0EB3-47BC-931B-6B704884A184";
name = Bold;
paths = (
{
closed = 1;
nodes = (
"169 -37 LINE",
"85 71 OFFCURVE",
"50 213 OFFCURVE",
"50 320 CURVE SMOOTH",
"50 425 OFFCURVE",
"85 568 OFFCURVE",
"169 675 CURVE",
"221 657 LINE",
"162 594 OFFCURVE",
"113 417 OFFCURVE",
"113 321 CURVE SMOOTH",
"113 224 OFFCURVE",
"162 42 OFFCURVE",
"221 -19 CURVE"
);
}
);
width = 251;
}
);
unicode = 0028;
},
{
glyphname = parenright;
lastChange = "2015-05-04 18:40:54 +0000";
layers = (
{
layerId = "7D7A15B1-26C3-429D-8003-112E9373A587";
name = Light;
paths = (
{
closed = 1;
nodes = (
"70 675 LINE",
"151 568 OFFCURVE",
"189 425 OFFCURVE",
"189 320 CURVE SMOOTH",
"189 213 OFFCURVE",
"151 71 OFFCURVE",
"70 -37 CURVE",
"30 -19 LINE",
"87 42 OFFCURVE",
"138 223 OFFCURVE",
"138 319 CURVE SMOOTH",
"138 415 OFFCURVE",
"87 594 OFFCURVE",
"30 657 CURVE"
);
}
);
width = 239;
},
{
layerId = "601FF878-0EB3-47BC-931B-6B704884A184";
name = Bold;
paths = (
{
closed = 1;
nodes = (
"82 675 LINE",
"163 568 OFFCURVE",
"201 425 OFFCURVE",
"201 320 CURVE SMOOTH",
"201 213 OFFCURVE",
"163 71 OFFCURVE",
"82 -37 CURVE",
"30 -19 LINE",
"87 42 OFFCURVE",
"138 223 OFFCURVE",
"138 319 CURVE SMOOTH",
"138 415 OFFCURVE",
"87 594 OFFCURVE",
"30 657 CURVE"
);
}
);
width = 251;
}
);
unicode = 0029;
},
{
glyphname = bracketleft;
lastChange = "2015-05-04 18:40:54 +0000";
layers = (
{
layerId = "7D7A15B1-26C3-429D-8003-112E9373A587";
name = Light;
paths = (
{
closed = 1;
nodes = (
"100 696 LINE",
"255 696 LINE",
"247 657 LINE",
"149 657 LINE",
"149 -49 LINE",
"247 -49 LINE",
"255 -88 LINE",
"100 -88 LINE"
);
}
);
width = 265;
},
{
layerId = "601FF878-0EB3-47BC-931B-6B704884A184";
name = Bold;
paths = (
{
closed = 1;
nodes = (
"100 696 LINE",
"263 696 LINE",
"255 651 LINE",
"157 651 LINE",
"157 -44 LINE",
"255 -44 LINE",
"263 -88 LINE",
"100 -88 LINE"
);
}
);
width = 273;
}
);
unicode = 005B;
},
{
glyphname = bracketright;
lastChange = "2015-05-04 19:57:07 +0000";
layers = (
{
layerId = "7D7A15B1-26C3-429D-8003-112E9373A587";
name = Light;
paths = (
{
closed = 1;
nodes = (
"165 -88 LINE",
"10 -88 LINE",
"18 -49 LINE",
"116 -49 LINE",
"116 657 LINE",
"18 657 LINE",
"10 696 LINE",
"165 696 LINE"
);
}
);
width = 265;
},
{
layerId = "601FF878-0EB3-47BC-931B-6B704884A184";
name = Bold;
paths = (
{
closed = 1;
nodes = (
"172 -88 LINE",
"10 -88 LINE",
"18 -44 LINE",
"115 -44 LINE",
"115 651 LINE",
"18 651 LINE",
"10 696 LINE",
"172 696 LINE"
);
}
);
width = 272;
}
);
unicode = 005D;
},
{
glyphname = braceleft;
lastChange = "2015-05-04 18:59:34 +0000";
layers = (
{
layerId = "7D7A15B1-26C3-429D-8003-112E9373A587";
name = Light;
paths = (
{
closed = 1;
nodes = (
"162 291 OFFCURVE",
"193 254 OFFCURVE",
"193 195 CURVE SMOOTH",
"193 178 OFFCURVE",
"187 154 OFFCURVE",
"174 125 CURVE SMOOTH",
"161 96 OFFCURVE",
"155 72 OFFCURVE",
"155 54 CURVE SMOOTH",
"155 26 OFFCURVE",
"178 -6 OFFCURVE",
"227 -6 CURVE SMOOTH",
"246 -6 LINE",
"255 -45 LINE",
"229 -45 LINE SMOOTH",
"145 -45 OFFCURVE",
"105 -4 OFFCURVE",
"105 60 CURVE SMOOTH",
"105 81 OFFCURVE",
"111 105 OFFCURVE",
"123 132 CURVE SMOOTH",
"135 159 OFFCURVE",
"141 183 OFFCURVE",
"141 204 CURVE SMOOTH",
"141 253 OFFCURVE",
"103 288 OFFCURVE",
"63 288 CURVE SMOOTH",
"30 288 LINE",
"30 326 LINE",
"63 326 LINE SMOOTH",
"103 326 OFFCURVE",
"141 361 OFFCURVE",
"141 410 CURVE SMOOTH",
"141 431 OFFCURVE",
"135 455 OFFCURVE",
"123 482 CURVE SMOOTH",
"111 509 OFFCURVE",
"105 533 OFFCURVE",
"105 554 CURVE SMOOTH",
"105 618 OFFCURVE",
"145 659 OFFCURVE",
"229 659 CURVE SMOOTH",
"255 659 LINE",
"246 620 LINE",
"227 620 LINE SMOOTH",
"178 620 OFFCURVE",
"155 588 OFFCURVE",
"155 560 CURVE SMOOTH",
"155 542 OFFCURVE",
"161 518 OFFCURVE",
"174 489 CURVE SMOOTH",
"187 460 OFFCURVE",
"193 436 OFFCURVE",
"193 419 CURVE SMOOTH",
"193 360 OFFCURVE",
"162 323 OFFCURVE",
"129 307 CURVE"
);
}
);
width = 265;
},
{
layerId = "601FF878-0EB3-47BC-931B-6B704884A184";
name = Bold;
paths = (
{
closed = 1;
nodes = (
"174 294 OFFCURVE",
"197 254 OFFCURVE",
"197 199 CURVE SMOOTH",
"197 180 OFFCURVE",
"191 157 OFFCURVE",
"178 128 CURVE SMOOTH",
"165 99 OFFCURVE",
"159 75 OFFCURVE",
"159 58 CURVE SMOOTH",
"159 29 OFFCURVE",
"182 3 OFFCURVE",
"231 3 CURVE SMOOTH",
"250 3 LINE",
"255 -42 LINE",
"229 -42 LINE SMOOTH",
"145 -42 OFFCURVE",
"105 -1 OFFCURVE",
"105 64 CURVE SMOOTH",
"105 85 OFFCURVE",
"111 109 OFFCURVE",
"123 136 CURVE SMOOTH",
"135 163 OFFCURVE",
"141 186 OFFCURVE",
"141 207 CURVE SMOOTH",
"141 258 OFFCURVE",
"103 288 OFFCURVE",
"63 288 CURVE SMOOTH",
"30 288 LINE",
"30 328 LINE",
"63 328 LINE SMOOTH",
"103 328 OFFCURVE",
"141 361 OFFCURVE",
"141 410 CURVE SMOOTH",
"141 431 OFFCURVE",
"135 455 OFFCURVE",
"123 482 CURVE SMOOTH",
"111 509 OFFCURVE",
"105 533 OFFCURVE",
"105 554 CURVE SMOOTH",
"105 618 OFFCURVE",
"145 659 OFFCURVE",
"229 659 CURVE SMOOTH",
"255 659 LINE",
"250 614 LINE",
"231 614 LINE SMOOTH",
"182 614 OFFCURVE",
"159 588 OFFCURVE",
"159 560 CURVE SMOOTH",
"159 542 OFFCURVE",
"165 518 OFFCURVE",
"178 489 CURVE SMOOTH",
"191 460 OFFCURVE",
"197 436 OFFCURVE",
"197 419 CURVE SMOOTH",
"197 360 OFFCURVE",
"178 326 OFFCURVE",
"133 311 CURVE"
);
}
);
width = 265;
}
);
unicode = 007B;
},
{
glyphname = braceright;
lastChange = "2015-05-04 18:59:40 +0000";
layers = (
{
layerId = "7D7A15B1-26C3-429D-8003-112E9373A587";
name = Light;
paths = (
{
closed = 1;
nodes = (
"103 323 OFFCURVE",
"72 360 OFFCURVE",
"72 419 CURVE SMOOTH",
"72 436 OFFCURVE",
"78 460 OFFCURVE",
"91 489 CURVE SMOOTH",
"104 518 OFFCURVE",
"110 542 OFFCURVE",
"110 560 CURVE SMOOTH",
"110 588 OFFCURVE",
"87 620 OFFCURVE",
"38 620 CURVE SMOOTH",
"19 620 LINE",
"10 659 LINE",
"36 659 LINE SMOOTH",
"120 659 OFFCURVE",
"160 618 OFFCURVE",
"160 554 CURVE SMOOTH",
"160 533 OFFCURVE",
"154 509 OFFCURVE",
"142 482 CURVE SMOOTH",
"130 455 OFFCURVE",
"124 431 OFFCURVE",
"124 410 CURVE SMOOTH",
"124 361 OFFCURVE",
"162 326 OFFCURVE",
"202 326 CURVE SMOOTH",
"235 326 LINE",
"235 288 LINE",
"202 288 LINE SMOOTH",
"162 288 OFFCURVE",
"124 253 OFFCURVE",
"124 204 CURVE SMOOTH",
"124 183 OFFCURVE",
"130 159 OFFCURVE",
"142 132 CURVE SMOOTH",
"154 105 OFFCURVE",
"160 81 OFFCURVE",
"160 60 CURVE SMOOTH",
"160 -4 OFFCURVE",
"120 -45 OFFCURVE",
"36 -45 CURVE SMOOTH",
"10 -45 LINE",
"19 -6 LINE",
"38 -6 LINE SMOOTH",
"87 -6 OFFCURVE",
"110 26 OFFCURVE",
"110 54 CURVE SMOOTH",
"110 72 OFFCURVE",
"104 96 OFFCURVE",
"91 125 CURVE SMOOTH",
"78 154 OFFCURVE",
"72 178 OFFCURVE",
"72 195 CURVE SMOOTH",
"72 254 OFFCURVE",
"103 291 OFFCURVE",
"136 307 CURVE"
);
}
);
width = 265;
},
{
layerId = "601FF878-0EB3-47BC-931B-6B704884A184";
name = Bold;
paths = (
{
closed = 1;
nodes = (
"90 323 OFFCURVE",
"67 363 OFFCURVE",
"67 419 CURVE SMOOTH",
"67 436 OFFCURVE",
"73 460 OFFCURVE",
"86 489 CURVE SMOOTH",
"99 518 OFFCURVE",
"105 542 OFFCURVE",
"105 560 CURVE SMOOTH",
"105 588 OFFCURVE",
"82 614 OFFCURVE",
"34 614 CURVE SMOOTH",
"15 614 LINE",
"10 659 LINE",
"35 659 LINE SMOOTH",
"120 659 OFFCURVE",
"160 618 OFFCURVE",
"160 554 CURVE SMOOTH",
"160 533 OFFCURVE",
"154 509 OFFCURVE",
"142 482 CURVE SMOOTH",
"129 455 OFFCURVE",
"123 431 OFFCURVE",
"123 410 CURVE SMOOTH",
"123 361 OFFCURVE",
"161 329 OFFCURVE",
"201 329 CURVE SMOOTH",
"234 329 LINE",
"234 290 LINE",
"201 290 LINE SMOOTH",
"161 290 OFFCURVE",
"123 258 OFFCURVE",
"123 207 CURVE SMOOTH",
"123 186 OFFCURVE",
"129 163 OFFCURVE",
"142 136 CURVE SMOOTH",
"154 109 OFFCURVE",
"160 85 OFFCURVE",
"160 64 CURVE SMOOTH",
"160 -1 OFFCURVE",
"120 -42 OFFCURVE",
"35 -42 CURVE SMOOTH",
"10 -42 LINE",
"15 3 LINE",
"34 3 LINE SMOOTH",
"82 3 OFFCURVE",
"105 29 OFFCURVE",
"105 58 CURVE SMOOTH",
"105 75 OFFCURVE",
"99 99 OFFCURVE",
"86 128 CURVE SMOOTH",
"73 157 OFFCURVE",
"67 180 OFFCURVE",
"67 199 CURVE SMOOTH",
"67 256 OFFCURVE",
"88 291 OFFCURVE",
"133 306 CURVE"
);
}
);
width = 264;
}
);
unicode = 007D;
},
{
glyphname = slash;
lastChange = "2015-05-04 18:40:54 +0000";
layers = (
{
layerId = "7D7A15B1-26C3-429D-8003-112E9373A587";
name = Light;
paths = (
{
closed = 1;
nodes = (
"365 706 LINE",
"56 -4 LINE",
"10 0 LINE",
"318 710 LINE"
);
}
);
width = 375;
},
{
layerId = "601FF878-0EB3-47BC-931B-6B704884A184";
name = Bold;
paths = (
{
closed = 1;
nodes = (
"375 706 LINE",
"66 -4 LINE",
"10 0 LINE",
"318 710 LINE"
);
}
);
width = 385;
}
);
unicode = 002F;
},
{
glyphname = backslash;
lastChange = "2015-05-04 18:40:54 +0000";
layers = (
{
layerId = "7D7A15B1-26C3-429D-8003-112E9373A587";
name = Light;
paths = (
{
closed = 1;
nodes = (
"318 -4 LINE",
"10 706 LINE",
"57 710 LINE",
"365 0 LINE"
);
}
);
width = 375;
},
{
layerId = "601FF878-0EB3-47BC-931B-6B704884A184";
name = Bold;
paths = (
{
closed = 1;
nodes = (
"318 -4 LINE",
"10 706 LINE",
"67 710 LINE",
"375 0 LINE"
);
}
);
width = 385;
}
);
unicode = 005C;
},
{
glyphname = bar;
lastChange = "2015-05-04 18:40:54 +0000";
layers = (
{
layerId = "7D7A15B1-26C3-429D-8003-112E9373A587";
name = Light;
paths = (
{
closed = 1;
nodes = (
"149 706 LINE",
"149 -4 LINE",
"100 0 LINE",
"100 710 LINE"
);
}
);
width = 249;
},
{
layerId = "601FF878-0EB3-47BC-931B-6B704884A184";
name = Bold;
paths = (
{
closed = 1;
nodes = (
"157 706 LINE",
"157 -4 LINE",
"95 0 LINE",
"95 710 LINE"
);
}
);
width = 252;
}
);
unicode = 007C;
},
{
glyphname = brokenbar;
lastChange = "2015-05-04 18:40:54 +0000";
layers = (
{
layerId = "7D7A15B1-26C3-429D-8003-112E9373A587";
name = Light;
paths = (
{
closed = 1;
nodes = (
"149 706 LINE",
"149 406 LINE",
"100 410 LINE",
"100 710 LINE"
);
},
{
closed = 1;
nodes = (
"149 288 LINE",
"149 -4 LINE",
"100 0 LINE",
"100 292 LINE"
);
}
);
width = 249;
},
{
layerId = "601FF878-0EB3-47BC-931B-6B704884A184";
name = Bold;
paths = (
{
closed = 1;
nodes = (
"157 706 LINE",
"157 406 LINE",
"95 410 LINE",
"95 710 LINE"
);
},
{
closed = 1;
nodes = (
"157 288 LINE",
"157 -4 LINE",
"95 0 LINE",
"95 292 LINE"
);
}
);
width = 252;
}
);
unicode = 00A6;
},
{
glyphname = guillemotleft;
lastChange = "2015-05-04 18:40:54 +0000";
layers = (
{
layerId = "7D7A15B1-26C3-429D-8003-112E9373A587";
name = Light;
paths = (
{
closed = 1;
nodes = (
"182 261 LINE",
"322 406 LINE",
"343 375 LINE",
"220 245 LINE",
"343 115 LINE",
"322 84 LINE",
"182 229 LINE"
);
},
{
closed = 1;
nodes = (
"30 261 LINE",
"170 406 LINE",
"191 375 LINE",
"69 245 LINE",
"191 115 LINE",
"170 84 LINE",
"30 229 LINE"
);
}
);
width = 363;
},
{
layerId = "601FF878-0EB3-47BC-931B-6B704884A184";
name = Bold;
paths = (
{
closed = 1;
nodes = (
"182 267 LINE",
"322 406 LINE",
"343 365 LINE",
"230 245 LINE",
"343 125 LINE",
"322 84 LINE",
"182 223 LINE"
);
},
{
closed = 1;
nodes = (
"30 267 LINE",
"170 406 LINE",
"191 365 LINE",
"79 245 LINE",
"191 125 LINE",
"170 84 LINE",
"30 223 LINE"
);
}
);
width = 363;
}
);
unicode = 00AB;
},
{
glyphname = guillemotright;
lastChange = "2015-05-04 20:11:31 +0000";
layers = (
{
layerId = "7D7A15B1-26C3-429D-8003-112E9373A587";
name = Light;
paths = (
{
closed = 1;
nodes = (
"181 229 LINE",
"41 84 LINE",
"20 115 LINE",
"143 245 LINE",
"20 375 LINE",
"41 406 LINE",
"181 261 LINE"
);
},
{
closed = 1;
nodes = (
"333 229 LINE",
"193 84 LINE",
"172 115 LINE",
"294 245 LINE",
"172 375 LINE",
"193 406 LINE",
"333 261 LINE"
);
}
);
width = 363;
},
{
layerId = "601FF878-0EB3-47BC-931B-6B704884A184";
name = Bold;
paths = (
{
closed = 1;
nodes = (
"183 223 LINE",
"43 84 LINE",
"20 125 LINE",
"133 245 LINE",
"20 365 LINE",
"43 406 LINE",
"183 267 LINE"
);
},
{
closed = 1;
nodes = (
"334 223 LINE",
"195 84 LINE",
"172 125 LINE",
"286 245 LINE",
"172 365 LINE",
"195 406 LINE",
"334 267 LINE"
);
}
);
width = 364;
}
);
unicode = 00BB;
},
{
glyphname = pi;
lastChange = "2015-05-04 18:40:54 +0000";
layers = (
{
layerId = "7D7A15B1-26C3-429D-8003-112E9373A587";
name = Light;
paths = (
{
closed = 1;
nodes = (
"109 0 LINE",
"109 446 LINE",
"10 446 LINE",
"10 485 LINE",
"531 485 LINE",
"531 446 LINE",
"431 446 LINE",
"431 0 LINE",
"382 0 LINE",
"382 446 LINE",
"158 446 LINE",
"158 0 LINE"
);
}
);
width = 541;
},
{
layerId = "601FF878-0EB3-47BC-931B-6B704884A184";
name = Bold;
paths = (
{
closed = 1;
nodes = (
"109 0 LINE",
"109 435 LINE",
"10 435 LINE",
"10 485 LINE",
"559 485 LINE",
"559 435 LINE",
"459 435 LINE",
"459 0 LINE",
"396 0 LINE",
"396 435 LINE",
"172 435 LINE",
"172 0 LINE"
);
}
);
width = 569;
}
);
unicode = 03C0;
},
{
glyphname = dagger;
lastChange = "2015-05-04 18:40:54 +0000";
layers = (
{
layerId = "7D7A15B1-26C3-429D-8003-112E9373A587";
name = Light;
paths = (
{
closed = 1;
nodes = (
"203 780 LINE",
"203 619 LINE",
"317 619 LINE",
"336 582 LINE",
"203 582 LINE",
"203 -4 LINE",
"154 0 LINE",
"154 582 LINE",
"49 582 LINE",
"30 619 LINE",
"154 619 LINE",
"154 783 LINE"
);
}
);
width = 366;
},
{
layerId = "601FF878-0EB3-47BC-931B-6B704884A184";
name = Bold;
paths = (
{
closed = 1;
nodes = (
"220 780 LINE",
"220 625 LINE",
"324 625 LINE",
"343 577 LINE",
"220 577 LINE",
"210 -4 LINE",
"164 0 LINE",
"154 577 LINE",
"49 577 LINE",
"30 625 LINE",
"154 625 LINE",
"154 783 LINE"
);
}
);
width = 373;
}
);
unicode = 2020;
},
